<?xml version="1.0" encoding="utf-8"?>
<svg x="0px" y="0px" viewBox="0 0 90.495 78.901" xmlns="http://www.w3.org/2000/svg">
  <g display="none">
    <path display="inline" d="M68.997,43.007h-38c-1.104,0-2,0.896-2,2V93c0,1.105,0.896,2,2,2H31.7h36.594h0.703c1.105,0,2-0.895,2-2   V45.007C70.997,43.903,70.102,43.007,68.997,43.007z M67.075,87H32.997V47.007h34L67.075,87z M50,93.007c-1.104,0-2-0.895-2-2   c0-1.104,0.896-2,2-2c1.104,0,1.997,0.896,1.997,2C51.997,92.113,51.104,93.007,50,93.007z"/>
  </g>
  <g display="none">
    <path display="inline" d="M60.007,53.008H39.993c-1.101,0-1.993,0.896-1.993,2.001v37.998c0,1.104,0.892,2.001,1.993,2.001h20.015   c1.1,0,1.993-0.896,1.993-2.001V55.009C62,53.905,61.107,53.008,60.007,53.008z M58.014,57.01v29.997H41.985V57.01H58.014z    M50,93.007c-1.104,0-2-0.895-2-2c0-1.104,0.896-2,2-2c1.104,0,1.997,0.896,1.997,2C51.997,92.113,51.104,93.007,50,93.007z"/>
  </g>
  <g display="none">
    <path display="inline" d="M94.54,91.736l-9.543-11.729v-46c0-1.104-0.896-2-2-2h-66c-1.104,0-2,0.896-2,2v46L5.453,91.736   c-0.493,0.598-0.596,1.426-0.266,2.125c0.331,0.701,1.035,1.146,1.809,1.146h86.001c0.773,0,1.479-0.445,1.809-1.146   S95.032,92.333,94.54,91.736z M18.997,36.007h62v43h-62V36.007z M52.165,92.007c-0.855,0-3.482,0-4.338,0   c-1.601,0-2.896-1.311-2.983-2.977H13.012l4.985-6.023h64l5,6.023h-32C54.911,90.699,53.766,92.007,52.165,92.007z"/>
  </g>
  <g display="none">
    <g display="inline">
      <path d="M93.01,17.016H6.997c-1.105,0-2,0.896-2,2v61.958c0,1.105,0.895,2.033,2,2.033c0,0,28.439-0.006,28.984,0l-6.596,8.781    c-0.447,0.607-0.514,1.415-0.174,2.088s1.03,1.131,1.785,1.131h38c0.754,0,1.444-0.425,1.785-1.098    c0.34-0.673,0.272-1.48-0.175-2.088l-6.608-8.814c0.635-0.002,29.012,0,29.012,0c1.104,0,2-0.928,2-2.033V19.016    C95.01,17.911,94.114,17.016,93.01,17.016z M34.997,90.974l3.011-4h23.977l3.012,4H34.997z M90.997,79.007h-82v-8h82V79.007z     M91.01,66.974H8.997V21.016H91.01V66.974z"/>
      <circle cx="49.918" cy="74.974" r="2"/>
    </g>
  </g>
  <g display="none">
    <g display="inline">
      <path d="M72.997,11.019h-46L5,49.989l21.997,39.009h46L95,49.989L72.997,11.019z M71.163,80.039    c-3.501-8.224-11.655-14.031-21.166-14.031c-9.51,0-17.664,5.807-21.165,14.03L13.59,53.007h15.406c1.657,0,3-1.343,3-3    c0-1.657-1.343-3-3-3H13.573L28.749,20.12l7.643,13.375c0.554,0.969,1.566,1.512,2.607,1.512c0.504,0,1.016-0.127,1.485-0.396    c1.438-0.822,1.938-2.654,1.116-4.093l-7.714-13.5h32.22l-7.715,13.5c-0.822,1.438-0.322,3.271,1.116,4.093    c0.47,0.269,0.98,0.396,1.485,0.396c1.042,0,2.054-0.543,2.607-1.512l7.644-13.376l15.182,26.888h-15.43c-1.657,0-3,1.343-3,3    c0,1.657,1.343,3,3,3H86.41L71.163,80.039z"/>
      <path d="M50,37.009c-7.168,0-13,5.832-13,13.001c0,7.167,5.832,12.999,13,12.999c7.168,0,13-5.832,13-12.999    C63,42.841,57.168,37.009,50,37.009z"/>
    </g>
  </g>
  <g display="none">
    <rect x="5" y="5" display="inline" fill="none" stroke="#000000" stroke-width="0.02" stroke-miterlimit="10" width="90" height="90"/>
  </g>
  <g display="none">
    <path display="inline" d="M50.006,20C19.509,20,4.978,50.028,5,50.028c0,0,0.004-0.009,0.013-0.026   c0,0,13.984,29.997,44.993,29.997C78.997,80,95,50.002,95,50.002S80.997,20,50.006,20z M40,36.007h20c1.104,0,2,0.896,2,2   s-0.896,2-2,2H40c-1.104,0-2-0.896-2-2S38.896,36.007,40,36.007z M40,45.007h20c1.104,0,2,0.896,2,2s-0.896,2-2,2H40   c-1.104,0-2-0.896-2-2S38.896,45.007,40,45.007z M39.997,54.007h10c1.104,0,2,0.896,2,2s-0.896,2-2,2h-10c-1.104,0-2-0.896-2-2   S38.892,54.007,39.997,54.007z M50.006,74.007c-11,0-20.891-4.573-29.399-13.104c-4.086-4.096-7.046-8.26-8.61-10.867   c2.787-4.546,9.53-13.969,20.187-19.569C28.945,34.43,27,39.489,27,45.002c0,12.704,10.306,23.005,22.994,23.005   C62.709,68.007,73,57.707,73,45.002c0-5.546-1.963-10.633-5.233-14.605c4.113,2.148,7.999,5.06,11.633,8.701   c4.018,4.027,7.016,8.292,8.597,10.909C83.467,56.848,69.945,74.007,50.006,74.007z"/>
  </g>
  <g transform="matrix(1, 0, 0, 1, -4.752483, -10.772294)">
    <path d="M17.997,23.007h20c1.104,0,2,0.896,2,2c0,1.105-0.896,2-2,2h-20c-1.104,0-2-0.895-2-2   C15.997,23.904,16.892,23.007,17.997,23.007z" style="fill: rgb(177, 232, 76);"/>
    <path d="M18.455,33.007h10c1.104,0,2,0.896,2,2c0,1.105-0.896,2-2,2h-10c-1.104,0-2-0.895-2-2   C16.455,33.904,17.35,33.007,18.455,33.007z" style="fill: rgb(177, 232, 76);"/>
    <path d="M50.997,29.028V17.007h41c1.657,0,3-1.343,3-3s-1.343-3-3-3c0,0-83.818,0-84,0c-1.657,0-3,1.343-3,3v32   c0,1.657,1.343,3,3,3h3.614C7.175,54.523,4.991,59.027,5,59.027c0,0,0.004-0.008,0.013-0.025c0,0,13.984,29.997,44.993,29.997   C78.997,88.999,95,59.001,95,59.001S81.288,29.665,50.997,29.028z M10.997,43.007v-26h34v17.988c0,4.697-4,8.011-9,8.012   C35.894,43.007,10.997,43.007,10.997,43.007z M50.006,83.006c-11,0-20.891-4.573-29.399-13.104   c-4.086-4.096-7.046-8.26-8.61-10.867c1.475-2.406,4.071-6.18,7.757-10.028H53c1.104,0,2,0.896,2,2c0,1.105-0.896,2-2,2H27.03   c-0.016,0.33-0.03,0.66-0.03,0.994c0,1.72,0.195,3.394,0.553,5.006h15.443c1.104,0,2,0.896,2,2c0,1.105-0.896,2-2,2H28.833   c3.506,8.229,11.666,13.999,21.162,13.999C62.709,77.006,73,66.706,73,54.001c0-5.546-1.963-10.633-5.233-14.605   c4.113,2.148,7.999,5.06,11.633,8.701c4.018,4.027,7.016,8.292,8.597,10.909C83.467,65.847,69.945,83.006,50.006,83.006z" style="fill: rgb(177, 232, 76);"/>
  </g>
</svg>