<?xml version="1.0" encoding="utf-8"?>
<svg x="0px" y="0px" viewBox="0 0 97.465 81.119" xmlns="http://www.w3.org/2000/svg">
  <g transform="matrix(1, 0, 0, 1, -1.425745, -962.025574)">
    <path style="text-indent: 0px; text-transform: none; direction: ltr; baseline-shift: baseline; color: rgb(0, 0, 0); fill: rgb(80, 115, 185);" d="m 73.6563,962.36488 -30,5 -21.6563,10e-5 c -11.24411,-10e-6 -20.0000001,10.94399 -20.0000001,22.00001 0,11.05591 8.7558801,21.99991 20.0000001,21.99991 l 1.4375,0 7.625,29.5 c 0.21983,0.8511 1.05844,1.5004 1.9375,1.5 l 12,0 c 1.21594,5e-4 2.24133,-1.3226 1.9375,-2.5 l -7.34375,-28.5 4.25,0 29.8125,4.9688 c 1.14455,0.1995 2.34275,-0.807 2.34375,-1.9688 l 0,-49.99992 c -0.20954,-1.7547 -1.2549,-2.05222 -2.3437,-2.0001 z M 94.84375,966.64623 81,974.64624 c -0.95659,0.5523 -1.27104,1.76215 -0.71875,2.71875 0.5523,0.9566 1.76217,1.27095 2.71875,0.71875 l 13.84375,-8.00001 c 0.95659,-0.5523 1.30229,-1.76215 0.75,-2.71875 -0.52237,-1.11796 -1.90739,-1.16757 -2.75,-0.71875 z M 72,966.73993 l 0,45.24987 -26,-4.3437 0,-36.59367 z m -50,4.625 20,0 0,35.99987 -20,0 c -8.5409,0 -16.0000001,-9.11205 -16.0000001,-17.99986 0,-8.88794 7.4590901,-18.00002 16.0000001,-18.00001 z m 60,16.00001 c -1.10457,0 -2,0.8954 -2,2 0,1.1046 0.89543,1.99991 2,1.99991 l 14,0 c 1.10457,0 2,-0.89531 2,-1.99991 0,-1.1046 -0.89543,-2 -2,-2 z m -0.125,12.99986 c -0.64043,0.045 -1.24856,0.4021 -1.59375,1 -0.55229,0.9566 -0.23784,2.1665 0.71875,2.7188 l 13.84375,8 c 0.95658,0.5522 2.1977,0.2378 2.75,-0.7188 0.55229,-0.9566 0.20659,-2.1664 -0.75,-2.7187 l -13.84375,-8 c -0.35872,-0.2071 -0.74074,-0.3085 -1.125,-0.2813 z m -54.28125,11 7.84375,0 6.96875,27.0001 -7.84375,0 z" fill-opacity="1" stroke="none" marker="none" visibility="visible" display="inline" overflow="visible"/>
  </g>
</svg>