<?xml version="1.0" encoding="utf-8"?>
<svg x="0px" y="0px" viewBox="0 0 86.535 95.218" xmlns="http://www.w3.org/2000/svg">
  <path d="M 68.909 66.125 C 72.391 63.123 73.311 57.953 70.847 53.896 C 69.093 51.009 66.027 49.287 62.646 49.287 C 60.896 49.287 59.177 49.769 57.675 50.682 C 55.487 52.012 53.948 54.114 53.343 56.602 C 52.736 59.09 53.134 61.666 54.464 63.852 C 56.216 66.739 59.28 68.461 62.661 68.461 C 63.934 68.461 65.188 68.199 66.358 67.709 L 71.669 75.434 C 71.96 75.858 72.431 76.084 72.907 76.084 C 73.2 76.084 73.495 75.998 73.755 75.82 C 74.439 75.351 74.61 74.418 74.142 73.734 L 68.909 66.125 Z M 66.075 64.502 C 65.044 65.129 63.862 65.461 62.661 65.461 C 60.339 65.461 58.233 64.277 57.028 62.293 C 56.114 60.791 55.84 59.022 56.257 57.313 C 56.674 55.604 57.732 54.159 59.234 53.247 C 60.265 52.62 61.445 52.288 62.646 52.288 C 64.97 52.288 67.078 53.472 68.283 55.456 C 70.169 58.559 69.178 62.617 66.075 64.502 Z M 68.251 42.064 L 68.251 29.66 C 68.251 27.353 66.376 25.477 64.069 25.477 L 4.541 25.477 C 2.236 25.477 0.36 27.353 0.36 29.66 L 0.36 42.681 C 0.36 44.988 2.235 46.864 4.541 46.864 L 51.09 46.864 C 50.235 47.604 49.434 48.403 48.707 49.272 L 4.541 49.272 C 2.236 49.272 0.36 51.147 0.36 53.454 L 0.36 66.475 C 0.36 68.782 2.235 70.657 4.541 70.657 L 32.806 70.657 L 32.806 83.571 C 30.987 84.089 29.553 85.522 29.035 87.342 L 14.238 87.342 C 13.409 87.342 12.738 88.014 12.738 88.842 C 12.738 89.67 13.409 90.342 14.238 90.342 L 29.034 90.342 C 29.688 92.639 31.802 94.328 34.305 94.328 C 36.81 94.328 38.923 92.639 39.577 90.342 L 54.372 90.342 C 55.2 90.342 55.872 89.67 55.872 88.842 C 55.872 88.014 55.2 87.342 54.372 87.342 L 39.578 87.342 C 39.059 85.522 37.626 84.088 35.806 83.571 L 35.806 70.656 L 45.411 70.656 C 48.554 78.258 56.04 83.623 64.763 83.623 C 76.308 83.623 85.701 74.23 85.701 62.685 C 85.7 52.332 78.137 43.732 68.251 42.064 Z M 4.541 43.864 C 3.89 43.864 3.36 43.334 3.36 42.681 L 3.36 29.66 C 3.36 29.008 3.89 28.477 4.541 28.477 L 64.069 28.477 C 64.721 28.477 65.251 29.007 65.251 29.66 L 65.251 41.773 C 65.087 41.769 64.929 41.749 64.763 41.749 C 61.474 41.749 58.37 42.533 55.597 43.891 C 55.511 43.876 55.423 43.865 55.333 43.865 L 4.541 43.865 Z M 36.792 88.842 C 36.792 90.213 35.677 91.328 34.306 91.328 C 32.936 91.328 31.821 90.213 31.821 88.842 C 31.821 87.471 32.936 86.356 34.306 86.356 C 35.677 86.356 36.792 87.471 36.792 88.842 Z M 43.825 62.686 C 43.825 64.401 44.055 66.061 44.446 67.657 L 4.541 67.657 C 3.89 67.657 3.36 67.128 3.36 66.475 L 3.36 53.453 C 3.36 52.801 3.89 52.271 4.541 52.271 L 46.625 52.271 C 44.854 55.342 43.825 58.893 43.825 62.686 Z M 64.762 80.623 C 54.871 80.623 46.824 72.576 46.824 62.685 C 46.824 52.794 54.871 44.748 64.762 44.748 C 74.653 44.748 82.7 52.795 82.7 62.686 C 82.7 72.577 74.653 80.623 64.762 80.623 Z M 4.541 21.989 L 64.069 21.989 C 66.376 21.989 68.251 20.112 68.251 17.805 L 68.251 4.785 C 68.251 2.479 66.376 0.602 64.069 0.602 L 4.541 0.602 C 2.236 0.602 0.36 2.478 0.36 4.785 L 0.36 17.805 C 0.361 20.112 2.236 21.989 4.541 21.989 Z M 3.361 4.785 C 3.361 4.133 3.891 3.602 4.542 3.602 L 64.07 3.602 C 64.722 3.602 65.252 4.132 65.252 4.785 L 65.252 17.805 C 65.252 18.458 64.723 18.989 64.07 18.989 L 4.541 18.989 C 3.89 18.989 3.36 18.458 3.36 17.805 L 3.36 4.785 Z M 9.916 13.646 C 11.212 13.646 12.267 12.591 12.267 11.294 C 12.267 9.998 11.212 8.943 9.916 8.943 C 8.62 8.943 7.565 9.998 7.565 11.294 C 7.566 12.591 8.62 13.646 9.916 13.646 Z M 9.916 10.646 C 10.274 10.646 10.565 10.937 10.565 11.294 C 10.565 11.652 10.273 11.943 9.916 11.943 C 9.559 11.943 9.267 11.651 9.267 11.294 C 9.267 10.937 9.558 10.646 9.916 10.646 Z M 18.23 13.646 C 19.527 13.646 20.582 12.591 20.582 11.294 C 20.582 9.998 19.527 8.943 18.23 8.943 C 16.933 8.943 15.878 9.998 15.878 11.294 C 15.878 12.591 16.933 13.646 18.23 13.646 Z M 18.23 10.646 C 18.587 10.646 18.878 10.937 18.878 11.294 C 18.878 11.652 18.587 11.943 18.23 11.943 C 17.873 11.943 17.582 11.651 17.582 11.294 C 17.581 10.937 17.872 10.646 18.23 10.646 Z M 26.543 13.646 C 27.839 13.646 28.894 12.591 28.894 11.294 C 28.894 9.998 27.839 8.943 26.543 8.943 C 25.247 8.943 24.192 9.998 24.192 11.294 C 24.193 12.591 25.247 13.646 26.543 13.646 Z M 26.543 10.646 C 26.901 10.646 27.192 10.937 27.192 11.294 C 27.192 11.652 26.901 11.943 26.543 11.943 C 26.185 11.943 25.894 11.651 25.894 11.294 C 25.894 10.937 26.185 10.646 26.543 10.646 Z M 9.916 33.82 C 8.62 33.82 7.565 34.875 7.565 36.171 C 7.565 37.468 8.62 38.523 9.916 38.523 C 11.212 38.523 12.267 37.468 12.267 36.171 C 12.267 34.875 11.212 33.82 9.916 33.82 Z M 9.916 36.82 C 9.558 36.82 9.267 36.529 9.267 36.171 C 9.267 35.814 9.559 35.523 9.916 35.523 C 10.273 35.523 10.565 35.814 10.565 36.171 C 10.566 36.529 10.274 36.82 9.916 36.82 Z M 18.23 33.82 C 16.933 33.82 15.878 34.875 15.878 36.171 C 15.878 37.468 16.933 38.523 18.23 38.523 C 19.527 38.523 20.582 37.468 20.582 36.171 C 20.581 34.875 19.527 33.82 18.23 33.82 Z M 18.23 36.82 C 17.873 36.82 17.582 36.529 17.582 36.171 C 17.582 35.814 17.873 35.523 18.23 35.523 C 18.587 35.523 18.878 35.814 18.878 36.171 C 18.878 36.529 18.587 36.82 18.23 36.82 Z M 26.543 33.82 C 25.247 33.82 24.192 34.875 24.192 36.171 C 24.192 37.468 25.247 38.523 26.543 38.523 C 27.839 38.523 28.894 37.468 28.894 36.171 C 28.894 34.875 27.839 33.82 26.543 33.82 Z M 26.543 36.82 C 26.185 36.82 25.894 36.529 25.894 36.171 C 25.894 35.814 26.185 35.523 26.543 35.523 C 26.901 35.523 27.192 35.814 27.192 36.171 C 27.193 36.529 26.902 36.82 26.543 36.82 Z M 9.916 62.317 C 11.212 62.317 12.267 61.262 12.267 59.965 C 12.267 58.668 11.212 57.613 9.916 57.613 C 8.62 57.613 7.565 58.668 7.565 59.965 C 7.565 61.262 8.62 62.317 9.916 62.317 Z M 9.916 59.317 C 10.274 59.317 10.565 59.608 10.565 59.965 C 10.565 60.322 10.273 60.613 9.916 60.613 C 9.559 60.613 9.267 60.322 9.267 59.965 C 9.267 59.608 9.558 59.317 9.916 59.317 Z M 18.23 62.317 C 19.527 62.317 20.582 61.262 20.582 59.965 C 20.582 58.668 19.527 57.613 18.23 57.613 C 16.933 57.613 15.878 58.668 15.878 59.965 C 15.878 61.262 16.933 62.317 18.23 62.317 Z M 18.23 59.317 C 18.587 59.317 18.878 59.608 18.878 59.965 C 18.878 60.322 18.587 60.613 18.23 60.613 C 17.873 60.613 17.582 60.322 17.582 59.965 C 17.582 59.608 17.872 59.317 18.23 59.317 Z M 26.543 62.317 C 27.839 62.317 28.894 61.262 28.894 59.965 C 28.894 58.668 27.839 57.613 26.543 57.613 C 25.247 57.613 24.192 58.668 24.192 59.965 C 24.192 61.262 25.247 62.317 26.543 62.317 Z M 26.543 59.317 C 26.901 59.317 27.192 59.608 27.192 59.965 C 27.192 60.322 26.901 60.613 26.543 60.613 C 26.185 60.613 25.894 60.322 25.894 59.965 C 25.894 59.608 26.185 59.317 26.543 59.317 Z" style="fill: rgb(81, 167, 249);"/>
</svg>