<?xml version="1.0" encoding="utf-8"?>
<svg width="24" height="24" viewBox="0 0 20.35 16.579" xmlns="http://www.w3.org/2000/svg">
  <path d="M 18.555 4.302 C 18.715 3.902 19.235 2.312 18.385 0.162 C 18.385 0.162 17.075 -0.228 14.085 1.772 C 12.835 1.442 11.505 1.392 10.175 1.392 C 8.855 1.392 7.515 1.442 6.265 1.772 C 3.275 -0.258 1.965 0.162 1.965 0.162 C 1.115 2.312 1.635 3.902 1.805 4.302 C 0.785 5.392 0.175 6.772 0.175 8.492 C 0.175 14.932 4.335 16.382 10.175 16.382 C 15.965 16.382 20.175 14.932 20.175 8.492 C 20.175 6.772 19.565 5.392 18.555 4.302 M 10.175 15.152 C 6.055 15.152 2.705 14.962 2.705 10.962 C 2.705 10.012 3.175 9.112 3.975 8.382 C 5.315 7.152 7.605 7.802 10.175 7.802 C 12.765 7.802 15.025 7.152 16.375 8.382 C 17.175 9.112 17.675 10.002 17.675 10.962 C 17.675 14.952 14.305 15.152 10.175 15.152 M 7.035 8.892 C 6.215 8.892 5.535 9.892 5.535 11.112 C 5.535 12.342 6.215 13.352 7.035 13.352 C 7.865 13.352 8.535 12.352 8.535 11.112 C 8.535 9.882 7.865 8.892 7.035 8.892 M 13.315 8.892 C 12.485 8.892 11.815 9.882 11.815 11.112 C 11.815 12.352 12.485 13.352 13.315 13.352 C 14.135 13.352 14.815 12.352 14.815 11.112 C 14.815 9.882 14.175 8.892 13.315 8.892 Z" style="fill: rgb(212, 15, 28);"/>
</svg>