<svg xmlns="http://www.w3.org/2000/svg" xmlns:xlink="http://www.w3.org/1999/xlink" version="1.1" x="0px" y="0px" viewBox="0 0 100 125" style="enable-background:new 0 0 100 100;" xml:space="preserve"><style type="text/css">
	.st0{display:none;}
</style><path d="M50,27.2c-4.4,0-43.4,0.2-43.4,7.2v13.4c0,0.5,0.2,0.9,0.6,1.1c0.3,0.2,0.6,0.3,0.9,0.3v0.5c0,2.1,1.7,3.8,3.8,3.8h2.4  c5.2,9.1,14.8,14.7,25.3,14.7h0.3c2.4,0,4.7-1,6.5-2.7c1-0.9,2.3-1.5,3.7-1.5c1.4,0,2.7,0.5,3.7,1.5c1.8,1.7,4.1,2.7,6.5,2.7h0.3  c10.4,0,20.1-5.6,25.3-14.7h2.4c2.1,0,3.8-1.7,3.8-3.8v-0.5h0.1c0.3,0,0.6-0.1,0.8-0.3c0.4-0.3,0.6-0.7,0.6-1.1V34.4  C93.4,27.5,54.4,27.2,50,27.2z M13.8,52.5H12c-1.6,0.1-2.9-1.2-2.9-2.7V49c0.1,0,0.1,0,0.2-0.1c0.1,0,0.1,0,0.2-0.1  c0.2,0,0.4-0.1,0.6-0.1c0.1,0,0.1,0,0.2,0c0.3-0.1,0.6-0.1,0.9-0.2c0.1,0,0.2,0,0.3,0c0.2,0,0.3,0,0.5-0.1c0.1,0.3,0.2,0.5,0.3,0.8  c0.1,0.2,0.2,0.5,0.3,0.7c0.2,0.5,0.4,1,0.7,1.5l0.4,0.7L13.8,52.5C13.8,52.4,13.8,52.4,13.8,52.5z M41.2,61.7c-0.1,0-0.1,0-0.2,0  h-0.1c-0.7,0-9.8,0-15.7,0c-0.1,0-0.2,0-0.3-0.1c-0.2-0.1-3-2.5-4.2-8.7h24.5C44.6,56,43.4,60.9,41.2,61.7z M74.3,61.6  c-0.1,0.1-0.2,0.1-0.3,0.1c-6,0-15-0.1-15.7,0c-0.1,0-0.2,0-0.3,0c-2.2-0.8-3.4-5.6-4-8.8h24.5C77.3,59.1,74.5,61.5,74.3,61.6z   M91.1,49.8c-0.2,1.5-1.5,2.8-3,2.8h-1.8c0,0,0,0,0-0.1l0.1-0.3l0.4-0.7c0.2-0.5,0.5-1,0.7-1.5c0.1-0.2,0.2-0.5,0.3-0.7  c0.1-0.3,0.2-0.5,0.3-0.8c0.2,0,0.4,0.1,0.6,0.1c0.1,0,0.2,0,0.2,0c0.3,0.1,0.6,0.1,0.9,0.2c0,0,0,0,0.1,0c0.3,0.1,0.5,0.1,0.8,0.2  h0.1c0.1,0,0.2,0,0.3,0.1V49.8z M92.5,47.9L92.5,47.9c-0.1,0.1-0.2,0.2-0.3,0.3c-0.1,0-0.2,0.1-0.3,0.1l-0.3-0.1  c-0.2-0.1-0.4-0.1-0.7-0.2c-0.1,0-0.2,0-0.3-0.1c-0.2,0-0.4-0.1-0.6-0.1c-0.1,0-0.2,0-0.4-0.1c-0.2,0-0.4-0.1-0.6-0.1  c-0.1,0-0.3,0-0.4-0.1c-0.1,0-0.2,0-0.3,0c0.1-0.4,0.2-0.7,0.3-1.1c0.1-0.2,0.1-0.4,0.2-0.7c0.2-0.7,0.3-1.4,0.4-2.1  c0.2-1.5,0.4-3,0.4-4.5V36c0-3.7-30.2-4-39.5-4c-9.3,0-39.5,0.3-39.5,4v3.2c0,1.5,0.1,3,0.4,4.5c0.1,0.7,0.2,1.4,0.4,2.1  c0.1,0.2,0.1,0.4,0.2,0.7c0.1,0.4,0.2,0.7,0.3,1.1c-0.1,0-0.2,0-0.3,0c-0.1,0-0.3,0-0.4,0.1c-0.2,0-0.4,0.1-0.5,0.1  c-0.2,0-0.3,0.1-0.5,0.1c-0.1,0-0.2,0-0.3,0.1c-0.2,0-0.4,0.1-0.5,0.1C9,48,8.9,48,8.9,48c-0.1,0-0.3,0.1-0.4,0.1l-0.3,0.1  c-0.2,0-0.3,0-0.3-0.1c-0.1-0.1-0.2-0.2-0.2-0.3V34.4c0-3.5,18.2-6.2,42.4-6.2c11.2,0,21.7,0.6,29.4,1.7c12,1.7,13,3.9,13,4.5V47.9z  "/><text x="0" y="115" fill="#000000" font-size="5px" font-weight="bold" font-family="'Helvetica Neue', Helvetica, Arial-Unicode, Arial, Sans-serif">Created by Laura Hernández</text><text x="0" y="120" fill="#000000" font-size="5px" font-weight="bold" font-family="'Helvetica Neue', Helvetica, Arial-Unicode, Arial, Sans-serif">from the Noun Project</text></svg>