<?xml version="1.0" encoding="utf-8"?>
<svg x="0px" y="0px" viewBox="0 0 89.861 80.01" xmlns="http://www.w3.org/2000/svg">
  <path d="M 77.885 28.082 L 68.396 11.604 C 69.573 10.39 70.299 8.736 70.299 6.916 C 70.299 3.198 67.274 0.172 63.555 0.172 C 59.836 0.172 56.811 3.197 56.811 6.916 C 56.811 10.635 59.836 13.66 63.555 13.66 C 64.004 13.66 64.442 13.615 64.866 13.531 L 74.401 30.088 C 74.773 30.734 75.449 31.096 76.144 31.096 C 76.485 31.096 76.83 31.009 77.146 30.827 C 78.109 30.273 78.439 29.044 77.885 28.082 Z M 60.831 6.916 C 60.831 5.414 62.054 4.192 63.556 4.192 C 65.058 4.192 66.281 5.414 66.281 6.916 C 66.281 8.418 65.058 9.641 63.556 9.641 C 62.054 9.641 60.831 8.418 60.831 6.916 Z" style="fill: rgb(88, 193, 91);"/>
  <path d="M 70.82 62.552 L 80.694 46.302 C 82.324 46.749 84.123 46.59 85.719 45.713 C 88.978 43.923 90.173 39.816 88.383 36.556 C 86.592 33.297 82.485 32.102 79.226 33.893 C 75.967 35.683 74.772 39.79 76.562 43.049 C 76.778 43.443 77.028 43.805 77.306 44.137 L 67.385 60.466 C 66.998 61.103 67.007 61.87 67.341 62.48 C 67.505 62.777 67.747 63.038 68.058 63.228 C 69.007 63.803 70.244 63.501 70.82 62.552 Z M 81.16 37.415 C 82.477 36.692 84.136 37.175 84.86 38.492 C 85.583 39.809 85.1 41.468 83.784 42.191 C 82.468 42.914 80.808 42.431 80.085 41.115 C 79.362 39.798 79.844 38.139 81.16 37.415 Z" style="fill: rgb(88, 193, 91);"/>
  <path d="M 11.423 51.07 L 20.912 67.549 C 19.736 68.763 19.009 70.416 19.009 72.237 C 19.009 75.956 22.034 78.981 25.753 78.981 C 29.472 78.981 32.497 75.956 32.497 72.237 C 32.497 68.519 29.472 65.493 25.753 65.493 C 25.304 65.493 24.866 65.539 24.442 65.623 L 14.906 49.065 C 14.534 48.419 13.858 48.059 13.163 48.059 C 12.823 48.059 12.477 48.145 12.162 48.327 C 11.2 48.88 10.869 50.109 11.423 51.07 Z M 28.477 72.236 C 28.477 73.738 27.254 74.961 25.752 74.961 C 24.251 74.961 23.028 73.739 23.028 72.236 C 23.028 70.735 24.251 69.513 25.752 69.513 C 27.255 69.513 28.477 70.735 28.477 72.236 Z" style="fill: rgb(88, 193, 91);"/>
  <path d="M 18.756 16.6 L 8.882 32.85 C 7.251 32.403 5.452 32.562 3.856 33.439 C 0.597 35.23 -0.598 39.338 1.193 42.597 C 2.983 45.856 7.09 47.051 10.35 45.261 C 13.61 43.47 14.805 39.363 13.014 36.103 C 12.798 35.71 12.548 35.347 12.269 35.016 L 22.19 18.687 C 22.577 18.05 22.568 17.283 22.234 16.674 C 22.07 16.376 21.828 16.114 21.516 15.925 C 20.569 15.35 19.333 15.652 18.756 16.6 Z M 8.415 41.738 C 7.099 42.461 5.439 41.979 4.716 40.662 C 3.993 39.346 4.476 37.686 5.792 36.963 C 7.109 36.239 8.769 36.723 9.492 38.039 C 10.215 39.356 9.733 41.015 8.415 41.738 Z" style="fill: rgb(88, 193, 91);"/>
  <path d="M 51.08 5.258 L 32.065 5.238 C 31.602 3.612 30.533 2.156 28.956 1.246 C 25.736 -0.612 21.603 0.495 19.744 3.715 C 17.886 6.936 18.994 11.069 22.214 12.927 C 25.434 14.785 29.567 13.677 31.425 10.458 C 31.65 10.069 31.829 9.666 31.97 9.257 L 51.076 9.277 C 51.822 9.277 52.472 8.873 52.82 8.27 C 52.99 7.976 53.088 7.633 53.088 7.268 C 53.089 6.16 52.19 5.259 51.08 5.258 Z M 24.222 9.446 C 22.922 8.696 22.474 7.027 23.225 5.726 C 23.975 4.424 25.644 3.977 26.945 4.728 C 28.246 5.479 28.694 7.148 27.943 8.448 C 27.193 9.75 25.523 10.197 24.222 9.446 Z" style="fill: rgb(88, 193, 91);"/>
  <path d="M 35.965 72.455 C 35.965 72.82 36.063 73.162 36.233 73.457 C 36.581 74.059 37.232 74.464 37.978 74.463 L 57.084 74.444 C 57.224 74.854 57.403 75.256 57.628 75.645 C 59.486 78.865 63.619 79.973 66.84 78.114 C 70.06 76.256 71.168 72.123 69.309 68.903 C 67.451 65.682 63.317 64.574 60.097 66.434 C 58.521 67.344 57.451 68.799 56.989 70.425 L 37.974 70.444 C 36.863 70.444 35.964 71.345 35.965 72.455 Z M 61.108 73.634 C 60.358 72.334 60.805 70.664 62.106 69.913 C 63.406 69.162 65.076 69.609 65.828 70.91 C 66.578 72.211 66.131 73.881 64.83 74.631 C 63.529 75.383 61.859 74.935 61.108 73.634 Z" style="fill: rgb(88, 193, 91);"/>
  <g transform="matrix(1, 0, 0, 1, -4.910899, -10.93071)">
    <path d="M49.377,57.114c-3.64,0-6.602-2.962-6.602-6.602s2.962-6.602,6.602-6.602c3.641,0,6.602,2.962,6.602,6.602   S53.018,57.114,49.377,57.114z M49.377,47.661c-1.572,0-2.851,1.279-2.851,2.851c0,1.572,1.279,2.851,2.851,2.851   c1.572,0,2.851-1.279,2.851-2.851C52.228,48.94,50.949,47.661,49.377,47.661z" style="fill: rgb(88, 193, 91);"/>
  </g>
  <g transform="matrix(1, 0, 0, 1, -4.910899, -10.93071)">
    <path d="M37.561,52.388c-1.037,0-1.876-0.84-1.876-1.876c0-7.55,6.142-13.692,13.692-13.692c1.037,0,1.876,0.839,1.876,1.876   c0,1.035-0.839,1.875-1.876,1.875c-5.481,0-9.941,4.459-9.941,9.941C39.436,51.548,38.596,52.388,37.561,52.388z" style="fill: rgb(88, 193, 91);"/>
  </g>
  <path stroke="#000000" stroke-width="14" stroke-miterlimit="10" d="M 32.65 39.581" style="fill: rgb(88, 193, 91);"/>
  <path stroke="#000000" stroke-width="14" stroke-miterlimit="10" d="M 44.466 51.397" style="fill: rgb(88, 193, 91);"/>
  <g transform="matrix(1, 0, 0, 1, -4.910899, -10.93071)">
    <path d="M49.377,64.204c-1.036,0-1.875-0.839-1.875-1.875c0-1.035,0.84-1.875,1.875-1.875c5.481,0,9.94-4.46,9.94-9.941   c0-1.036,0.84-1.875,1.876-1.875s1.875,0.84,1.875,1.875C63.069,58.062,56.927,64.204,49.377,64.204z" style="fill: rgb(88, 193, 91);"/>
  </g>
  <path stroke="#000000" stroke-width="14" stroke-miterlimit="10" d="M 56.282 39.581" style="fill: rgb(88, 193, 91);"/>
  <path stroke="#000000" stroke-width="14" stroke-miterlimit="10" d="M 44.466 27.765" style="fill: rgb(88, 193, 91);"/>
  <g transform="matrix(1, 0, 0, 1, -4.910899, -10.93071)">
    <path d="M30.802,52.388c-1.035,0-1.875-0.84-1.875-1.876c0-11.276,9.175-20.451,20.452-20.451c1.036,0,1.876,0.84,1.876,1.875   c0,1.037-0.84,1.876-1.876,1.876c-9.208,0-16.7,7.491-16.7,16.699C32.678,51.548,31.839,52.388,30.802,52.388z" style="fill: rgb(88, 193, 91);"/>
  </g>
  <path stroke="#000000" stroke-width="14" stroke-miterlimit="10" d="M 25.891 39.581" style="fill: rgb(88, 193, 91);"/>
  <path stroke="#000000" stroke-width="14" stroke-miterlimit="10" d="M 44.467 58.156" style="fill: rgb(88, 193, 91);"/>
  <g transform="matrix(1, 0, 0, 1, -4.910899, -10.93071)">
    <path d="M49.378,70.963c-1.037,0-1.875-0.84-1.875-1.876s0.839-1.876,1.875-1.876c9.208,0,16.699-7.492,16.699-16.7   c0-1.036,0.84-1.875,1.876-1.875c1.035,0,1.875,0.84,1.875,1.875C69.828,61.789,60.654,70.963,49.378,70.963z" style="fill: rgb(88, 193, 91);"/>
  </g>
  <path stroke="#000000" stroke-width="14" stroke-miterlimit="10" d="M 63.042 39.581" style="fill: rgb(88, 193, 91);"/>
  <path stroke="#000000" stroke-width="14" stroke-miterlimit="10" d="M 44.467 21.005" style="fill: rgb(88, 193, 91);"/>
</svg>