<?xml version="1.0" encoding="utf-8"?>
<svg x="0px" y="0px" viewBox="0 0 83.049 85.238" xmlns="http://www.w3.org/2000/svg">
  <g transform="matrix(1, 0, 0, 1, -8.396053, -7.603972)">
    <circle cx="66.745" cy="48.758" r="2.107" style="fill: rgb(232, 65, 65);"/>
    <circle cx="33.255" cy="48.758" r="2.107" style="fill: rgb(232, 65, 65);"/>
    <path d="M23.792,29.647c1.875,0,3.4-1.525,3.4-3.4s-1.525-3.4-3.4-3.4c-1.875,0-3.4,1.525-3.4,3.4S21.917,29.647,23.792,29.647z    M23.792,24.847c0.772,0,1.4,0.628,1.4,1.4s-0.628,1.4-1.4,1.4s-1.4-0.628-1.4-1.4S23.02,24.847,23.792,24.847z" style="fill: rgb(232, 65, 65);"/>
    <path d="M31.707,30.553c1.875,0,3.4-1.525,3.4-3.4s-1.525-3.4-3.4-3.4c-1.875,0-3.4,1.525-3.4,3.4S29.832,30.553,31.707,30.553z    M31.707,25.753c0.772,0,1.4,0.628,1.4,1.4s-0.628,1.4-1.4,1.4s-1.4-0.628-1.4-1.4S30.935,25.753,31.707,25.753z" style="fill: rgb(232, 65, 65);"/>
    <path d="M76.707,29.647c1.875,0,3.4-1.525,3.4-3.4s-1.525-3.4-3.4-3.4c-1.875,0-3.4,1.525-3.4,3.4S74.832,29.647,76.707,29.647z    M76.707,24.847c0.772,0,1.4,0.628,1.4,1.4s-0.628,1.4-1.4,1.4s-1.4-0.628-1.4-1.4S75.935,24.847,76.707,24.847z" style="fill: rgb(232, 65, 65);"/>
    <path d="M68.792,30.553c1.875,0,3.4-1.525,3.4-3.4s-1.525-3.4-3.4-3.4c-1.875,0-3.4,1.525-3.4,3.4S66.917,30.553,68.792,30.553z    M68.792,25.753c0.772,0,1.4,0.628,1.4,1.4s-0.628,1.4-1.4,1.4s-1.4-0.628-1.4-1.4S68.02,25.753,68.792,25.753z" style="fill: rgb(232, 65, 65);"/>
    <path d="M90.937,33.081c-0.024-0.577-0.114-1.292-0.253-2.08c0.001-0.031,0.008-0.056,0.009-0.087l-0.025,0   c-0.83-4.598-3.509-11.908-7.143-13.213l-0.116-0.034c-2.216-0.504-4.633-0.876-7.223-1.153C72.229,11.5,62.71,8.66,55.279,8.139   c-2.668-0.186-7.83-0.186-10.422,0c-7.456,0.539-16.697,3.027-20.874,8.358c-2.653,0.279-5.127,0.655-7.391,1.169l-0.116,0.034   c-3.633,1.305-6.313,8.615-7.143,13.213l-0.025,0c0.001,0.031,0.008,0.056,0.009,0.087c-0.139,0.788-0.23,1.503-0.253,2.08   c-0.477,11.665,1.332,19.284,5.692,23.979c1.074,1.156,2.287,2.113,3.622,2.914c0.093,1.448,0.289,4.181,0.534,5.599   c1.279,7.423,4.443,11.516,8.449,16.697c0.622,0.805,1.271,1.643,1.942,2.532c3.337,4.418,5.831,5.695,9.541,6.618   c1.61,0.4,4.693,0.596,9.399,0.596c0.562,0,1.148-0.003,1.757-0.008c0.609,0.005,1.195,0.008,1.757,0.008   c4.706,0,7.79-0.196,9.399-0.596c3.71-0.922,6.205-2.199,9.542-6.617c0.671-0.889,1.319-1.727,1.942-2.532   c4.006-5.181,7.169-9.273,8.449-16.697c0.245-1.418,0.441-4.15,0.534-5.599c1.335-0.801,2.549-1.758,3.623-2.914   C89.605,52.365,91.414,44.746,90.937,33.081z M45,10.134c2.473-0.179,7.589-0.179,10.139,0c6.19,0.434,13.871,2.506,18.029,6.106   C66.396,15.72,58.578,15.717,50,15.717c-8.517,0-16.287,0.003-23.027,0.511C30.644,12.968,37.229,10.696,45,10.134z M17.099,19.602   c8.347-1.885,19.728-1.885,32.901-1.885s24.554,0,32.901,1.885c2.528,0.981,4.968,7.246,5.767,11.46   c-0.066,0.727-0.401,1.161-1.023,1.259c-7.991,1.264-23.487,2.125-37.641,2.065h-0.007c-14.171,0.052-29.65-0.801-37.641-2.065   c-0.622-0.098-0.957-0.531-1.023-1.259C12.131,26.848,14.571,20.583,17.099,19.602z M79.118,65.234   c-1.195,6.933-4.075,10.658-8.06,15.813c-0.627,0.811-1.28,1.655-1.956,2.55c-2.994,3.964-5.104,5.055-8.428,5.881   c-1.109,0.276-3.86,0.592-10.665,0.529h-0.019c-6.81,0.056-9.555-0.253-10.665-0.528c-3.324-0.827-5.434-1.918-8.428-5.882   c-0.676-0.895-1.329-1.739-1.956-2.55c-3.985-5.155-6.865-8.88-8.061-15.813c-0.172-0.998-0.323-2.773-0.426-4.19   c5.356,2.393,12.333,2.867,20.454,3.135c0.046,0.001,0.093,0.002,0.139,0.002c1.714,0,3.321-1.04,4.877-2.047   c1.381-0.894,2.809-1.817,4.075-1.817s2.693,0.924,4.075,1.817c1.556,1.007,3.163,2.047,4.877,2.047   c0.046,0,0.092-0.001,0.139-0.002c8.121-0.268,15.098-0.742,20.454-3.135C79.441,62.461,79.29,64.235,79.118,65.234z M59.024,62.18   c-1.129,0.041-2.462-0.818-3.863-1.725c-1.625-1.051-3.305-2.138-5.161-2.138s-3.536,1.087-5.161,2.138   c-1.4,0.907-2.734,1.765-3.863,1.725c-10.952-0.361-19.729-1.068-24.756-6.481c-3.876-4.173-5.525-11.1-5.183-21.734   c0.326,0.168,0.669,0.278,1.006,0.332c7.985,1.263,22.627,2.091,36.753,2.091c0.402,0,0.802,0,1.203-0.002   c0.401,0.001,0.801,0.002,1.203,0.002c14.125,0,28.769-0.829,36.753-2.091c0.337-0.053,0.681-0.164,1.006-0.332   c0.342,10.635-1.307,17.562-5.183,21.735C78.753,61.112,69.976,61.819,59.024,62.18z" style="fill: rgb(232, 65, 65);"/>
    <path d="M50,76.183c-2.105,0-4.282,0-6.354-1.717l-1.276,1.54c2.627,2.177,5.401,2.177,7.63,2.177c2.313,0,4.934,0,7.562-2.177   l-1.276-1.54C54.213,76.183,52.167,76.183,50,76.183z" style="fill: rgb(232, 65, 65);"/>
  </g>
</svg>