<?xml version="1.0" encoding="utf-8"?>
<svg style="enable-background:new 0 0 100 100;" x="0px" y="0px" viewBox="0 0 42.599 22.136" xmlns="http://www.w3.org/2000/svg">
  <style type="text/css">
	.st0{display:none;}
</style>
  <path d="M 21.268 0.027 C 19.129 0.027 0.173 0.133 0.173 3.833 L 0.173 10.918 C 0.173 11.182 0.27 11.394 0.465 11.5 C 0.61 11.605 0.756 11.658 0.902 11.658 L 0.902 11.923 C 0.902 13.033 1.729 13.931 2.749 13.931 L 3.916 13.931 C 6.443 18.742 11.109 21.703 16.164 21.703 L 16.31 21.703 C 17.476 21.703 18.594 21.175 19.469 20.276 C 19.955 19.747 20.587 19.483 21.268 19.483 C 21.948 19.483 22.58 19.747 23.066 20.276 C 23.941 21.175 25.059 21.703 26.225 21.703 L 26.372 21.703 C 31.426 21.703 36.141 18.742 38.619 13.931 L 39.786 13.931 C 40.808 13.931 41.633 13.033 41.633 11.923 L 41.633 11.658 L 41.682 11.658 C 41.828 11.658 41.973 11.605 42.071 11.5 C 42.265 11.341 42.362 11.129 42.362 10.918 L 42.362 3.833 C 42.362 0.185 23.406 0.027 21.268 0.027 Z M 3.673 13.403 L 2.749 13.403 L 2.749 13.456 C 1.971 13.456 1.388 12.769 1.388 11.975 L 1.388 11.552 C 1.437 11.552 1.437 11.552 1.485 11.5 C 1.534 11.5 1.534 11.5 1.582 11.447 C 1.68 11.447 1.777 11.394 1.874 11.394 C 1.923 11.394 1.923 11.394 1.971 11.394 C 2.117 11.341 2.263 11.341 2.409 11.288 C 2.457 11.288 2.506 11.288 2.554 11.288 C 2.652 11.288 2.701 11.288 2.798 11.235 C 2.846 11.394 2.895 11.5 2.943 11.658 C 2.993 11.764 3.04 11.923 3.09 12.028 C 3.187 12.293 3.284 12.557 3.43 12.821 L 3.624 13.192 L 3.673 13.403 L 3.673 13.403 Z M 38.279 13.562 C 35.849 18.267 31.28 21.175 26.322 21.175 L 26.177 21.175 C 25.156 21.175 24.135 20.699 23.358 19.906 C 22.774 19.324 22.045 18.954 21.219 18.954 C 20.441 18.954 19.663 19.271 19.08 19.906 C 18.303 20.752 17.282 21.175 16.261 21.175 L 16.116 21.175 C 11.255 21.175 6.686 18.267 4.256 13.562 C 4.207 13.509 4.207 13.456 4.159 13.403 L 6.929 13.403 C 7.512 16.84 8.922 18.108 9.019 18.214 C 9.068 18.267 9.116 18.267 9.165 18.267 C 12.081 18.267 16.456 18.214 16.796 18.267 L 16.845 18.267 C 16.893 18.267 16.893 18.267 16.942 18.267 C 18.06 17.844 18.643 15.095 18.934 13.456 L 19.663 13.456 L 22.435 13.456 L 23.164 13.456 C 23.455 15.148 24.038 17.897 25.156 18.267 C 25.205 18.267 25.253 18.267 25.302 18.267 C 25.642 18.214 30.065 18.267 32.933 18.267 C 32.981 18.267 33.03 18.267 33.079 18.214 C 33.176 18.161 34.585 16.84 35.168 13.403 L 38.377 13.403 C 38.328 13.456 38.328 13.509 38.279 13.562 Z M 7.512 13.403 L 18.448 13.403 C 18.157 15.253 17.574 17.421 16.845 17.739 C 16.359 17.686 14.803 17.686 9.311 17.739 C 9.068 17.474 7.999 16.205 7.512 13.403 Z M 23.698 13.403 L 34.634 13.403 C 34.148 16.205 33.079 17.421 32.836 17.739 C 27.343 17.686 25.788 17.686 25.302 17.739 C 24.572 17.421 23.989 15.253 23.698 13.403 Z M 35.315 12.927 L 34.828 12.927 L 23.601 12.927 L 23.114 12.927 L 22.24 12.927 L 19.955 12.927 L 19.08 12.927 L 18.594 12.927 L 7.367 12.927 L 6.88 12.927 L 3.916 12.927 C 3.77 12.663 3.673 12.346 3.576 12.028 C 3.576 11.975 3.527 11.923 3.527 11.817 C 3.43 11.5 3.333 11.235 3.235 10.918 C 3.04 10.178 2.846 9.437 2.749 8.697 C 2.652 7.957 2.604 7.164 2.604 6.371 L 2.604 4.679 C 2.895 3.886 9.991 3.093 21.316 3.093 C 32.641 3.093 39.738 3.886 40.029 4.679 L 40.029 6.371 L 39.981 6.371 C 39.981 7.164 39.932 7.904 39.835 8.697 C 39.738 9.437 39.543 10.178 39.349 10.918 C 39.252 11.235 39.155 11.5 39.058 11.817 C 39.058 11.87 39.008 11.923 39.008 12.028 C 38.911 12.346 38.765 12.61 38.668 12.927 L 35.315 12.927 Z M 41.245 11.975 C 41.147 12.769 40.516 13.456 39.786 13.456 L 38.911 13.456 L 38.911 13.403 L 38.96 13.244 L 39.155 12.874 C 39.252 12.61 39.397 12.346 39.494 12.081 C 39.543 11.975 39.592 11.817 39.641 11.712 C 39.689 11.552 39.738 11.447 39.786 11.288 C 39.884 11.288 39.981 11.341 40.078 11.341 C 40.126 11.341 40.175 11.341 40.175 11.341 C 40.321 11.394 40.466 11.394 40.613 11.447 C 40.613 11.447 40.613 11.447 40.661 11.447 C 40.808 11.5 40.905 11.5 41.05 11.552 L 41.099 11.552 C 41.147 11.552 41.196 11.552 41.245 11.605 L 41.245 11.975 Z M 41.925 10.971 L 41.925 10.971 C 41.876 11.024 41.828 11.077 41.779 11.129 C 41.73 11.129 41.682 11.182 41.633 11.182 L 41.487 11.129 C 41.39 11.077 41.293 11.077 41.147 11.024 C 41.099 11.024 41.05 11.024 41.002 10.971 C 40.905 10.971 40.808 10.918 40.71 10.918 C 40.661 10.918 40.613 10.918 40.516 10.865 C 40.418 10.865 40.321 10.813 40.224 10.813 C 40.175 10.813 40.078 10.813 40.029 10.759 C 39.981 10.759 39.932 10.759 39.884 10.759 C 39.932 10.548 39.981 10.389 40.029 10.178 C 40.078 10.072 40.078 9.967 40.126 9.808 C 40.224 9.437 40.272 9.068 40.321 8.697 C 40.418 7.904 40.516 7.111 40.516 6.318 L 40.516 4.679 C 40.516 2.723 25.836 2.565 21.316 2.565 C 16.796 2.565 2.117 2.723 2.117 4.679 L 2.117 6.371 C 2.117 7.164 2.166 7.957 2.311 8.75 C 2.36 9.121 2.409 9.49 2.506 9.86 C 2.554 9.967 2.554 10.072 2.604 10.231 C 2.652 10.442 2.701 10.601 2.749 10.813 C 2.701 10.813 2.652 10.813 2.604 10.813 C 2.554 10.813 2.457 10.813 2.409 10.865 C 2.311 10.865 2.214 10.918 2.166 10.918 C 2.069 10.918 2.02 10.971 1.923 10.971 C 1.874 10.971 1.826 10.971 1.777 11.024 C 1.68 11.024 1.582 11.077 1.534 11.077 C 1.34 11.024 1.29 11.024 1.29 11.024 C 1.243 11.024 1.145 11.077 1.096 11.077 L 0.951 11.129 C 0.853 11.129 0.805 11.129 0.805 11.077 C 0.756 11.024 0.707 10.971 0.707 10.918 L 0.707 3.833 C 0.707 1.983 9.554 0.556 21.316 0.556 C 26.76 0.556 31.864 0.873 35.607 1.454 C 41.439 2.353 41.925 3.517 41.925 3.833 L 41.925 10.971 Z" style="fill: rgb(232, 65, 65);"/>
</svg>