<svg xmlns="http://www.w3.org/2000/svg" xmlns:xlink="http://www.w3.org/1999/xlink" version="1.1" x="0px" y="0px" viewBox="0 0 100 125" enable-background="new 0 0 100 100" xml:space="preserve"><circle cx="76.766" cy="54.507" r="0.611"/><path d="M68.418,55.337c0.419,0,0.76-0.34,0.76-0.759v-0.143c0-0.419-0.341-0.76-0.76-0.76h-1.272c-0.419,0-0.759,0.341-0.759,0.76  v0.143c0,0.418,0.34,0.759,0.759,0.759H68.418z"/><path d="M75.685,53.676h-2.333c-0.42,0-0.76,0.341-0.76,0.76v0.143c0,0.418,0.34,0.759,0.76,0.759h2.333  c-0.178-0.23-0.289-0.517-0.289-0.83C75.396,54.193,75.506,53.907,75.685,53.676z"/><path d="M76.369,66.451c0.383,0,0.695-0.312,0.695-0.695v-7.705c0-0.384-0.313-0.696-0.695-0.696h-8.691  c-0.383,0-0.696,0.312-0.696,0.696v7.705c0,0.383,0.313,0.695,0.696,0.695H76.369z"/><path d="M57.167,57.762c0,0-8.445-6.169-20.604-6.169C26.786,51.593,18.535,56,18.535,56l2.668,8.079c0,0,7.972-3.643,15.359-3.657  c8.689-0.018,18.258,3.847,18.258,3.847L57.167,57.762z"/><path d="M22.102,65.124c-0.148,0.103-0.326,0.193-0.53,0.255c-0.625,0.192-1.219,0.061-1.327-0.289l-2.89-9.439  c-0.108-0.35,0.313-0.79,0.938-0.981c0.199-0.061,0.391-0.085,0.568-0.085l-0.444-1.444c-0.165-0.535-0.786-0.82-1.387-0.635  l-8.177,1.982c-0.221,0.068-0.24-1.054-0.686-1.704c0.304-0.651,0.43-1.832,0.597-3.411c0.442-4.194,1.183-11.213,6.285-17.115  c5.095-5.896,11.468-7.995,15.686-9.384c0.794-0.262,1.495-0.494,2.094-0.719c-0.004,0.055-0.004,0.092-0.004,0.1v0.198l3.697-0.161  c0.004,0,0.205-0.018,0.565-0.036c-0.126,0.011-0.244,0.021-0.341,0.03c-0.311,0.033-0.476,0.051-0.476,0.051  s0.166-0.003,0.479-0.01c0.312-0.005,0.77,0.002,1.352,0.007c0.582,0.01,1.288,0.035,2.096,0.083  c0.808,0.052,1.717,0.134,2.706,0.236c0.493,0.064,1.006,0.131,1.538,0.201c0.527,0.092,1.075,0.17,1.633,0.272  c1.115,0.218,2.283,0.481,3.466,0.83c0.589,0.185,1.194,0.352,1.781,0.593c0.296,0.112,0.594,0.224,0.894,0.337  c0.289,0.13,0.578,0.261,0.87,0.393c0.288,0.141,0.585,0.244,0.871,0.417c0.288,0.161,0.577,0.323,0.866,0.485l0.419,0.236  l0.404,0.274l0.809,0.549c1.045,0.778,1.973,1.679,2.778,2.69c0.408,0.5,0.794,1.021,1.223,1.533c0.207,0.264,0.43,0.48,0.642,0.72  c0.228,0.254,0.466,0.455,0.695,0.681c0.935,0.881,1.998,1.526,2.953,2.14c0.956,0.611,1.855,1.216,2.613,1.833  c0.754,0.635,1.391,1.285,1.949,1.872c0.28,0.295,0.542,0.571,0.786,0.827c0.132,0.125,0.257,0.248,0.38,0.355  c0.134,0.095,0.248,0.184,0.379,0.271c0.486,0.304,0.838,0.599,1.066,0.811c0.229,0.211,0.343,0.333,0.343,0.333  s-0.102-0.131-0.313-0.362c-0.213-0.229-0.532-0.564-1.017-0.907c-0.107-0.08-0.23-0.187-0.353-0.287  c-0.112-0.112-0.218-0.234-0.334-0.357c-0.224-0.269-0.467-0.56-0.726-0.87c-0.025-0.03-0.053-0.062-0.078-0.092  c0.097,0.11,0.19,0.216,0.279,0.317c0.5,0.57,0.896,1.021,1.235,1.225c0.04,0.023,0.08,0.05,0.12,0.076l1.374,1.283  c-0.016,0.01-0.033,0.018-0.048,0.03c-0.174,0.129-0.302,0.303-0.359,0.489c-0.063,0.204-0.034,0.408,0.078,0.56l2.405,3.239  c0.112,0.15,0.297,0.237,0.51,0.237c0.196,0,0.4-0.071,0.576-0.201c0.174-0.129,0.301-0.302,0.359-0.489  c0.063-0.204,0.034-0.408-0.079-0.56l-2.404-3.24c-0.134-0.181-0.381-0.255-0.636-0.22c-0.161-0.184-0.749-0.835-1.348-1.29  c1.572-1.375,1.171-2.138-1.107-5.824c-2.472-3.998-6.836-7.918-11.673-10.487c-5.043-2.679-10.567-3.975-17.384-4.078  c-3.493-0.052-5.288,0.191-6.294,0.494c-0.059-0.133-0.154-0.245-0.289-0.322c-0.952-0.55-3.806,0.516-6.03,1.506  c-2.555,1.137-7.312,4.208-7.359,4.239l0.207,0.319c0.047-0.031,4.778-3.085,7.306-4.211c2.944-1.31,5.07-1.879,5.688-1.524  c0.054,0.031,0.091,0.07,0.118,0.115c-0.478,0.185-0.725,0.379-0.924,0.536c-0.077,0.06-0.145,0.114-0.218,0.157  c-0.37,0.216-0.546,0.593-0.631,0.909c-0.643,0.253-1.421,0.51-2.288,0.796c-4.257,1.402-10.691,3.522-15.854,9.496  c-5.18,5.993-5.928,13.086-6.375,17.324c-0.144,1.363-0.269,2.531-0.507,3.157c-0.138-0.093-0.298-0.153-0.496-0.153  c-0.24,0-0.405,0.149-0.521,0.391c-0.016-0.019-0.034-0.033-0.049-0.055c-0.709-0.975-0.203-3.96,0.614-6.485  c0.959-2.964,1.858-6.362,1.866-6.396l-0.367-0.096c-0.008,0.034-0.905,3.422-1.861,6.375c-0.784,2.425-1.402,5.669-0.56,6.826  c0.067,0.092,0.144,0.166,0.225,0.23c-0.16,0.716-0.116,1.787-0.106,2.649l0.421,7.757l3.088,6.079  c0.461,0.967,1.55,0.714,2.558,0.477l8.757-3.206c0.602-0.185,0.955-0.769,0.791-1.305L22.102,65.124z"/><path d="M93.891,61.791c-0.404-2.348-2.447-14.09-3.044-14.686c-0.627-0.627-1.824-0.898-4.926-1.117  c-0.95-0.068-2.342-0.102-4.137-0.102c-1.609,0-3.263,0.028-4.495,0.055c-1.43,0.086-1.926,0.239-1.926,0.239  s-2.475,0.301-4.529,1.116c-2.538,1.007-4.334,2.17-6.147,3.938c-1.751,1.707-1.76,6.966-1.663,15.445  c0.096,8.466,5.35,8.265,7.685,9.359c1.852,0.868,2.519,1.422,2.716,1.615c-0.095,0.004-0.184,0.009-0.271,0.014  c0.137,0.112,0.188,0.173,0.194,0.18l0.059,0.078l0.1-0.005c0.041-0.002,4.193-0.218,8.014-0.381  c4.928-0.21,9.559-1.437,9.605-1.449l0.116-0.031l2.648-14.201l0.006-0.034L93.891,61.791z M67.689,51.033  c0,0,1.448-0.101,3.621-0.252c2.171-0.167,5.069-0.352,7.957-0.606c0.722-0.066,1.442-0.136,2.147-0.219  c0.349-0.05,0.687-0.081,1.036-0.137l0.259-0.039l0.064-0.009l0.016-0.002c-0.013,0.002,0.005-0.001,0.006-0.002l0.031-0.006  l0.122-0.025c0.162-0.035,0.321-0.066,0.483-0.106c0.645-0.139,1.265-0.34,1.855-0.513c0.59-0.18,1.146-0.364,1.662-0.533  c2.065-0.69,3.441-1.15,3.441-1.15c0.02-0.006,0.042,0.004,0.048,0.024c0.006,0.017-0.001,0.036-0.017,0.045  c0,0-0.313,0.19-0.876,0.489c-0.561,0.309-1.377,0.712-2.379,1.155c-1.008,0.435-2.193,0.916-3.554,1.251  c-0.167,0.048-0.347,0.072-0.522,0.106l-0.134,0.023l-0.076,0.012l-0.064,0.008l-0.26,0.03c-0.342,0.048-0.714,0.064-1.075,0.093  c-0.716,0.039-1.444,0.077-2.171,0.116c-2.905,0.132-5.807,0.226-7.986,0.262c-2.178,0.037-3.63,0.062-3.63,0.062  c-0.021,0-0.038-0.017-0.039-0.038C67.653,51.052,67.669,51.035,67.689,51.033z M78.42,54.436v0.143  c0,0.837-0.681,1.519-1.519,1.519h-3.55c-0.838,0-1.519-0.682-1.519-1.519v-0.143c0-0.838,0.681-1.519,1.519-1.519h3.55  C77.739,52.917,78.42,53.598,78.42,54.436z M65.626,54.579v-0.143c0-0.838,0.682-1.519,1.52-1.519h1.272  c0.837,0,1.518,0.681,1.518,1.519v0.143c0,0.837-0.681,1.519-1.518,1.519h-1.272C66.309,56.098,65.626,55.416,65.626,54.579z   M66.224,65.756v-7.705c0-0.803,0.653-1.455,1.455-1.455h8.691c0.802,0,1.455,0.652,1.455,1.455v7.705  c0,0.801-0.653,1.455-1.455,1.455h-8.691C66.876,67.21,66.224,66.557,66.224,65.756z M90.434,75.527  c-0.009,0.016-0.028,0.022-0.045,0.017c0,0-1.376-0.459-3.441-1.15c-0.515-0.168-1.071-0.353-1.662-0.532  c-0.591-0.173-1.21-0.374-1.855-0.514c-0.162-0.039-0.321-0.071-0.483-0.106l-0.122-0.025l-0.031-0.006  c-0.001,0-0.02-0.004-0.006-0.001l-0.016-0.003l-0.064-0.009l-0.259-0.038c-0.35-0.056-0.687-0.087-1.036-0.137  c-0.706-0.083-1.426-0.153-2.147-0.22c-2.888-0.254-5.786-0.438-7.957-0.605c-2.173-0.151-3.621-0.252-3.621-0.252  c-0.021-0.001-0.037-0.02-0.036-0.04c0.001-0.02,0.019-0.036,0.039-0.036c0,0,1.452,0.024,3.63,0.061  c2.179,0.036,5.081,0.129,7.986,0.262c0.728,0.039,1.456,0.077,2.171,0.115c0.361,0.03,0.732,0.046,1.075,0.094l0.26,0.031  l0.064,0.008l0.076,0.012l0.134,0.024c0.176,0.033,0.355,0.057,0.522,0.105c1.361,0.335,2.546,0.817,3.554,1.251  c1.002,0.442,1.819,0.846,2.379,1.154c0.564,0.299,0.876,0.489,0.876,0.489C90.438,75.486,90.445,75.509,90.434,75.527z   M93.704,61.943c0,0-0.771,0.171-1.928,0.267c-0.579,0.051-1.253,0.09-1.976,0.091c-0.723-0.007-1.495-0.066-2.266-0.091  c-1.542-0.06-3.085-0.107-4.242-0.169c-1.157-0.059-1.928-0.098-1.928-0.098c-0.021-0.001-0.038-0.019-0.036-0.04  c0.001-0.02,0.017-0.035,0.036-0.036c0,0,0.771-0.04,1.928-0.097c1.157-0.062,2.7-0.11,4.242-0.169  c0.771-0.025,1.542-0.084,2.266-0.091c0.723,0.001,1.397,0.041,1.976,0.091c1.158,0.096,1.928,0.266,1.928,0.266  c0.021,0.004,0.034,0.025,0.03,0.046C93.73,61.929,93.718,61.94,93.704,61.943z"/><path d="M70.64,76.817c-0.386-0.222-0.877-0.481-1.513-0.779c-2.334-1.094-7.587-0.893-7.684-9.359  c-0.097-8.479-0.087-13.738,1.663-15.445c1.813-1.768,3.61-2.931,6.148-3.938c0.533-0.211,1.093-0.392,1.631-0.543v-1.866  l-0.218,0.032c-0.069,0.01-6.896,1.044-10.816,3.373c-3.937,2.339-6.011,6.658-6.031,6.701l-0.076,0.162l3.431,1.883l0.235-0.671  c0.085-0.241,0.362-0.376,0.605-0.29c0.247,0.086,0.377,0.357,0.291,0.604l-3.269,9.313c-0.084,0.24-0.361,0.377-0.605,0.291  c-0.247-0.087-0.377-0.357-0.291-0.605l0.339-0.965l-1.874-0.678l-0.012,0.258c-0.006,0.144-0.142,3.552,1.28,5.605  c1.349,1.949,4.455,4.79,7.552,6.217c2.769,1.275,4.783,1.818,6.735,1.818h0c0.191,0,0.383-0.005,0.574-0.016  c1.127-0.061,1.598-0.165,1.798-0.395c0.144-0.166,0.127-0.358,0.112-0.543C70.643,76.931,70.642,76.874,70.64,76.817z   M60.511,67.726h-6.697c-0.192,0-0.348-0.17-0.348-0.38s0.156-0.38,0.348-0.38h6.697c0.192,0,0.348,0.17,0.348,0.38  S60.703,67.726,60.511,67.726z M60.859,55.877h-2.301c-0.209,0-0.38-0.17-0.38-0.38c0-0.209,0.17-0.38,0.38-0.38h2.301  c0.209,0,0.379,0.171,0.379,0.38C61.238,55.708,61.068,55.877,60.859,55.877z"/><text x="0" y="115" fill="#000000" font-size="5px" font-weight="bold" font-family="'Helvetica Neue', Helvetica, Arial-Unicode, Arial, Sans-serif">Created by NOPIXEL</text><text x="0" y="120" fill="#000000" font-size="5px" font-weight="bold" font-family="'Helvetica Neue', Helvetica, Arial-Unicode, Arial, Sans-serif">from the Noun Project</text></svg>