<?xml version="1.0" encoding="utf-8"?>
<svg x="0px" y="0px" viewBox="0 0 91.287 69.871" xmlns="http://www.w3.org/2000/svg">
  <g display="none">
    <rect x="-780.877" y="-517.172" display="inline" fill="#000000" width="1370.931" height="877.172"/>
  </g>
  <g transform="matrix(1, 0, 0, 1, -4.277235, -14.891112)">
    <g>
      <path d="M35.259,70.058h28.335v10.949h-8.413v1.504v1.504h19.833v-1.504v-1.504h-8.413V70.058h28.334V23.753H35.259V70.058z     M38.266,26.761h53.661v40.29H38.266V26.761z" style="fill: rgb(88, 193, 91);"/>
      <polygon points="35.194,18.526 95,18.526 95,17.023 95,15.519 35.194,15.519   " style="fill: rgb(88, 193, 91);"/>
      <path d="M7.354,27.872c0,5.359,4.36,9.72,9.719,9.72s9.72-4.361,9.72-9.72s-4.361-9.72-9.72-9.72S7.354,22.513,7.354,27.872z     M23.785,27.872c0,3.701-3.011,6.712-6.712,6.712s-6.711-3.011-6.711-6.712s3.011-6.712,6.711-6.712S23.785,24.171,23.785,27.872z    " style="fill: rgb(88, 193, 91);"/>
      <path d="M24.065,41.069H10.081C7.279,41.069,5,43.349,5,46.151v16.821c0,2.42,1.7,4.451,3.968,4.96v11.467    c0,2.802,2.279,5.082,5.081,5.082h6.047c2.802,0,5.081-2.28,5.081-5.082V67.932c2.268-0.509,3.968-2.54,3.968-4.96V46.151    C29.146,43.349,26.867,41.069,24.065,41.069z M26.138,62.972c0,1.144-0.93,2.075-2.074,2.075H22.17v14.353    c0,1.144-0.93,2.075-2.074,2.075h-6.047c-1.144,0-2.074-0.931-2.074-2.075V65.047h-1.894c-1.144,0-2.074-0.931-2.074-2.075V46.151    c0-1.144,0.93-2.075,2.074-2.075h13.983c1.144,0,2.074,0.931,2.074,2.075V62.972z" style="fill: rgb(88, 193, 91);"/>
    </g>
  </g>
</svg>