<svg xmlns="http://www.w3.org/2000/svg" xmlns:xlink="http://www.w3.org/1999/xlink" version="1.1" x="0px" y="0px" viewBox="0 0 100 125" enable-background="new 0 0 100 100" xml:space="preserve"><path fill="#000000" d="M93.796,86.398h-1.791h-5.629V74.541c0-27.38-11.925-52.994-33.003-70.771  c-3.164-2.47-5.835-0.929-6.76-0.229C25.359,21.325,13.209,47.043,13.209,74.541v11.857H7.07H5.791C4.801,86.398,4,87.2,4,88.189  s0.801,1.791,1.791,1.791H7.07h6.14h73.167h5.629h1.791c0.989,0,1.791-0.802,1.791-1.791S94.785,86.398,93.796,86.398z   M80.074,86.398H20.628c-4.699,0-2.563-3.858-2.184-4.489c13.77-19.019,27.867-20.006,30.584-20.006  c0.195,0,0.309,0.005,0.328,0.006l0.127,0.009l0.119-0.008c0.026-0.002,0.141-0.007,0.335-0.007c2.73,0,16.959,0.995,30.797,20.3  C83.072,85.604,81.28,86.287,80.074,86.398z M28.239,57.692c1.162-1.7,2.437-3.331,3.84-4.828l1.285,3.552l3.366-1.218l-1.814-5.015  c1.454-1.209,3.018-2.269,4.701-3.126l1.175,5.691l3.504-0.725l-1.309-6.338c1.582-0.499,3.249-0.832,5.016-0.948v5.846h3.582  v-5.786c1.902,0.181,3.694,0.598,5.379,1.218l-1.242,6.008l3.506,0.725l1.068-5.179c1.633,0.928,3.151,2.045,4.559,3.304  l-1.566,4.325l3.367,1.218l0.983-2.721c1.351,1.535,2.581,3.188,3.697,4.901l-2.11,4.305l3.214,1.575l1.081-2.206  c1.177,2.161,2.186,4.338,3.051,6.421c0.059,0.22,0.149,0.479,0.287,0.79c1.335,3.056-0.279,2.026-1.169,1.321  c-12.132-11.76-23.254-12.479-25.75-12.479c-0.205,0-0.357,0.005-0.455,0.008c-0.098-0.003-0.25-0.008-0.455-0.008  c-2.45,0-13.202,0.694-25.063,11.822c-0.019,0.017-0.035,0.029-0.054,0.047c-2.321,2.063-1.918-0.428-1.892-0.577  c1.071-2.674,2.387-5.54,3.987-8.347l1.572,3.207l3.213-1.575L28.239,57.692z M80.815,69.489c-0.024-0.065-0.042-0.131-0.067-0.197  c-0.004-0.01,0-0.016,0-0.017c-4.604-11.854-13.88-28.167-31.258-28.167c-16.324,0-25.579,14.394-30.379,25.966  c-0.002,0.004-0.006,0.007-0.008,0.012c-2.007,4.385-1.984,0.512-1.959-0.313c2.011-23.217,12.995-44.616,31.065-59.998  c0.605-0.438,1.944-1.079,3.489,0.272c18.48,15.876,29.479,38.076,30.929,62.049C82.543,73.622,81.167,70.392,80.815,69.489z"/><path fill="#000000" d="M81.004,98.167c0.989,0,1.791-0.802,1.791-1.791s-0.802-1.79-1.791-1.79h-2.303H20.373h-0.256  c-0.989,0-1.791,0.801-1.791,1.79s0.802,1.791,1.791,1.791h0.256h58.328H81.004z"/><text x="0" y="115" fill="#000000" font-size="5px" font-weight="bold" font-family="'Helvetica Neue', Helvetica, Arial-Unicode, Arial, Sans-serif">Created by Iconic</text><text x="0" y="120" fill="#000000" font-size="5px" font-weight="bold" font-family="'Helvetica Neue', Helvetica, Arial-Unicode, Arial, Sans-serif">from the Noun Project</text></svg>