<?xml version="1.0" encoding="utf-8"?>
<svg x="0px" y="0px" viewBox="0 0 90.812 63.535" xmlns="http://www.w3.org/2000/svg">
  <g transform="matrix(1, 0, 0, 1, -4.594067, -18.376266)">
    <path d="M91.271,81.243h-60.53c-2.057,0-3.73-1.673-3.73-3.729v-5.503c0-2.056,1.673-3.729,3.73-3.729h60.53   c2.056,0,3.729,1.673,3.729,3.729v5.503C95,79.57,93.327,81.243,91.271,81.243z M30.741,70.238c-0.978,0-1.773,0.795-1.773,1.773   v5.503c0,0.978,0.795,1.773,1.773,1.773h60.53c0.978,0,1.773-0.795,1.773-1.773v-5.503c0-0.978-0.795-1.773-1.773-1.773H30.741z    M16.984,81.243H8.729C6.673,81.243,5,79.57,5,77.514v-5.503c0-2.056,1.673-3.729,3.729-3.729h8.254   c2.056,0,3.729,1.673,3.729,3.729v5.503C20.713,79.57,19.04,81.243,16.984,81.243z M8.729,70.238c-0.978,0-1.773,0.795-1.773,1.773   v5.503c0,0.978,0.795,1.773,1.773,1.773h8.254c0.978,0,1.773-0.795,1.773-1.773v-5.503c0-0.978-0.795-1.773-1.773-1.773H8.729z    M91.271,56.481h-60.53c-2.057,0-3.73-1.673-3.73-3.729v-5.502c0-2.057,1.673-3.73,3.73-3.73h60.53c2.056,0,3.729,1.673,3.729,3.73   v5.502C95,54.808,93.327,56.481,91.271,56.481z M30.741,45.476c-0.978,0-1.773,0.796-1.773,1.773v5.502   c0,0.978,0.795,1.773,1.773,1.773h60.53c0.978,0,1.773-0.795,1.773-1.773v-5.502c0-0.978-0.795-1.773-1.773-1.773H30.741z    M16.984,56.481H8.729C6.673,56.481,5,54.808,5,52.751v-5.502c0-2.057,1.673-3.73,3.729-3.73h8.254c2.056,0,3.729,1.673,3.729,3.73   v5.502C20.713,54.808,19.04,56.481,16.984,56.481z M8.729,45.476c-0.978,0-1.773,0.796-1.773,1.773v5.502   c0,0.978,0.795,1.773,1.773,1.773h8.254c0.978,0,1.773-0.795,1.773-1.773v-5.502c0-0.978-0.795-1.773-1.773-1.773H8.729z    M91.271,31.719h-60.53c-2.057,0-3.73-1.673-3.73-3.73v-5.502c0-2.057,1.673-3.73,3.73-3.73h60.53c2.056,0,3.729,1.673,3.729,3.73   v5.502C95,30.046,93.327,31.719,91.271,31.719z M30.741,20.713c-0.978,0-1.773,0.796-1.773,1.773v5.502   c0,0.978,0.795,1.773,1.773,1.773h60.53c0.978,0,1.773-0.796,1.773-1.773v-5.502c0-0.978-0.795-1.773-1.773-1.773H30.741z    M16.984,31.719H8.729C6.673,31.719,5,30.046,5,27.989v-5.502c0-2.057,1.673-3.73,3.729-3.73h8.254c2.056,0,3.729,1.673,3.729,3.73   v5.502C20.713,30.046,19.04,31.719,16.984,31.719z M8.729,20.713c-0.978,0-1.773,0.796-1.773,1.773v5.502   c0,0.978,0.795,1.773,1.773,1.773h8.254c0.978,0,1.773-0.796,1.773-1.773v-5.502c0-0.978-0.795-1.773-1.773-1.773H8.729z" style="fill: rgb(218, 141, 230);"/>
  </g>
</svg>