<?xml version="1.0" encoding="utf-8"?>
<svg viewBox="0 0 596 146" xmlns="http://www.w3.org/2000/svg">
  <rect id="backgroundrect" width="1391.13" height="869.456" x="-445.565" y="-184.728" fill="none" stroke="none" class=""/>
  <rect id="rect-1" width="1391.13" height="869.456" x="-445.565" y="-184.728" fill="none" stroke="none" class=""/>
  <rect id="rect-2" width="2597.918" height="1623.699" x="42.869" y="217.526" fill="none" stroke="none" class=""/>
  <rect id="rect-3" width="2597.918" height="1623.699" x="-872.156" y="-484.273" fill="none" stroke="none" class=""/>
  <g transform="matrix(1.706174, 0, 0, 1.639522, -11.022877, -9.6422)">
    <g>
      <path d="M43.744,76.145l-0.183,1.991c1.905,0.175,3.885,0.263,5.884,0.263c2.351,0,4.663-0.122,6.872-0.362l-0.216-1.988    C52.145,76.479,47.757,76.512,43.744,76.145z" style="fill: rgb(255, 179, 0);"/>
      <path d="M88.369,25.914c-1.6-3.952-4.531-6.386-8.477-7.039c-1.08-0.179-2.314-0.331-3.641-0.464    c-3.36-4.443-11.064-7.202-17.955-8.202c-0.036-2.176-1.81-3.935-3.993-3.935h-8.605c-2.18,0-3.951,1.754-3.992,3.924    c-6.848,0.944-14.359,3.469-17.925,8.197c-1.336,0.137-2.583,0.294-3.676,0.481c-3.952,0.675-6.881,3.109-8.472,7.039    C7.294,36.632,6.569,52.52,7.713,59.869c0.709,4.555,3.962,7.274,8.702,7.274c1.162,0,2.319-0.064,3.485-0.151    c0.288,6.623,3.901,11.246,8.069,16.559c0.751,0.958,1.522,1.939,2.293,2.961c3.337,4.418,5.832,5.695,9.542,6.617    c1.609,0.4,4.693,0.597,9.4,0.597c0.257,0,0.536-0.003,0.802-0.004c0.266,0.001,0.546,0.004,0.803,0.004    c4.709,0,7.794-0.196,9.404-0.596c3.712-0.922,6.207-2.199,9.544-6.617c0.772-1.022,1.543-2.004,2.295-2.963    c4.167-5.311,7.78-9.932,8.07-16.552c1.132,0.084,2.273,0.146,3.464,0.146c4.74,0,7.993-2.719,8.702-7.274    C93.431,52.52,92.706,36.632,88.369,25.914z M58.303,12.221c5.57,0.834,11.61,2.833,15.033,5.941    c-4.693-0.339-10.158-0.482-15.033-0.542V12.221z M45.697,8.274h8.605c1.103,0,2,0.897,2,2V17.6    c-2.722-0.023-5.185-0.024-7.105-0.024c-1.522,0-3.411,0.001-5.5,0.014v-7.316C43.697,9.172,44.594,8.274,45.697,8.274z     M41.697,12.209v5.398c-4.747,0.05-10.244,0.183-14.998,0.532C29.82,15.248,35.211,13.115,41.697,12.209z M70.478,82.315    c-0.76,0.968-1.538,1.96-2.317,2.992c-2.994,3.963-5.104,5.055-8.431,5.881c-1,0.249-3.343,0.525-8.778,0.535l0-0.006    c-0.324,0.003-0.631,0.004-0.937,0.005c-0.312-0.001-0.625-0.002-0.955-0.005l0,0.006c-5.428-0.009-7.773-0.286-8.773-0.535    c-3.324-0.826-5.434-1.917-8.428-5.881c-0.779-1.032-1.557-2.023-2.316-2.991c-3.968-5.058-7.404-9.455-7.647-15.495    c1.647-0.171,3.341-0.391,5.158-0.631c5.456-0.721,12.246-1.619,22.145-1.619c11.981,0,18.803,0.926,24.284,1.671    c1.622,0.22,3.14,0.421,4.644,0.581C77.882,72.861,74.446,77.258,70.478,82.315z M90.31,59.561    c-0.784,5.038-4.964,5.582-6.725,5.582c-3.339,0-6.205-0.389-9.834-0.882c-5.541-0.752-12.437-1.689-24.553-1.689    c-10.031,0-16.894,0.907-22.407,1.636c-3.797,0.502-7.077,0.936-10.375,0.936c-1.761,0-5.941-0.544-6.725-5.582    c-1.109-7.12-0.407-22.513,3.795-32.896c1.317-3.254,3.722-5.265,6.956-5.817c7.441-1.271,21.838-1.271,28.757-1.271    c7.363,0,22.684,0,30.367,1.272c3.222,0.533,5.625,2.544,6.95,5.816C90.717,37.048,91.419,52.441,90.31,59.561z" style="fill: rgb(255, 179, 0);"/>
    </g>
  </g>
  <g display="none" transform="matrix(1, 0, 0, 1, 929.488159, 466.683899)">
    <path display="inline" d="M68.997,43.007h-38c-1.104,0-2,0.896-2,2V93c0,1.105,0.896,2,2,2H31.7h36.594h0.703c1.105,0,2-0.895,2-2   V45.007C70.997,43.903,70.102,43.007,68.997,43.007z M67.075,87H32.997V47.007h34L67.075,87z M50,93.007c-1.104,0-2-0.895-2-2   c0-1.104,0.896-2,2-2c1.104,0,1.997,0.896,1.997,2C51.997,92.113,51.104,93.007,50,93.007z"/>
  </g>
  <g display="none" transform="matrix(1, 0, 0, 1, 929.488159, 466.683899)">
    <path display="inline" d="M60.007,53.008H39.993c-1.101,0-1.993,0.896-1.993,2.001v37.998c0,1.104,0.892,2.001,1.993,2.001h20.015   c1.1,0,1.993-0.896,1.993-2.001V55.009C62,53.905,61.107,53.008,60.007,53.008z M58.014,57.01v29.997H41.985V57.01H58.014z    M50,93.007c-1.104,0-2-0.895-2-2c0-1.104,0.896-2,2-2c1.104,0,1.997,0.896,1.997,2C51.997,92.113,51.104,93.007,50,93.007z"/>
  </g>
  <g display="none" transform="matrix(1, 0, 0, 1, 929.488159, 466.683899)">
    <path display="inline" d="M94.54,91.736l-9.543-11.729v-46c0-1.104-0.896-2-2-2h-66c-1.104,0-2,0.896-2,2v46L5.453,91.736   c-0.493,0.598-0.596,1.426-0.266,2.125c0.331,0.701,1.035,1.146,1.809,1.146h86.001c0.773,0,1.479-0.445,1.809-1.146   S95.032,92.333,94.54,91.736z M18.997,36.007h62v43h-62V36.007z M52.165,92.007c-0.855,0-3.482,0-4.338,0   c-1.601,0-2.896-1.311-2.983-2.977H13.012l4.985-6.023h64l5,6.023h-32C54.911,90.699,53.766,92.007,52.165,92.007z"/>
  </g>
  <g display="none" transform="matrix(1, 0, 0, 1, 929.488159, 466.683899)">
    <g display="inline">
      <path d="M93.01,17.016H6.997c-1.105,0-2,0.896-2,2v61.958c0,1.105,0.895,2.033,2,2.033c0,0,28.439-0.006,28.984,0l-6.596,8.781    c-0.447,0.607-0.514,1.415-0.174,2.088s1.03,1.131,1.785,1.131h38c0.754,0,1.444-0.425,1.785-1.098    c0.34-0.673,0.272-1.48-0.175-2.088l-6.608-8.814c0.635-0.002,29.012,0,29.012,0c1.104,0,2-0.928,2-2.033V19.016    C95.01,17.911,94.114,17.016,93.01,17.016z M34.997,90.974l3.011-4h23.977l3.012,4H34.997z M90.997,79.007h-82v-8h82V79.007z     M91.01,66.974H8.997V21.016H91.01V66.974z"/>
      <circle cx="49.918" cy="74.974" r="2"/>
    </g>
  </g>
  <g display="none" transform="matrix(1, 0, 0, 1, 929.488159, 466.683899)">
    <g display="inline">
      <path d="M72.997,11.019h-46L5,49.989l21.997,39.009h46L95,49.989L72.997,11.019z M71.163,80.039    c-3.501-8.224-11.655-14.031-21.166-14.031c-9.51,0-17.664,5.807-21.165,14.03L13.59,53.007h15.406c1.657,0,3-1.343,3-3    c0-1.657-1.343-3-3-3H13.573L28.749,20.12l7.643,13.375c0.554,0.969,1.566,1.512,2.607,1.512c0.504,0,1.016-0.127,1.485-0.396    c1.438-0.822,1.938-2.654,1.116-4.093l-7.714-13.5h32.22l-7.715,13.5c-0.822,1.438-0.322,3.271,1.116,4.093    c0.47,0.269,0.98,0.396,1.485,0.396c1.042,0,2.054-0.543,2.607-1.512l7.644-13.376l15.182,26.888h-15.43c-1.657,0-3,1.343-3,3    c0,1.657,1.343,3,3,3H86.41L71.163,80.039z"/>
      <path d="M50,37.009c-7.168,0-13,5.832-13,13.001c0,7.167,5.832,12.999,13,12.999c7.168,0,13-5.832,13-12.999    C63,42.841,57.168,37.009,50,37.009z"/>
    </g>
  </g>
  <g display="none" transform="matrix(1, 0, 0, 1, 929.488159, 466.683899)">
    <rect x="5" y="5" display="inline" fill="none" stroke="#000000" stroke-width="0.02" stroke-miterlimit="10" width="90" height="90"/>
  </g>
  <g display="none" transform="matrix(1, 0, 0, 1, 929.488159, 466.683899)">
    <path display="inline" d="M50.006,20C19.509,20,4.978,50.028,5,50.028c0,0,0.004-0.009,0.013-0.026   c0,0,13.984,29.997,44.993,29.997C78.997,80,95,50.002,95,50.002S80.997,20,50.006,20z M40,36.007h20c1.104,0,2,0.896,2,2   s-0.896,2-2,2H40c-1.104,0-2-0.896-2-2S38.896,36.007,40,36.007z M40,45.007h20c1.104,0,2,0.896,2,2s-0.896,2-2,2H40   c-1.104,0-2-0.896-2-2S38.896,45.007,40,45.007z M39.997,54.007h10c1.104,0,2,0.896,2,2s-0.896,2-2,2h-10c-1.104,0-2-0.896-2-2   S38.892,54.007,39.997,54.007z M50.006,74.007c-11,0-20.891-4.573-29.399-13.104c-4.086-4.096-7.046-8.26-8.61-10.867   c2.787-4.546,9.53-13.969,20.187-19.569C28.945,34.43,27,39.489,27,45.002c0,12.704,10.306,23.005,22.994,23.005   C62.709,68.007,73,57.707,73,45.002c0-5.546-1.963-10.633-5.233-14.605c4.113,2.148,7.999,5.06,11.633,8.701   c4.018,4.027,7.016,8.292,8.597,10.909C83.467,56.848,69.945,74.007,50.006,74.007z"/>
  </g>
  <g transform="matrix(1.44096, 0, 0, 1.836706, 232.880432, -18.727356)">
    <path d="M17.997,23.007h20c1.104,0,2,0.896,2,2c0,1.105-0.896,2-2,2h-20c-1.104,0-2-0.895-2-2   C15.997,23.904,16.892,23.007,17.997,23.007z" style="fill: rgb(177, 232, 76);"/>
    <path d="M18.455,33.007h10c1.104,0,2,0.896,2,2c0,1.105-0.896,2-2,2h-10c-1.104,0-2-0.895-2-2   C16.455,33.904,17.35,33.007,18.455,33.007z" style="fill: rgb(177, 232, 76);"/>
    <path d="M50.997,29.028V17.007h41c1.657,0,3-1.343,3-3s-1.343-3-3-3c0,0-83.818,0-84,0c-1.657,0-3,1.343-3,3v32   c0,1.657,1.343,3,3,3h3.614C7.175,54.523,4.991,59.027,5,59.027c0,0,0.004-0.008,0.013-0.025c0,0,13.984,29.997,44.993,29.997   C78.997,88.999,95,59.001,95,59.001S81.288,29.665,50.997,29.028z M10.997,43.007v-26h34v17.988c0,4.697-4,8.011-9,8.012   C35.894,43.007,10.997,43.007,10.997,43.007z M50.006,83.006c-11,0-20.891-4.573-29.399-13.104   c-4.086-4.096-7.046-8.26-8.61-10.867c1.475-2.406,4.071-6.18,7.757-10.028H53c1.104,0,2,0.896,2,2c0,1.105-0.896,2-2,2H27.03   c-0.016,0.33-0.03,0.66-0.03,0.994c0,1.72,0.195,3.394,0.553,5.006h15.443c1.104,0,2,0.896,2,2c0,1.105-0.896,2-2,2H28.833   c3.506,8.229,11.666,13.999,21.162,13.999C62.709,77.006,73,66.706,73,54.001c0-5.546-1.963-10.633-5.233-14.605   c4.113,2.148,7.999,5.06,11.633,8.701c4.018,4.027,7.016,8.292,8.597,10.909C83.467,65.847,69.945,83.006,50.006,83.006z" style="fill: rgb(177, 232, 76);"/>
  </g>
  <g transform="matrix(1.663147, 0, 0, 1.708692, 443.040405, -12.576133)">
    <circle cx="66.745" cy="48.758" r="2.107" style="fill: rgb(232, 65, 65);"/>
    <circle cx="33.255" cy="48.758" r="2.107" style="fill: rgb(232, 65, 65);"/>
    <path d="M23.792,29.647c1.875,0,3.4-1.525,3.4-3.4s-1.525-3.4-3.4-3.4c-1.875,0-3.4,1.525-3.4,3.4S21.917,29.647,23.792,29.647z    M23.792,24.847c0.772,0,1.4,0.628,1.4,1.4s-0.628,1.4-1.4,1.4s-1.4-0.628-1.4-1.4S23.02,24.847,23.792,24.847z" style="fill: rgb(232, 65, 65);"/>
    <path d="M31.707,30.553c1.875,0,3.4-1.525,3.4-3.4s-1.525-3.4-3.4-3.4c-1.875,0-3.4,1.525-3.4,3.4S29.832,30.553,31.707,30.553z    M31.707,25.753c0.772,0,1.4,0.628,1.4,1.4s-0.628,1.4-1.4,1.4s-1.4-0.628-1.4-1.4S30.935,25.753,31.707,25.753z" style="fill: rgb(232, 65, 65);"/>
    <path d="M76.707,29.647c1.875,0,3.4-1.525,3.4-3.4s-1.525-3.4-3.4-3.4c-1.875,0-3.4,1.525-3.4,3.4S74.832,29.647,76.707,29.647z    M76.707,24.847c0.772,0,1.4,0.628,1.4,1.4s-0.628,1.4-1.4,1.4s-1.4-0.628-1.4-1.4S75.935,24.847,76.707,24.847z" style="fill: rgb(232, 65, 65);"/>
    <path d="M68.792,30.553c1.875,0,3.4-1.525,3.4-3.4s-1.525-3.4-3.4-3.4c-1.875,0-3.4,1.525-3.4,3.4S66.917,30.553,68.792,30.553z    M68.792,25.753c0.772,0,1.4,0.628,1.4,1.4s-0.628,1.4-1.4,1.4s-1.4-0.628-1.4-1.4S68.02,25.753,68.792,25.753z" style="fill: rgb(232, 65, 65);"/>
    <path d="M90.937,33.081c-0.024-0.577-0.114-1.292-0.253-2.08c0.001-0.031,0.008-0.056,0.009-0.087l-0.025,0   c-0.83-4.598-3.509-11.908-7.143-13.213l-0.116-0.034c-2.216-0.504-4.633-0.876-7.223-1.153C72.229,11.5,62.71,8.66,55.279,8.139   c-2.668-0.186-7.83-0.186-10.422,0c-7.456,0.539-16.697,3.027-20.874,8.358c-2.653,0.279-5.127,0.655-7.391,1.169l-0.116,0.034   c-3.633,1.305-6.313,8.615-7.143,13.213l-0.025,0c0.001,0.031,0.008,0.056,0.009,0.087c-0.139,0.788-0.23,1.503-0.253,2.08   c-0.477,11.665,1.332,19.284,5.692,23.979c1.074,1.156,2.287,2.113,3.622,2.914c0.093,1.448,0.289,4.181,0.534,5.599   c1.279,7.423,4.443,11.516,8.449,16.697c0.622,0.805,1.271,1.643,1.942,2.532c3.337,4.418,5.831,5.695,9.541,6.618   c1.61,0.4,4.693,0.596,9.399,0.596c0.562,0,1.148-0.003,1.757-0.008c0.609,0.005,1.195,0.008,1.757,0.008   c4.706,0,7.79-0.196,9.399-0.596c3.71-0.922,6.205-2.199,9.542-6.617c0.671-0.889,1.319-1.727,1.942-2.532   c4.006-5.181,7.169-9.273,8.449-16.697c0.245-1.418,0.441-4.15,0.534-5.599c1.335-0.801,2.549-1.758,3.623-2.914   C89.605,52.365,91.414,44.746,90.937,33.081z M45,10.134c2.473-0.179,7.589-0.179,10.139,0c6.19,0.434,13.871,2.506,18.029,6.106   C66.396,15.72,58.578,15.717,50,15.717c-8.517,0-16.287,0.003-23.027,0.511C30.644,12.968,37.229,10.696,45,10.134z M17.099,19.602   c8.347-1.885,19.728-1.885,32.901-1.885s24.554,0,32.901,1.885c2.528,0.981,4.968,7.246,5.767,11.46   c-0.066,0.727-0.401,1.161-1.023,1.259c-7.991,1.264-23.487,2.125-37.641,2.065h-0.007c-14.171,0.052-29.65-0.801-37.641-2.065   c-0.622-0.098-0.957-0.531-1.023-1.259C12.131,26.848,14.571,20.583,17.099,19.602z M79.118,65.234   c-1.195,6.933-4.075,10.658-8.06,15.813c-0.627,0.811-1.28,1.655-1.956,2.55c-2.994,3.964-5.104,5.055-8.428,5.881   c-1.109,0.276-3.86,0.592-10.665,0.529h-0.019c-6.81,0.056-9.555-0.253-10.665-0.528c-3.324-0.827-5.434-1.918-8.428-5.882   c-0.676-0.895-1.329-1.739-1.956-2.55c-3.985-5.155-6.865-8.88-8.061-15.813c-0.172-0.998-0.323-2.773-0.426-4.19   c5.356,2.393,12.333,2.867,20.454,3.135c0.046,0.001,0.093,0.002,0.139,0.002c1.714,0,3.321-1.04,4.877-2.047   c1.381-0.894,2.809-1.817,4.075-1.817s2.693,0.924,4.075,1.817c1.556,1.007,3.163,2.047,4.877,2.047   c0.046,0,0.092-0.001,0.139-0.002c8.121-0.268,15.098-0.742,20.454-3.135C79.441,62.461,79.29,64.235,79.118,65.234z M59.024,62.18   c-1.129,0.041-2.462-0.818-3.863-1.725c-1.625-1.051-3.305-2.138-5.161-2.138s-3.536,1.087-5.161,2.138   c-1.4,0.907-2.734,1.765-3.863,1.725c-10.952-0.361-19.729-1.068-24.756-6.481c-3.876-4.173-5.525-11.1-5.183-21.734   c0.326,0.168,0.669,0.278,1.006,0.332c7.985,1.263,22.627,2.091,36.753,2.091c0.402,0,0.802,0,1.203-0.002   c0.401,0.001,0.801,0.002,1.203,0.002c14.125,0,28.769-0.829,36.753-2.091c0.337-0.053,0.681-0.164,1.006-0.332   c0.342,10.635-1.307,17.562-5.183,21.735C78.753,61.112,69.976,61.819,59.024,62.18z" style="fill: rgb(232, 65, 65);"/>
    <path d="M50,76.183c-2.105,0-4.282,0-6.354-1.717l-1.276,1.54c2.627,2.177,5.401,2.177,7.63,2.177c2.313,0,4.934,0,7.562-2.177   l-1.276-1.54C54.213,76.183,52.167,76.183,50,76.183z" style="fill: rgb(232, 65, 65);"/>
  </g>
</svg>