<?xml version="1.0" encoding="utf-8"?>
<svg x="0px" y="0px" viewBox="0 0 86.851 88.723" xmlns="http://www.w3.org/2000/svg">
  <g transform="matrix(1, 0, 0, 1, -6.49506, -5.544563)">
    <g>
      <path d="M43.744,76.145l-0.183,1.991c1.905,0.175,3.885,0.263,5.884,0.263c2.351,0,4.663-0.122,6.872-0.362l-0.216-1.988    C52.145,76.479,47.757,76.512,43.744,76.145z" style="fill: rgb(255, 179, 0);"/>
      <path d="M88.369,25.914c-1.6-3.952-4.531-6.386-8.477-7.039c-1.08-0.179-2.314-0.331-3.641-0.464    c-3.36-4.443-11.064-7.202-17.955-8.202c-0.036-2.176-1.81-3.935-3.993-3.935h-8.605c-2.18,0-3.951,1.754-3.992,3.924    c-6.848,0.944-14.359,3.469-17.925,8.197c-1.336,0.137-2.583,0.294-3.676,0.481c-3.952,0.675-6.881,3.109-8.472,7.039    C7.294,36.632,6.569,52.52,7.713,59.869c0.709,4.555,3.962,7.274,8.702,7.274c1.162,0,2.319-0.064,3.485-0.151    c0.288,6.623,3.901,11.246,8.069,16.559c0.751,0.958,1.522,1.939,2.293,2.961c3.337,4.418,5.832,5.695,9.542,6.617    c1.609,0.4,4.693,0.597,9.4,0.597c0.257,0,0.536-0.003,0.802-0.004c0.266,0.001,0.546,0.004,0.803,0.004    c4.709,0,7.794-0.196,9.404-0.596c3.712-0.922,6.207-2.199,9.544-6.617c0.772-1.022,1.543-2.004,2.295-2.963    c4.167-5.311,7.78-9.932,8.07-16.552c1.132,0.084,2.273,0.146,3.464,0.146c4.74,0,7.993-2.719,8.702-7.274    C93.431,52.52,92.706,36.632,88.369,25.914z M58.303,12.221c5.57,0.834,11.61,2.833,15.033,5.941    c-4.693-0.339-10.158-0.482-15.033-0.542V12.221z M45.697,8.274h8.605c1.103,0,2,0.897,2,2V17.6    c-2.722-0.023-5.185-0.024-7.105-0.024c-1.522,0-3.411,0.001-5.5,0.014v-7.316C43.697,9.172,44.594,8.274,45.697,8.274z     M41.697,12.209v5.398c-4.747,0.05-10.244,0.183-14.998,0.532C29.82,15.248,35.211,13.115,41.697,12.209z M70.478,82.315    c-0.76,0.968-1.538,1.96-2.317,2.992c-2.994,3.963-5.104,5.055-8.431,5.881c-1,0.249-3.343,0.525-8.778,0.535l0-0.006    c-0.324,0.003-0.631,0.004-0.937,0.005c-0.312-0.001-0.625-0.002-0.955-0.005l0,0.006c-5.428-0.009-7.773-0.286-8.773-0.535    c-3.324-0.826-5.434-1.917-8.428-5.881c-0.779-1.032-1.557-2.023-2.316-2.991c-3.968-5.058-7.404-9.455-7.647-15.495    c1.647-0.171,3.341-0.391,5.158-0.631c5.456-0.721,12.246-1.619,22.145-1.619c11.981,0,18.803,0.926,24.284,1.671    c1.622,0.22,3.14,0.421,4.644,0.581C77.882,72.861,74.446,77.258,70.478,82.315z M90.31,59.561    c-0.784,5.038-4.964,5.582-6.725,5.582c-3.339,0-6.205-0.389-9.834-0.882c-5.541-0.752-12.437-1.689-24.553-1.689    c-10.031,0-16.894,0.907-22.407,1.636c-3.797,0.502-7.077,0.936-10.375,0.936c-1.761,0-5.941-0.544-6.725-5.582    c-1.109-7.12-0.407-22.513,3.795-32.896c1.317-3.254,3.722-5.265,6.956-5.817c7.441-1.271,21.838-1.271,28.757-1.271    c7.363,0,22.684,0,30.367,1.272c3.222,0.533,5.625,2.544,6.95,5.816C90.717,37.048,91.419,52.441,90.31,59.561z" style="fill: rgb(255, 179, 0);"/>
    </g>
  </g>
</svg>