<?xml version="1.0" encoding="utf-8"?>
<svg viewBox="0 -9 207 62" xmlns="http://www.w3.org/2000/svg">
  <title>cardboard</title>
  <path d="M 75.001 0.624 L 6.641 0.624 C 3.429 0.63 0.827 3.232 0.821 6.444 L 0.821 36.804 C 0.827 40.016 3.429 42.619 6.641 42.624 L 33.311 42.624 C 34.022 42.631 34.679 42.247 35.021 41.624 L 39.021 33.504 C 39.659 32.188 41.482 32.055 42.303 33.266 C 42.355 33.342 42.401 33.421 42.441 33.504 L 46.251 41.504 C 46.565 42.197 47.261 42.637 48.021 42.624 L 75.021 42.624 C 78.225 42.608 80.816 40.008 80.821 36.804 L 80.821 6.444 C 80.816 3.232 78.213 0.63 75.001 0.624 Z M 22.821 28.454 C 17.563 28.477 14.252 22.8 16.861 18.235 C 19.47 13.67 26.042 13.642 28.691 18.183 C 29.3 19.228 29.621 20.415 29.621 21.624 C 29.621 25.385 26.581 28.438 22.821 28.454 Z M 58.821 28.454 C 53.563 28.477 50.252 22.8 52.861 18.235 C 55.47 13.67 62.042 13.642 64.691 18.183 C 65.3 19.228 65.621 20.415 65.621 21.624 C 65.621 25.385 62.581 28.438 58.821 28.454 Z" style="fill: rgb(255, 179, 0);"/>
  <g transform="matrix(0.579798, 0, 0, 0.605011, 98.44062, -584.569763)">
    <path style="text-indent: 0px; text-transform: none; direction: ltr; baseline-shift: baseline; color: rgb(0, 0, 0); fill: rgb(255, 179, 0);" d="m 50,973.36218 c -3.3138,0 -6,2.6862 -6,6 l 0,16.99999 -17,0 c -3.3136,0 -6,2.6862 -6,6.00003 0,3.3136 2.6864,6 6,6 l 17,0 0,17 c 0,3.3136 2.6862,6 6,6 3.3136,0 6,-2.6864 6,-6 l 0,-17 17,0 c 3.3138,0 6,-2.6864 6,-6 0,-3.31383 -2.6862,-6.00003 -6,-6.00003 l -17,0 0,-16.99999 c 0,-3.3138 -2.6864,-6 -6,-6 z" fill-opacity="1" stroke="none" marker="none" visibility="visible" display="inline" overflow="visible"/>
  </g>
  <g transform="matrix(1, 0, 0, 1, 157.909302, -7.961505)">
    <path d="M42.595,0H17.405C14.976,0,13,1.977,13,4.405v51.189C13,58.023,14.976,60,17.405,60h25.189C45.024,60,47,58.023,47,55.595   V4.405C47,1.977,45.024,0,42.595,0z M15,8h30v38H15V8z M17.405,2h25.189C43.921,2,45,3.079,45,4.405V6H15V4.405   C15,3.079,16.079,2,17.405,2z M42.595,58H17.405C16.079,58,15,56.921,15,55.595V48h30v7.595C45,56.921,43.921,58,42.595,58z" style="fill: rgb(255, 179, 0);"/>
    <path d="M30,49c-2.206,0-4,1.794-4,4s1.794,4,4,4s4-1.794,4-4S32.206,49,30,49z M30,55c-1.103,0-2-0.897-2-2s0.897-2,2-2   s2,0.897,2,2S31.103,55,30,55z" style="fill: rgb(255, 179, 0);"/>
    <path d="M26,5h4c0.552,0,1-0.447,1-1s-0.448-1-1-1h-4c-0.552,0-1,0.447-1,1S25.448,5,26,5z" style="fill: rgb(255, 179, 0);"/>
    <path d="M33,5h1c0.552,0,1-0.447,1-1s-0.448-1-1-1h-1c-0.552,0-1,0.447-1,1S32.448,5,33,5z" style="fill: rgb(255, 179, 0);"/>
    <path d="M31.962,11.02h-3.924c-1.124,0-2.038,0.914-2.038,2.038v3.924c0,1.124,0.914,2.038,2.038,2.038h3.924   c1.124,0,2.038-0.914,2.038-2.038v-3.924C34,11.934,33.086,11.02,31.962,11.02z M32,16.981c0,0.021-0.017,0.038-0.038,0.038   L28,16.981l0.038-3.962L32,13.058V16.981z" style="fill: rgb(255, 179, 0);"/>
    <path d="M22.962,11.02h-3.924c-1.124,0-2.038,0.914-2.038,2.038v3.924c0,1.124,0.914,2.038,2.038,2.038h3.924   c1.124,0,2.038-0.914,2.038-2.038v-3.924C25,11.934,24.086,11.02,22.962,11.02z M23,16.981c0,0.021-0.017,0.038-0.038,0.038   L19,16.981l0.038-3.962L23,13.058V16.981z" style="fill: rgb(255, 179, 0);"/>
    <path d="M40.962,11.02h-3.924c-1.124,0-2.038,0.914-2.038,2.038v3.924c0,1.124,0.914,2.038,2.038,2.038h3.924   c1.124,0,2.038-0.914,2.038-2.038v-3.924C43,11.934,42.086,11.02,40.962,11.02z M41,16.981c0,0.021-0.017,0.038-0.038,0.038   L37,16.981l0.038-3.962L41,13.058V16.981z" style="fill: rgb(255, 179, 0);"/>
    <path d="M31.962,20h-3.924C26.914,20,26,20.914,26,22.038v3.924C26,27.086,26.914,28,28.038,28h3.924   C33.086,28,34,27.086,34,25.962v-3.924C34,20.914,33.086,20,31.962,20z M32,25.962C32,25.982,31.983,26,31.962,26L28,25.962   L28.038,22L32,22.038V25.962z" style="fill: rgb(255, 179, 0);"/>
    <path d="M22.962,20h-3.924C17.914,20,17,20.914,17,22.038v3.924C17,27.086,17.914,28,19.038,28h3.924   C24.086,28,25,27.086,25,25.962v-3.924C25,20.914,24.086,20,22.962,20z M23,25.962C23,25.982,22.983,26,22.962,26L19,25.962   L19.038,22L23,22.038V25.962z" style="fill: rgb(255, 179, 0);"/>
    <path d="M40.962,20h-3.924C35.914,20,35,20.914,35,22.038v3.924C35,27.086,35.914,28,37.038,28h3.924   C42.086,28,43,27.086,43,25.962v-3.924C43,20.914,42.086,20,40.962,20z M41,25.962C41,25.982,40.983,26,40.962,26L37,25.962   L37.038,22L41,22.038V25.962z" style="fill: rgb(255, 179, 0);"/>
    <path d="M31.962,29h-3.924C26.914,29,26,29.914,26,31.038v3.924C26,36.086,26.914,37,28.038,37h3.924   C33.086,37,34,36.086,34,34.962v-3.924C34,29.914,33.086,29,31.962,29z M32,34.962C32,34.982,31.983,35,31.962,35L28,34.962   L28.038,31L32,31.038V34.962z" style="fill: rgb(255, 179, 0);"/>
    <path d="M22.962,29h-3.924C17.914,29,17,29.914,17,31.038v3.924C17,36.086,17.914,37,19.038,37h3.924   C24.086,37,25,36.086,25,34.962v-3.924C25,29.914,24.086,29,22.962,29z M23,34.962C23,34.982,22.983,35,22.962,35L19,34.962   L19.038,31L23,31.038V34.962z" style="fill: rgb(255, 179, 0);"/>
    <path d="M40.962,29h-3.924C35.914,29,35,29.914,35,31.038v3.924C35,36.086,35.914,37,37.038,37h3.924   C42.086,37,43,36.086,43,34.962v-3.924C43,29.914,42.086,29,40.962,29z M41,34.962C41,34.982,40.983,35,40.962,35L37,34.962   L37.038,31L41,31.038V34.962z" style="fill: rgb(255, 179, 0);"/>
  </g>
</svg>