<?xml version="1.0" encoding="utf-8"?>
<svg x="0px" y="0px" viewBox="0 0 67.842 90.941" xmlns="http://www.w3.org/2000/svg">
  <path d="M 20.731 0.248 L 20.731 0.248 L 20.731 0.248 C 9.604 0.249 0.582 9.271 0.582 20.398 C 0.582 26.329 3.16 31.644 7.241 35.333 L 7.221 35.351 C 12.474 39.968 13.577 41.846 13.577 45.272 C 13.577 48.699 12.572 50.354 7.46 54.962 C 3.252 58.656 0.58 64.06 0.58 70.098 C 0.58 81.224 9.603 90.248 20.73 90.248 C 20.732 90.248 20.734 90.248 20.734 90.248 C 31.584 90.248 37.503 83.814 41.386 73.003 C 45.579 61.331 50.471 54.434 60.775 54.434 L 63.462 54.434 C 65.469 54.434 67.096 52.812 67.103 50.805 L 67.103 45.248 L 67.103 39.691 C 67.096 37.684 65.469 36.062 63.462 36.062 L 60.775 36.062 C 50.471 36.062 45.705 29.12 41.386 17.494 L 41.386 17.494 C 37.503 6.682 31.584 0.248 20.737 0.248 C 20.735 0.248 20.733 0.248 20.733 0.248 C 20.731 0.248 20.731 0.248 20.731 0.248 Z M 30.392 63.572 C 31.653 65.432 32.389 67.678 32.389 70.098 L 32.389 70.099 L 32.389 70.1 C 32.389 70.136 32.384 70.17 32.384 70.205 C 32.381 70.547 32.366 70.888 32.334 71.224 C 32.323 71.314 32.308 71.406 32.299 71.501 C 32.263 71.787 32.212 72.068 32.158 72.347 C 32.143 72.423 32.136 72.502 32.12 72.578 C 30.983 77.825 26.319 81.757 20.732 81.757 C 14.295 81.757 9.076 76.537 9.076 70.1 L 9.076 70.1 L 9.076 70.098 C 9.076 63.66 14.295 58.44 20.732 58.44 C 24.751 58.44 28.297 60.477 30.392 63.572 Z M 32.158 18.15 C 32.212 18.429 32.263 18.71 32.299 18.996 C 32.308 19.09 32.323 19.183 32.334 19.273 C 32.366 19.609 32.38 19.95 32.384 20.292 C 32.384 20.327 32.389 20.361 32.389 20.397 L 32.389 20.398 L 32.389 20.399 C 32.389 22.819 31.653 25.065 30.392 26.925 C 28.297 30.019 24.751 32.057 20.732 32.057 C 14.295 32.057 9.076 26.837 9.076 20.399 L 9.076 20.399 L 9.076 20.398 C 9.076 13.961 14.295 8.741 20.732 8.741 C 26.319 8.741 30.983 12.672 32.12 17.92 C 32.136 17.995 32.143 18.074 32.158 18.15 Z" style="fill: rgb(181, 101, 29);"/>
</svg>