<?xml version="1.0" encoding="utf-8"?>
<svg viewBox="0 -23 376 112" xmlns="http://www.w3.org/2000/svg">
  <g transform="matrix(1, 0, 0, 1, 74.044205, -969.668152)">
    <path style="text-indent: 0px; text-transform: none; direction: ltr; baseline-shift: baseline; color: rgb(0, 0, 0); fill: rgb(177, 232, 76);" d="m 50,973.36218 c -3.3138,0 -6,2.6862 -6,6 l 0,16.99999 -17,0 c -3.3136,0 -6,2.6862 -6,6.00003 0,3.3136 2.6864,6 6,6 l 17,0 0,17 c 0,3.3136 2.6862,6 6,6 3.3136,0 6,-2.6864 6,-6 l 0,-17 17,0 c 3.3138,0 6,-2.6864 6,-6 0,-3.31383 -2.6862,-6.00003 -6,-6.00003 l -17,0 0,-16.99999 c 0,-3.3138 -2.6864,-6 -6,-6 z" fill-opacity="1" stroke="none" marker="none" visibility="visible" display="inline" overflow="visible"/>
  </g>
  <g transform="matrix(1.142251, 0, 0, 1.19714, -270.585144, -251.065262)">
    <path d="M 285.53 207.277 L 239.97 207.277 C 239.02 207.277 238.25 206.506 238.25 205.555 L 238.25 203.691 C 238.25 197.261 243.502 192.031 249.957 192.031 L 275.543 192.031 C 281.998 192.031 287.25 197.261 287.25 203.691 L 287.25 205.555 C 287.25 206.506 286.48 207.277 285.53 207.277 Z M 241.689 203.834 L 283.81 203.834 L 283.81 203.691 C 283.81 199.16 280.101 195.473 275.542 195.473 L 249.957 195.473 C 245.398 195.473 241.689 199.16 241.689 203.691 L 241.689 203.834 Z" style="fill: rgb(177, 232, 76);"/>
    <path d="M 275.543 282.031 L 249.957 282.031 C 243.502 282.031 238.25 276.801 238.25 270.371 L 238.25 262.993 C 238.25 262.043 239.02 261.271 239.97 261.271 L 285.53 261.271 C 286.48 261.271 287.25 262.042 287.25 262.993 L 287.25 270.371 C 287.25 276.801 281.998 282.031 275.543 282.031 Z M 241.689 264.715 L 241.689 270.371 C 241.689 274.902 245.398 278.589 249.957 278.589 L 275.543 278.589 C 280.102 278.589 283.811 274.902 283.811 270.371 L 283.811 264.715 L 241.689 264.715 Z" style="fill: rgb(177, 232, 76);"/>
    <circle cx="50" cy="84.232" r="3.287" transform="matrix(0.999997, 0, 0, 0.999995, 212.750168, 187.031631)" style="fill: rgb(177, 232, 76);"/>
    <path d="M 270.92 199.654 C 270.92 200.265 270.425 200.76 269.815 200.76 L 255.686 200.76 C 255.076 200.76 254.581 200.265 254.581 199.654 L 254.581 199.654 C 254.581 199.043 255.076 198.548 255.686 198.548 L 269.815 198.548 C 270.425 198.548 270.92 199.043 270.92 199.654 L 270.92 199.654 Z" style="fill: rgb(177, 232, 76);"/>
    <path d="M 285.53 264.715 L 239.97 264.715 C 239.02 264.715 238.25 263.944 238.25 262.993 L 238.25 205.555 C 238.25 204.605 239.02 203.833 239.97 203.833 L 285.53 203.833 C 286.48 203.833 287.25 204.604 287.25 205.555 L 287.25 262.993 C 287.25 263.943 286.48 264.715 285.53 264.715 Z M 241.689 261.271 L 283.81 261.271 L 283.81 207.277 L 241.689 207.277 L 241.689 261.271 Z" style="fill: rgb(177, 232, 76);"/>
  </g>
  <style type="text/css">
	.st0{fill:#FFFFFF;}
</style>
  <g transform="matrix(0.717426, 0, 0, 0.820839, 191.716141, 3.973855)">
    <g>
      <path class="st0" d="M139.1,29c-1.1,0-2.1,0.2-3,0.7c-0.9,0.5-1.6,1-2.2,1.6v10.3c0.5,0.4,1.2,0.8,2.1,1.3c1.2,0.7,2.4,1,3.6,1&#10;&#9;&#9;&#9;c1.7,0,3-0.6,3.9-1.9c0.9-1.2,1.4-2.9,1.4-5.1c0-2.4-0.5-4.3-1.6-5.8C142.2,29.7,140.8,29,139.1,29z" style="fill: rgb(177, 232, 76);"/>
      <path class="st0" d="M23.5,28.7c-1.1,0-2.1,0.3-3.2,0.9c-0.3,0.2-0.6,0.4-0.8,0.5c-0.2,0.1-0.4,0.2-0.5,0.3v12.3&#10;&#9;&#9;&#9;c0.2,0.2,0.5,0.4,0.9,0.7c0.3,0.3,0.8,0.6,1.2,0.9H21c1.2,0.8,2.5,1.2,3.9,1.2c1.5,0,2.7-0.7,3.6-2.2c0.9-1.5,1.4-3.3,1.4-5.6&#10;&#9;&#9;&#9;c0-2.9-0.5-5.1-1.6-6.7C27.1,29.5,25.6,28.7,23.5,28.7z" style="fill: rgb(177, 232, 76);"/>
      <path class="st0" d="M98.7,29c-1.1,0-2.1,0.2-3,0.7c-0.9,0.5-1.6,1-2.2,1.6v10.3c0.5,0.4,1.2,0.8,2.1,1.3c1.2,0.7,2.4,1,3.6,1&#10;&#9;&#9;&#9;c1.7,0,2.9-0.6,3.9-1.9c0.9-1.2,1.4-2.9,1.4-5.1c0-2.4-0.5-4.3-1.6-5.8C101.8,29.7,100.4,29,98.7,29z" style="fill: rgb(177, 232, 76);"/>
      <polygon class="st0" points="173.8,41.8 181.8,41.8 177.9,33.9 &#9;&#9;" style="fill: rgb(177, 232, 76);"/>
      <path class="st0" d="M245.8,50l-5.9-10.3c1.8-2,3.5-5.3,3.5-10.3c0-4.7-2-8.8-5.8-11.7c-3.2-2.4-7.3-3.7-12.2-3.7h-21.6&#10;&#9;&#9;&#9;c-1.9,0-3.6,0.8-4.8,2.1c-1.3,1.3-2,3-2,4.8v13.3l-8.4-16.4c0-0.1-0.1-0.1-0.1-0.2c-0.5-0.9-1.3-1.7-2.2-2.4c0,0-0.1-0.1-0.1-0.1&#10;&#9;&#9;&#9;c-1.1-0.7-2.4-1.1-3.6-1.1h-7.6c-1.2,0-2.3,0.3-3.4,1c-1.4,0.8-2.2,1.9-2.6,2.7l-6.6,12.1c-0.9-3.7-2.6-7-5.1-9.8&#10;&#9;&#9;&#9;c-0.1-0.2-0.3-0.3-0.4-0.4c-3.9-4.2-9.1-6.4-15.1-6.4c-2.5,0-5,0.4-7.3,1.2c-0.7,0.2-1.4,0.5-2,0.8c0,0,0,0-0.1,0&#10;&#9;&#9;&#9;c-1.2-0.8-2.6-1.3-4-1.3h-6.1c-2,0-3.8,0.8-5.2,2.2c-0.7,0.7-1.2,1.6-1.6,2.5c-3.8-3.6-8.6-5.5-14.1-5.5c-2.5,0-5,0.4-7.3,1.2&#10;&#9;&#9;&#9;c-0.7,0.2-1.4,0.5-2,0.8c0,0,0,0,0,0c-1.2-0.9-2.6-1.3-4-1.3h-6.1c-0.4,0-0.8,0-1.2,0.1c0.2-0.8,0.3-1.7,0.3-2.7&#10;&#9;&#9;&#9;c0-4-1.6-6.5-2.9-8C76.6,1.8,74,0,69.9,0c-4.1,0-6.6,1.8-8,3.2c-0.1,0.1-0.1,0.2-0.2,0.2c-1.2-1.1-2.8-1.7-4.4-1.7H48&#10;&#9;&#9;&#9;c-2.2,0-4.2,1-5.5,2.8c-1,1.3-1.5,2.9-1.5,4.5v8.8c-1.4-1.4-3-2.5-4.8-3.3c-2.6-1.2-5.5-1.8-8.7-1.8c-1.1,0-2.1,0.1-3.2,0.2V9.1&#10;&#9;&#9;&#9;c0-1.9-0.7-3.7-2.1-5.1c-1.4-1.4-3.2-2.2-5.2-2.2h-10C5.3,1.8,3.4,2.6,2,4c-1.3,1.4-2,3.2-2,5V53c0,1.9,0.7,3.7,2,5&#10;&#9;&#9;&#9;c1.4,1.5,3.2,2.3,5.2,2.3h5.3c1.4,0,2.8-0.4,4-1.3c0,0,0.1,0,0.1-0.1c0.2-0.1,0.4-0.3,0.5-0.4C20,60.2,23.4,61,27.3,61&#10;&#9;&#9;&#9;c5.6,0,10.4-2,14.1-5.7c0.2,0.8,0.6,1.6,1.1,2.2c1.3,1.8,3.3,2.8,5.5,2.8h9.3c1.4,0,2.8-0.5,3.9-1.3c1.1,0.8,2.5,1.3,4,1.3h9.3&#10;&#9;&#9;&#9;c0,0,0,0,0,0c0.1,1.7,0.8,3.3,2,4.6c1.4,1.4,3.2,2.2,5.2,2.2h10c2,0,3.8-0.8,5.2-2.3c1.3-1.4,2-3.2,2-5.1v-0.9&#10;&#9;&#9;&#9;c0.9,0.1,1.9,0.2,2.8,0.2c5,0,9.4-1.6,13.1-4.7v5.5c0,1.9,0.7,3.7,2.1,5.2c1.4,1.4,3.2,2.2,5.2,2.2h10c2,0,3.8-0.8,5.2-2.3&#10;&#9;&#9;&#9;c1.3-1.4,2-3.2,2-5.1v-0.9c0.9,0.1,1.9,0.2,2.8,0.2c3.3,0,6.3-0.7,9-2c0,0,0,0.1,0.1,0.1c1.3,2.1,3.4,3.3,5.9,3.3h8.9&#10;&#9;&#9;&#9;c1.3,0,2.6-0.4,3.7-1.1c1.1-0.7,1.9-1.6,2.5-2.7l0.7-1.4h9.3l0.6,1.2c0.5,1.2,1.4,2.2,2.6,2.9c1.1,0.7,2.3,1,3.5,1h10.1&#10;&#9;&#9;&#9;c0.8,0,1.6-0.1,2.3-0.4c0.7,0.3,1.5,0.4,2.3,0.4h9.6c1.9,0,3.6-0.8,5-2.2c1.2-1.3,1.9-3,1.9-4.7v-2.2l2.7,5.3&#10;&#9;&#9;&#9;c0.5,1,1.3,1.8,2.2,2.5c1.1,0.8,2.5,1.2,3.9,1.2h10.9c2.5,0,4.7-1.3,6-3.4C247.1,54.8,247,52.3,245.8,50z M38.6,50.4&#10;&#9;&#9;&#9;c-2.8,3.5-6.6,5.3-11.3,5.3c-3.4,0-6.3-0.8-8.5-2.4c-0.6-0.4-1.1-0.8-1.6-1.2c-0.5-0.4-1-0.8-1.5-1.2l-1.6,3.1&#10;&#9;&#9;&#9;c-0.2,0.2-0.4,0.5-0.7,0.7c-0.3,0.2-0.6,0.3-0.8,0.3H7.2c-0.5,0-0.9-0.2-1.2-0.5c-0.3-0.4-0.5-0.8-0.5-1.3V9.2&#10;&#9;&#9;&#9;c0-0.5,0.2-0.9,0.5-1.3c0.3-0.4,0.8-0.5,1.2-0.5h10c0.5,0,0.9,0.2,1.2,0.5C18.8,8.3,19,8.7,19,9.2v11.6l0.9-0.5&#10;&#9;&#9;&#9;c0.3-0.1,0.6-0.3,1-0.5v0.1c2.2-1,4.5-1.6,6.8-1.6c2.4,0,4.5,0.4,6.3,1.3c1.8,0.9,3.4,2.2,4.7,4c2.6,3.4,3.9,7.8,3.9,13.4&#10;&#9;&#9;&#9;C42.6,42.5,41.3,47,38.6,50.4z M58.7,53.1c0,0.5-0.1,0.9-0.4,1.3c-0.3,0.4-0.6,0.5-1,0.5H48c-0.4,0-0.8-0.2-1-0.5&#10;&#9;&#9;&#9;c-0.3-0.4-0.4-0.8-0.4-1.3V9.2c0-0.5,0.1-0.9,0.4-1.3c0.3-0.4,0.6-0.6,1-0.6h9.3c0.4,0,0.7,0.2,1,0.6c0.3,0.4,0.4,0.8,0.4,1.3&#10;&#9;&#9;&#9;V53.1z M65.9,7.2c1-1,2.3-1.5,4-1.5c1.7,0,3.1,0.5,4,1.5c1,1,1.4,2.4,1.4,4.2c0,1.8-0.5,3.2-1.4,4.2c-1,1-2.3,1.5-4,1.5&#10;&#9;&#9;&#9;c-1.7,0-3-0.5-4-1.5c-1-1-1.5-2.4-1.5-4.2C64.4,9.6,64.9,8.2,65.9,7.2z M76,53.1c0,0.5-0.1,0.9-0.4,1.3c-0.3,0.4-0.6,0.5-1,0.5&#10;&#9;&#9;&#9;h-9.3c-0.4,0-0.8-0.2-1-0.5c-0.3-0.4-0.4-0.8-0.4-1.3V21c0-0.5,0.1-0.9,0.4-1.3c0.3-0.4,0.6-0.5,1-0.5h8.2c0.2,0,0.4,0.1,0.7,0.2&#10;&#9;&#9;&#9;c0.3,0.1,0.6,0.2,0.8,0.4c0.3,0.2,0.5,0.4,0.7,0.6c0.2,0.2,0.3,0.5,0.3,0.7V53.1z M112.9,48.7c-2.9,3.2-6.6,4.8-11,4.8&#10;&#9;&#9;&#9;c-1.5,0-3-0.2-4.4-0.5c-1.4-0.3-2.7-0.8-4-1.6v8.4c0,0.5-0.2,1-0.5,1.3c-0.3,0.4-0.7,0.5-1.2,0.5h-10c-0.5,0-0.9-0.2-1.2-0.5&#10;&#9;&#9;&#9;c-0.3-0.4-0.5-0.8-0.5-1.3V21.3c0-0.5,0.2-1,0.5-1.3c0.3-0.4,0.8-0.6,1.2-0.6h6.1c0.3,0,0.6,0.1,0.8,0.3c0.3,0.2,0.5,0.4,0.7,0.6&#10;&#9;&#9;&#9;l1.3,2.3c1.6-1.4,3.3-2.4,5-3c1.7-0.6,3.6-0.9,5.5-0.9c4.7,0,8.5,1.7,11.4,5.1v-0.1c3,3.2,4.5,7.4,4.5,12.7&#10;&#9;&#9;&#9;C117.2,41.4,115.8,45.5,112.9,48.7z M142.3,53.6c-1.5,0-3-0.2-4.4-0.5c-1.4-0.3-2.7-0.8-4-1.6v8.4c0,0.5-0.2,1-0.5,1.3&#10;&#9;&#9;&#9;c-0.3,0.4-0.7,0.5-1.2,0.5h-10c-0.5,0-0.9-0.2-1.2-0.5c-0.3-0.4-0.5-0.8-0.5-1.3V21.3c0-0.5,0.2-1,0.5-1.3&#10;&#9;&#9;&#9;c0.3-0.4,0.8-0.6,1.2-0.6h6.1c0.3,0,0.5,0.1,0.8,0.3c0.3,0.2,0.5,0.4,0.7,0.6l1.3,2.3c1.6-1.4,3.3-2.4,5-3&#10;&#9;&#9;&#9;c1.7-0.6,3.6-0.9,5.5-0.9c4.7,0,8.5,1.7,11.4,5.1v-0.1c3,3.2,4.5,7.4,4.5,12.7c0,5-1.4,9.1-4.3,12.4&#10;&#9;&#9;&#9;C150.4,52,146.7,53.6,142.3,53.6z M200.4,54.3c-0.2,0.4-0.6,0.6-1.2,0.6h-10.1c-0.2,0-0.4-0.1-0.7-0.2c-0.3-0.2-0.4-0.3-0.5-0.5&#10;&#9;&#9;&#9;l-2.2-4.4h-16.2l-2.2,4.4c-0.1,0.2-0.3,0.4-0.5,0.5c-0.2,0.2-0.5,0.2-0.7,0.2h-8.9c-0.6,0-1-0.2-1.2-0.6c-0.3-0.4-0.2-0.9,0-1.4&#10;&#9;&#9;&#9;l17.7-32.6c0.1-0.2,0.3-0.3,0.5-0.5c0.3-0.2,0.5-0.2,0.6-0.2h7.6c0.2,0,0.4,0.1,0.6,0.2c0.2,0.2,0.4,0.3,0.5,0.5l16.7,32.6&#10;&#9;&#9;&#9;C200.6,53.4,200.6,53.9,200.4,54.3z M241.1,54.2c-0.2,0.4-0.6,0.7-1.2,0.7h-10.9c-0.2,0-0.5-0.1-0.7-0.2c-0.2-0.2-0.4-0.3-0.5-0.5&#10;&#9;&#9;&#9;l-5.5-10.7l0,0.1l-0.4-0.4c-0.1-0.2-0.3-0.3-0.4-0.4c-0.2-0.2-1.1-0.3-2.7-0.3h-4.2v11.1c0,0.4-0.1,0.7-0.4,1&#10;&#9;&#9;&#9;c-0.3,0.3-0.6,0.4-0.9,0.4h-9.6c-0.3,0-0.6-0.1-0.9-0.4c-0.3-0.3-0.4-0.6-0.4-1V20.9c0-0.4,0.1-0.7,0.4-0.9&#10;&#9;&#9;&#9;c0.3-0.3,0.6-0.4,0.9-0.4h21.6c3.7,0,6.7,0.9,8.9,2.6c2.4,1.9,3.6,4.3,3.6,7.4c0,3.4-1,5.9-3,7.4c-0.5,0.4-1.1,0.8-1.7,1.1&#10;&#9;&#9;&#9;c-0.7,0.3-1.4,0.7-2.1,0.9c0.9,0.5,1.7,1.1,2.3,1.7c0.7,0.6,1.2,1.2,1.6,1.8l5.9,10.4C241.3,53.3,241.3,53.8,241.1,54.2z" style="fill: rgb(177, 232, 76);"/>
      <path class="st0" d="M224.8,28.4c-0.8-0.5-2-0.8-3.6-0.8h-6.7v6.7h5.2c2.1,0,3.7-0.3,4.8-0.8c1.1-0.5,1.6-1.4,1.6-2.8&#10;&#9;&#9;&#9;C226,29.7,225.6,28.9,224.8,28.4z" style="fill: rgb(177, 232, 76);"/>
    </g>
    <g>
      <path class="st0" d="M249.3,55.1c0.3,0,0.4,0.1,0.5,0.2c0.1,0.1,0.2,0.3,0.2,0.4h0.7c0-0.5-0.2-0.8-0.5-1c-0.3-0.2-0.6-0.3-1-0.3&#10;&#9;&#9;&#9;c-0.5,0-0.9,0.2-1.2,0.5c-0.3,0.4-0.4,0.8-0.4,1.4c0,0.6,0.2,1,0.5,1.4c0.3,0.3,0.7,0.5,1.2,0.5c0.3,0,0.6-0.1,0.9-0.3&#10;&#9;&#9;&#9;c0.3-0.2,0.5-0.6,0.5-1h-0.7c0,0.2-0.1,0.3-0.2,0.5c-0.1,0.1-0.3,0.2-0.5,0.2c-0.3,0-0.5-0.1-0.6-0.3c-0.1-0.2-0.2-0.5-0.2-0.8&#10;&#9;&#9;&#9;c0-0.3,0.1-0.6,0.2-0.8C248.9,55.2,249.1,55.1,249.3,55.1z" style="fill: rgb(177, 232, 76);"/>
      <path class="st0" d="M252.2,53.2c-0.8-0.9-1.8-1.3-2.9-1.3c-1.2,0-2.2,0.5-3,1.3c-0.8,0.8-1.1,1.9-1.1,3c0,1.1,0.4,2.2,1.1,3&#10;&#9;&#9;&#9;c0.8,0.9,1.8,1.3,3,1.3c1.1,0,2.2-0.5,3-1.3c0.7-0.8,1.1-1.9,1.1-3C253.3,55.1,252.9,54,252.2,53.2z M250.9,58.1&#10;&#9;&#9;&#9;c-0.4,0.5-1,0.7-1.6,0.7c-0.6,0-1.2-0.2-1.6-0.7c-0.5-0.5-0.7-1.1-0.7-1.8c0-0.7,0.2-1.3,0.7-1.8c0.4-0.5,1-0.7,1.6-0.7&#10;&#9;&#9;&#9;c0.6,0,1.2,0.2,1.6,0.7c0.5,0.5,0.7,1.1,0.7,1.8C251.5,57,251.3,57.6,250.9,58.1z" style="fill: rgb(177, 232, 76);"/>
    </g>
  </g>
</svg>