<?xml version="1.0" encoding="utf-8"?>
<svg x="0px" y="0px" viewBox="0 0 16.13 20.153" xmlns="http://www.w3.org/2000/svg">
  <title>Résumeé</title>
  <path d="M 15.794 5.389 L 10.794 0.389 C 10.605 0.202 10.35 0.097 10.084 0.099 L 1.084 0.099 C 0.532 0.099 0.084 0.547 0.084 1.099 L 0.084 19.099 C 0.084 19.651 0.532 20.099 1.084 20.099 L 15.084 20.099 C 15.636 20.099 16.084 19.651 16.084 19.099 L 16.084 6.099 C 16.085 5.833 15.981 5.578 15.794 5.389 Z M 15.084 19.099 L 1.084 19.099 L 1.084 1.099 L 10.084 1.099 L 10.084 5.099 C 10.084 5.651 10.532 6.099 11.084 6.099 L 15.084 6.099 Z M 4.084 4.849 C 4.021 3.953 4.689 3.173 5.584 3.099 C 6.479 3.173 7.147 3.953 7.084 4.849 C 7.147 5.745 6.479 6.525 5.584 6.599 C 4.689 6.525 4.021 5.745 4.084 4.849 Z M 2.084 10.099 L 14.084 10.099 L 14.084 11.099 L 2.084 11.099 Z M 2.084 12.099 L 14.084 12.099 L 14.084 13.099 L 2.084 13.099 Z M 2.084 14.099 L 14.084 14.099 L 14.084 15.099 L 2.084 15.099 Z M 2.084 16.099 L 12.084 16.099 L 12.084 17.099 L 2.084 17.099 Z M 9.084 9.099 L 2.084 9.099 L 2.084 8.099 C 3.107 7.385 4.338 7.033 5.584 7.099 C 6.829 7.033 8.061 7.385 9.084 8.099 Z" style="fill: rgb(212, 15, 28);"/>
</svg>