<!-- Generator: Adobe Illustrator 19.1.0, SVG Export Plug-In  -->
<svg version="1.1"
	 xmlns="http://www.w3.org/2000/svg" xmlns:xlink="http://www.w3.org/1999/xlink" xmlns:a="http://ns.adobe.com/AdobeSVGViewerExtensions/3.0/"
	 x="0px" y="0px" width="253.3px" height="67.1px" viewBox="0 0 253.3 67.1" style="enable-background:new 0 0 253.3 67.1;"
	 xml:space="preserve">
<style type="text/css">
	.st0{fill:#FFFFFF;}
</style>
<defs>
</defs>
<g>
	<g>
		<path class="st0" d="M139.1,29c-1.1,0-2.1,0.2-3,0.7c-0.9,0.5-1.6,1-2.2,1.6v10.3c0.5,0.4,1.2,0.8,2.1,1.3c1.2,0.7,2.4,1,3.6,1
			c1.7,0,3-0.6,3.9-1.9c0.9-1.2,1.4-2.9,1.4-5.1c0-2.4-0.5-4.3-1.6-5.8C142.2,29.7,140.8,29,139.1,29z"/>
		<path class="st0" d="M23.5,28.7c-1.1,0-2.1,0.3-3.2,0.9c-0.3,0.2-0.6,0.4-0.8,0.5c-0.2,0.1-0.4,0.2-0.5,0.3v12.3
			c0.2,0.2,0.5,0.4,0.9,0.7c0.3,0.3,0.8,0.6,1.2,0.9H21c1.2,0.8,2.5,1.2,3.9,1.2c1.5,0,2.7-0.7,3.6-2.2c0.9-1.5,1.4-3.3,1.4-5.6
			c0-2.9-0.5-5.1-1.6-6.7C27.1,29.5,25.6,28.7,23.5,28.7z"/>
		<path class="st0" d="M98.7,29c-1.1,0-2.1,0.2-3,0.7c-0.9,0.5-1.6,1-2.2,1.6v10.3c0.5,0.4,1.2,0.8,2.1,1.3c1.2,0.7,2.4,1,3.6,1
			c1.7,0,2.9-0.6,3.9-1.9c0.9-1.2,1.4-2.9,1.4-5.1c0-2.4-0.5-4.3-1.6-5.8C101.8,29.7,100.4,29,98.7,29z"/>
		<polygon class="st0" points="173.8,41.8 181.8,41.8 177.9,33.9 		"/>
		<path class="st0" d="M245.8,50l-5.9-10.3c1.8-2,3.5-5.3,3.5-10.3c0-4.7-2-8.8-5.8-11.7c-3.2-2.4-7.3-3.7-12.2-3.7h-21.6
			c-1.9,0-3.6,0.8-4.8,2.1c-1.3,1.3-2,3-2,4.8v13.3l-8.4-16.4c0-0.1-0.1-0.1-0.1-0.2c-0.5-0.9-1.3-1.7-2.2-2.4c0,0-0.1-0.1-0.1-0.1
			c-1.1-0.7-2.4-1.1-3.6-1.1h-7.6c-1.2,0-2.3,0.3-3.4,1c-1.4,0.8-2.2,1.9-2.6,2.7l-6.6,12.1c-0.9-3.7-2.6-7-5.1-9.8
			c-0.1-0.2-0.3-0.3-0.4-0.4c-3.9-4.2-9.1-6.4-15.1-6.4c-2.5,0-5,0.4-7.3,1.2c-0.7,0.2-1.4,0.5-2,0.8c0,0,0,0-0.1,0
			c-1.2-0.8-2.6-1.3-4-1.3h-6.1c-2,0-3.8,0.8-5.2,2.2c-0.7,0.7-1.2,1.6-1.6,2.5c-3.8-3.6-8.6-5.5-14.1-5.5c-2.5,0-5,0.4-7.3,1.2
			c-0.7,0.2-1.4,0.5-2,0.8c0,0,0,0,0,0c-1.2-0.9-2.6-1.3-4-1.3h-6.1c-0.4,0-0.8,0-1.2,0.1c0.2-0.8,0.3-1.7,0.3-2.7
			c0-4-1.6-6.5-2.9-8C76.6,1.8,74,0,69.9,0c-4.1,0-6.6,1.8-8,3.2c-0.1,0.1-0.1,0.2-0.2,0.2c-1.2-1.1-2.8-1.7-4.4-1.7H48
			c-2.2,0-4.2,1-5.5,2.8c-1,1.3-1.5,2.9-1.5,4.5v8.8c-1.4-1.4-3-2.5-4.8-3.3c-2.6-1.2-5.5-1.8-8.7-1.8c-1.1,0-2.1,0.1-3.2,0.2V9.1
			c0-1.9-0.7-3.7-2.1-5.1c-1.4-1.4-3.2-2.2-5.2-2.2h-10C5.3,1.8,3.4,2.6,2,4c-1.3,1.4-2,3.2-2,5V53c0,1.9,0.7,3.7,2,5
			c1.4,1.5,3.2,2.3,5.2,2.3h5.3c1.4,0,2.8-0.4,4-1.3c0,0,0.1,0,0.1-0.1c0.2-0.1,0.4-0.3,0.5-0.4C20,60.2,23.4,61,27.3,61
			c5.6,0,10.4-2,14.1-5.7c0.2,0.8,0.6,1.6,1.1,2.2c1.3,1.8,3.3,2.8,5.5,2.8h9.3c1.4,0,2.8-0.5,3.9-1.3c1.1,0.8,2.5,1.3,4,1.3h9.3
			c0,0,0,0,0,0c0.1,1.7,0.8,3.3,2,4.6c1.4,1.4,3.2,2.2,5.2,2.2h10c2,0,3.8-0.8,5.2-2.3c1.3-1.4,2-3.2,2-5.1v-0.9
			c0.9,0.1,1.9,0.2,2.8,0.2c5,0,9.4-1.6,13.1-4.7v5.5c0,1.9,0.7,3.7,2.1,5.2c1.4,1.4,3.2,2.2,5.2,2.2h10c2,0,3.8-0.8,5.2-2.3
			c1.3-1.4,2-3.2,2-5.1v-0.9c0.9,0.1,1.9,0.2,2.8,0.2c3.3,0,6.3-0.7,9-2c0,0,0,0.1,0.1,0.1c1.3,2.1,3.4,3.3,5.9,3.3h8.9
			c1.3,0,2.6-0.4,3.7-1.1c1.1-0.7,1.9-1.6,2.5-2.7l0.7-1.4h9.3l0.6,1.2c0.5,1.2,1.4,2.2,2.6,2.9c1.1,0.7,2.3,1,3.5,1h10.1
			c0.8,0,1.6-0.1,2.3-0.4c0.7,0.3,1.5,0.4,2.3,0.4h9.6c1.9,0,3.6-0.8,5-2.2c1.2-1.3,1.9-3,1.9-4.7v-2.2l2.7,5.3
			c0.5,1,1.3,1.8,2.2,2.5c1.1,0.8,2.5,1.2,3.9,1.2h10.9c2.5,0,4.7-1.3,6-3.4C247.1,54.8,247,52.3,245.8,50z M38.6,50.4
			c-2.8,3.5-6.6,5.3-11.3,5.3c-3.4,0-6.3-0.8-8.5-2.4c-0.6-0.4-1.1-0.8-1.6-1.2c-0.5-0.4-1-0.8-1.5-1.2l-1.6,3.1
			c-0.2,0.2-0.4,0.5-0.7,0.7c-0.3,0.2-0.6,0.3-0.8,0.3H7.2c-0.5,0-0.9-0.2-1.2-0.5c-0.3-0.4-0.5-0.8-0.5-1.3V9.2
			c0-0.5,0.2-0.9,0.5-1.3c0.3-0.4,0.8-0.5,1.2-0.5h10c0.5,0,0.9,0.2,1.2,0.5C18.8,8.3,19,8.7,19,9.2v11.6l0.9-0.5
			c0.3-0.1,0.6-0.3,1-0.5v0.1c2.2-1,4.5-1.6,6.8-1.6c2.4,0,4.5,0.4,6.3,1.3c1.8,0.9,3.4,2.2,4.7,4c2.6,3.4,3.9,7.8,3.9,13.4
			C42.6,42.5,41.3,47,38.6,50.4z M58.7,53.1c0,0.5-0.1,0.9-0.4,1.3c-0.3,0.4-0.6,0.5-1,0.5H48c-0.4,0-0.8-0.2-1-0.5
			c-0.3-0.4-0.4-0.8-0.4-1.3V9.2c0-0.5,0.1-0.9,0.4-1.3c0.3-0.4,0.6-0.6,1-0.6h9.3c0.4,0,0.7,0.2,1,0.6c0.3,0.4,0.4,0.8,0.4,1.3
			V53.1z M65.9,7.2c1-1,2.3-1.5,4-1.5c1.7,0,3.1,0.5,4,1.5c1,1,1.4,2.4,1.4,4.2c0,1.8-0.5,3.2-1.4,4.2c-1,1-2.3,1.5-4,1.5
			c-1.7,0-3-0.5-4-1.5c-1-1-1.5-2.4-1.5-4.2C64.4,9.6,64.9,8.2,65.9,7.2z M76,53.1c0,0.5-0.1,0.9-0.4,1.3c-0.3,0.4-0.6,0.5-1,0.5
			h-9.3c-0.4,0-0.8-0.2-1-0.5c-0.3-0.4-0.4-0.8-0.4-1.3V21c0-0.5,0.1-0.9,0.4-1.3c0.3-0.4,0.6-0.5,1-0.5h8.2c0.2,0,0.4,0.1,0.7,0.2
			c0.3,0.1,0.6,0.2,0.8,0.4c0.3,0.2,0.5,0.4,0.7,0.6c0.2,0.2,0.3,0.5,0.3,0.7V53.1z M112.9,48.7c-2.9,3.2-6.6,4.8-11,4.8
			c-1.5,0-3-0.2-4.4-0.5c-1.4-0.3-2.7-0.8-4-1.6v8.4c0,0.5-0.2,1-0.5,1.3c-0.3,0.4-0.7,0.5-1.2,0.5h-10c-0.5,0-0.9-0.2-1.2-0.5
			c-0.3-0.4-0.5-0.8-0.5-1.3V21.3c0-0.5,0.2-1,0.5-1.3c0.3-0.4,0.8-0.6,1.2-0.6h6.1c0.3,0,0.6,0.1,0.8,0.3c0.3,0.2,0.5,0.4,0.7,0.6
			l1.3,2.3c1.6-1.4,3.3-2.4,5-3c1.7-0.6,3.6-0.9,5.5-0.9c4.7,0,8.5,1.7,11.4,5.1v-0.1c3,3.2,4.5,7.4,4.5,12.7
			C117.2,41.4,115.8,45.5,112.9,48.7z M142.3,53.6c-1.5,0-3-0.2-4.4-0.5c-1.4-0.3-2.7-0.8-4-1.6v8.4c0,0.5-0.2,1-0.5,1.3
			c-0.3,0.4-0.7,0.5-1.2,0.5h-10c-0.5,0-0.9-0.2-1.2-0.5c-0.3-0.4-0.5-0.8-0.5-1.3V21.3c0-0.5,0.2-1,0.5-1.3
			c0.3-0.4,0.8-0.6,1.2-0.6h6.1c0.3,0,0.5,0.1,0.8,0.3c0.3,0.2,0.5,0.4,0.7,0.6l1.3,2.3c1.6-1.4,3.3-2.4,5-3
			c1.7-0.6,3.6-0.9,5.5-0.9c4.7,0,8.5,1.7,11.4,5.1v-0.1c3,3.2,4.5,7.4,4.5,12.7c0,5-1.4,9.1-4.3,12.4
			C150.4,52,146.7,53.6,142.3,53.6z M200.4,54.3c-0.2,0.4-0.6,0.6-1.2,0.6h-10.1c-0.2,0-0.4-0.1-0.7-0.2c-0.3-0.2-0.4-0.3-0.5-0.5
			l-2.2-4.4h-16.2l-2.2,4.4c-0.1,0.2-0.3,0.4-0.5,0.5c-0.2,0.2-0.5,0.2-0.7,0.2h-8.9c-0.6,0-1-0.2-1.2-0.6c-0.3-0.4-0.2-0.9,0-1.4
			l17.7-32.6c0.1-0.2,0.3-0.3,0.5-0.5c0.3-0.2,0.5-0.2,0.6-0.2h7.6c0.2,0,0.4,0.1,0.6,0.2c0.2,0.2,0.4,0.3,0.5,0.5l16.7,32.6
			C200.6,53.4,200.6,53.9,200.4,54.3z M241.1,54.2c-0.2,0.4-0.6,0.7-1.2,0.7h-10.9c-0.2,0-0.5-0.1-0.7-0.2c-0.2-0.2-0.4-0.3-0.5-0.5
			l-5.5-10.7l0,0.1l-0.4-0.4c-0.1-0.2-0.3-0.3-0.4-0.4c-0.2-0.2-1.1-0.3-2.7-0.3h-4.2v11.1c0,0.4-0.1,0.7-0.4,1
			c-0.3,0.3-0.6,0.4-0.9,0.4h-9.6c-0.3,0-0.6-0.1-0.9-0.4c-0.3-0.3-0.4-0.6-0.4-1V20.9c0-0.4,0.1-0.7,0.4-0.9
			c0.3-0.3,0.6-0.4,0.9-0.4h21.6c3.7,0,6.7,0.9,8.9,2.6c2.4,1.9,3.6,4.3,3.6,7.4c0,3.4-1,5.9-3,7.4c-0.5,0.4-1.1,0.8-1.7,1.1
			c-0.7,0.3-1.4,0.7-2.1,0.9c0.9,0.5,1.7,1.1,2.3,1.7c0.7,0.6,1.2,1.2,1.6,1.8l5.9,10.4C241.3,53.3,241.3,53.8,241.1,54.2z"/>
		<path class="st0" d="M224.8,28.4c-0.8-0.5-2-0.8-3.6-0.8h-6.7v6.7h5.2c2.1,0,3.7-0.3,4.8-0.8c1.1-0.5,1.6-1.4,1.6-2.8
			C226,29.7,225.6,28.9,224.8,28.4z"/>
	</g>
	<g>
		<path class="st0" d="M249.3,55.1c0.3,0,0.4,0.1,0.5,0.2c0.1,0.1,0.2,0.3,0.2,0.4h0.7c0-0.5-0.2-0.8-0.5-1c-0.3-0.2-0.6-0.3-1-0.3
			c-0.5,0-0.9,0.2-1.2,0.5c-0.3,0.4-0.4,0.8-0.4,1.4c0,0.6,0.2,1,0.5,1.4c0.3,0.3,0.7,0.5,1.2,0.5c0.3,0,0.6-0.1,0.9-0.3
			c0.3-0.2,0.5-0.6,0.5-1h-0.7c0,0.2-0.1,0.3-0.2,0.5c-0.1,0.1-0.3,0.2-0.5,0.2c-0.3,0-0.5-0.1-0.6-0.3c-0.1-0.2-0.2-0.5-0.2-0.8
			c0-0.3,0.1-0.6,0.2-0.8C248.9,55.2,249.1,55.1,249.3,55.1z"/>
		<path class="st0" d="M252.2,53.2c-0.8-0.9-1.8-1.3-2.9-1.3c-1.2,0-2.2,0.5-3,1.3c-0.8,0.8-1.1,1.9-1.1,3c0,1.1,0.4,2.2,1.1,3
			c0.8,0.9,1.8,1.3,3,1.3c1.1,0,2.2-0.5,3-1.3c0.7-0.8,1.1-1.9,1.1-3C253.3,55.1,252.9,54,252.2,53.2z M250.9,58.1
			c-0.4,0.5-1,0.7-1.6,0.7c-0.6,0-1.2-0.2-1.6-0.7c-0.5-0.5-0.7-1.1-0.7-1.8c0-0.7,0.2-1.3,0.7-1.8c0.4-0.5,1-0.7,1.6-0.7
			c0.6,0,1.2,0.2,1.6,0.7c0.5,0.5,0.7,1.1,0.7,1.8C251.5,57,251.3,57.6,250.9,58.1z"/>
	</g>
</g>
</svg>
