<?xml version="1.0" encoding="utf-8"?>
<svg style="enable-background:new 0 0 163.302 185.757;" x="0px" y="0px" viewBox="0 0 164 187" xmlns="http://www.w3.org/2000/svg">
  <g>
    <path d="M154.925,58.258c-0.727,0.033-1.441,0.051-2.15,0.051c-14.059,0.082-29.652-6.953-41.436-14.388   c-5.898-3.692-10.858-7.414-14.303-10.185c-1.723-1.387-3.069-2.534-3.969-3.323c-0.45-0.392-0.789-0.697-1.006-0.895   c-0.108-0.1-0.188-0.171-0.236-0.217c-0.049-0.044-0.049-0.044-0.049-0.044c-0.489-0.459-1.024-0.835-1.585-1.147   c-1.637-0.995-3.613-1.579-5.746-1.579h-1.313C81.203,38.128,71.106,47,58.968,47c-12.135,0-22.232-8.872-24.161-20.469h-1.311   c-1.338,0-2.611,0.235-3.781,0.651c-0.081,0.021-0.163,0.034-0.244,0.058c-0.228,0.074-6.41,1.843-13.028,4.947   c-3.322,1.577-6.762,3.438-9.857,5.991c-1.542,1.293-3.029,2.772-4.296,4.727c-0.341,0.525-0.663,1.103-0.956,1.719   C0.553,46.266-0.002,48.208,0,50.355c-0.002,1.298,0.21,2.668,0.637,3.961H0.636c0.001,0.002,0.001,0.004,0.002,0.006   c0.003,0.007,0.005,0.016,0.007,0.023c0.006,0.016,0.014,0.03,0.02,0.046c1,2.972,2.902,5.286,5.083,7.124   c3.346,2.782,7.543,4.852,13.207,6.885c5.663,2.01,12.814,3.893,21.96,5.705c0.525,0.105,1.05,0.155,1.566,0.155   c3.738,0,7.081-2.637,7.837-6.446c0.859-4.334-1.959-8.543-6.292-9.401c-11.487-2.267-19.207-4.634-23.693-6.67   c-1.309-0.586-2.325-1.142-3.076-1.613c0.41-0.321,0.89-0.664,1.435-0.999c0.126-0.081,0.267-0.162,0.398-0.243   c1.836-1.136,4.148-2.26,6.398-3.22l1.39,6.417c3.975,1.293,9.604,2.799,17.535,4.365c2.621,0.521,4.883,2.028,6.368,4.247   c1.485,2.221,2.018,4.887,1.5,7.506c-0.929,4.672-5.051,8.06-9.801,8.06c-0.649,0-1.309-0.065-1.954-0.196   c-3.175-0.629-6.118-1.271-8.871-1.928l0.271,1.255v98c0,6.83,5.537,12.363,12.363,12.363c6.827,0,12.365-5.533,12.365-12.363   V83.122h4.635v90.271c0,6.83,5.536,12.363,12.363,12.363c6.828,0,12.365-5.533,12.365-12.363v-98l5.557-25.652   c3.193,2.389,6.989,5.055,11.277,7.741c13.155,8.171,30.797,16.746,49.924,16.827c0.975,0,1.944-0.024,2.906-0.071   c4.414-0.208,7.82-3.956,7.612-8.368C163.085,61.456,159.34,58.05,154.925,58.258z" style="fill: rgb(81, 167, 249);"/>
    <circle cx="58.97" cy="22.5" r="22.5" style="fill: rgb(81, 167, 249);"/>
  </g>
</svg>