<?xml version="1.0" encoding="utf-8"?>
<svg x="0px" y="0px" viewBox="0 0 988 1147" xmlns="http://www.w3.org/2000/svg">
  <path d="m 493.0297,0.004 c -225.11196,0 -408.251959,183.137 -408.251959,408.203 0,91.255 30.112999,175.607 80.916999,243.65497 L 5.7797413,939.83997 c -7.829,14.432 -7.736,32.024 0.472,46.362 8.2049997,14.33603 23.2989997,23.30103 39.9009997,23.67703 l 133.376999,3.019 73.058,111.541 c 8.773,13.348 23.583,21.32 39.431,21.32 0.52,0 1.09,0 1.555,-0.1 16.507,-0.614 31.504,-9.81 39.522,-24.242 L 492.8617,833.74897 652.6817,1121.511 c 8.018,14.432 22.92,23.63 39.522,24.244 l 1.555,0 c 15.848,0 30.753,-7.972 39.385,-21.226 l 73.149,-111.545 133.378,-3.018 c 16.507,-0.377 31.603,-9.339 39.809,-23.67503 8.394,-14.339 8.489,-31.928 0.472,-46.361 l -159.87,-287.891 C 870.9427,583.959 901.0907,499.538 901.0907,408.203 901.0907,183.09 718.0507,0 493.0297,0 Z m 0,94.373 c 172.999,0 313.734,140.786 313.734,313.879 0,173.044 -140.735,313.82797 -313.734,313.82797 -173.08996,0 -313.91996,-140.78397 -313.91996,-313.82797 0,-173.093 140.83,-313.879 313.91996,-313.879 z m 0,78.672 c -129.7,0 -235.25496,105.505 -235.25496,235.207 0,129.653 105.55496,235.15597 235.25496,235.15597 129.702,0 235.16,-105.50297 235.16,-235.15597 0,-129.702 -105.458,-235.207 -235.16,-235.207 z m 0,47.119 c 103.715,0 187.996,84.374 187.996,188.039 0,103.667 -84.281,187.99497 -187.996,187.99497 -103.711,0 -188.09096,-84.32797 -188.09096,-187.99497 0,-103.665 84.37996,-188.039 188.09096,-188.039 z M 233.84974,723.33297 c 47.727,39.306 104.502,68.008 166.68396,82.462 l -112.00396,201.63303 -43.958,-66.97603 c -8.49,-12.969 -22.877,-20.939 -38.346,-21.271 l -80.129,-1.837 107.753,-194.011 z m 518.04996,0.157 107.639,193.946 -80.037,1.837 c -15.563,0.332 -29.902,8.302 -38.392,21.271 l -43.954,66.97403 -111.947,-201.65503 c 62.182,-14.413 118.956,-43.089 166.691,-82.373 z" style="fill: rgb(146, 146, 146);"/>
</svg>