<svg xmlns="http://www.w3.org/2000/svg" data-name="Layer 1" viewBox="0 0 100 125" x="0px" y="0px"><title>cardboard</title><path d="M84.18,29H15.82A5.83,5.83,0,0,0,10,34.82V65.18A5.83,5.83,0,0,0,15.82,71H42.49a1.93,1.93,0,0,0,1.71-1l4-8.12a1.9,1.9,0,0,1,3.42,0l3.81,8A1.91,1.91,0,0,0,57.2,71h27A5.83,5.83,0,0,0,90,65.18V34.82A5.83,5.83,0,0,0,84.18,29ZM32,56.83A6.83,6.83,0,1,1,38.8,50,6.83,6.83,0,0,1,32,56.83Zm36,0A6.83,6.83,0,1,1,74.8,50,6.83,6.83,0,0,1,68,56.83Z"/><text x="0" y="115" fill="#000000" font-size="5px" font-weight="bold" font-family="'Helvetica Neue', Helvetica, Arial-Unicode, Arial, Sans-serif">Created by Jaya Kiran Reddy</text><text x="0" y="120" fill="#000000" font-size="5px" font-weight="bold" font-family="'Helvetica Neue', Helvetica, Arial-Unicode, Arial, Sans-serif">from the Noun Project</text></svg>