<svg xmlns:rdf="http://www.w3.org/1999/02/22-rdf-syntax-ns#" xmlns="http://www.w3.org/2000/svg" xmlns:cc="http://creativecommons.org/ns#" xmlns:dc="http://purl.org/dc/elements/1.1/" viewBox="0 0 100 125" version="1.1" x="0px" y="0px"><path d="m25.413 5c-11.309 0-20.413 9.104-20.413 20.413v49.174c0 11.309 9.104 20.413 20.413 20.413h49.052c11.309 0 20.415-9.1037 20.415-20.413v-49.175c0-11.309-9.1057-20.413-20.415-20.413zm39.846 7.6794c1.1576 0.000546 2.1011 0.94485 2.1004 2.1024-0.000545 1.1567-0.94372 2.0999-2.1004 2.1004-1.1576 0.000718-2.1019-0.94284-2.1024-2.1004-0.000718-1.1585 0.94396-2.1031 2.1024-2.1024zm-30.136 0.03018c1.1585-0.000718 2.1031 0.94396 2.1024 2.1024-0.000546 1.1576-0.94485 2.1011-2.1024 2.1004-1.1567-0.000544-2.0999-0.94372-2.1004-2.1004-0.000718-1.1576 0.94284-2.1019 2.1004-2.1024zm14.335 0.12876h1.7986v1.4667h-0.7102v0.36854h2.199v0.45597h-0.65789v0.4289h0.71221v1.4667h-1.8006v-1.352-0.11468h0.83091v-0.4289h-2.9152v0.4289h0.78665v1.4667h-1.8006v-1.352-0.11468h0.75647v-0.4289h-0.7786v-0.45597h2.4102v-0.36854h-0.83091v-1.354zm0.32355 0.32355v0.82158h1.1535v-0.82158zm15.478 0.03256c-0.09061-0.000056-0.17718 0.01177-0.26356 0.02616-0.05959 0.30324-0.1081 0.60703-0.14083 0.91139 0.26167 0.0191 0.52476 0.02309 0.78866 0.01207-0.03442-0.30888-0.08248-0.61753-0.14486-0.92547-0.0788-0.01198-0.15716-0.0241-0.23942-0.02415zm-30.136 0.03018c-0.8792 0.000414-1.5859 0.70818-1.5854 1.5874 0.000415 0.87851 0.70686 1.585 1.5854 1.5854 0.8792 0.000545 1.587-0.70617 1.5874-1.5854 0.000546-0.87989-0.7075-1.5879-1.5874-1.5874zm30.647 0.06036c0.05324 0.28085 0.10177 0.56254 0.13278 0.84701 0.24638-0.02074 0.49349-0.05963 0.74239-0.11065-0.1883-0.34486-0.49754-0.60789-0.87517-0.73635zm-1.0462 0.008c-0.36076 0.12884-0.65748 0.38121-0.84298 0.7102 0.23858 0.04117 0.477 0.0854 0.71623 0.11065 0.02928-0.2756 0.07668-0.54846 0.12675-0.82085zm-29.877 0.64783h0.51504v1.686h-0.51504zm28.923 0.30581c-0.05993 0.1678-0.0987 0.3462-0.09858 0.53516 0.000089 0.18814 0.03896 0.36605 0.09858 0.53315 0.26458-0.04663 0.52917-0.09337 0.79671-0.12071-0.0111-0.27684-0.0084-0.552 0.01207-0.82488-0.27154-0.02834-0.54031-0.07462-0.80878-0.12273zm2.9796 0.0161c-0.27804 0.05978-0.55482 0.10183-0.8289 0.12474 0.0205 0.2622 0.02641 0.52685 0.01811 0.79269 0.26754 0.02445 0.53742 0.06841 0.80878 0.12876 0.05846-0.16568 0.09648-0.34088 0.09657-0.52712 0.000114-0.18301-0.0382-0.35575-0.09456-0.51907zm-1.9153 0.12675c-0.01955 0.26034-0.0222 0.52211-0.01207 0.78464 0.28403-0.02009 0.57073-0.02062 0.85908-0.006 0.008-0.2572 0.0022-0.5134-0.01811-0.76854-0.27816 0.01201-0.55475 0.01-0.8289-0.01006zm0.83493 1.0341c-0.28012-0.01422-0.55938-0.01192-0.83695 0.008 0.02419 0.30053 0.07069 0.60271 0.14284 0.90736 0.0925 0.01659 0.18623 0.02823 0.28368 0.02817 0.09395-0.000044 0.18426-0.01262 0.27362-0.02817 0.06965-0.30745 0.11494-0.61234 0.13681-0.91541zm0.25752 0.01207c-0.01936 0.27398-0.05989 0.54937-0.11468 0.82689 0.35072-0.13061 0.63874-0.38071 0.82085-0.70215-0.23616-0.04983-0.47231-0.10291-0.70617-0.12474zm-1.348 0.01609c-0.23252 0.02421-0.46419 0.06775-0.69612 0.10663 0.18122 0.32095 0.46553 0.57073 0.81482 0.70215-0.05582-0.27161-0.09718-0.5409-0.1187-0.80878zm-16.331 0.43018v0.82158h1.1295v-0.82158zm3.0743 0v0.82158h1.1535v-0.82158zm-16.169 3.1792c0.40054-0.000485 0.72567 0.32374 0.72629 0.72428 0.000487 0.40132-0.32497 0.72678-0.72629 0.72629-0.40054-0.000625-0.72477-0.32576-0.72428-0.72629 0.000624-0.39975 0.32453-0.72366 0.72428-0.72428zm15.144 0c0.40054-0.000485 0.72567 0.32374 0.72629 0.72428 0.000487 0.40132-0.32497 0.72678-0.72629 0.72629-0.40054-0.000626-0.72477-0.32576-0.72428-0.72629 0.000624-0.39975 0.32453-0.72366 0.72428-0.72428zm15.144 0c0.40054-0.000485 0.72567 0.32374 0.72629 0.72428 0.000487 0.40132-0.32497 0.72678-0.72629 0.72629-0.40132 0.000486-0.72678-0.32497-0.72629-0.72629 0.000626-0.40054 0.32576-0.72477 0.72629-0.72428zm-15.234 13.401c9.5933 0 17.381 7.7874 17.381 17.381 0 9.5933-7.7874 17.381-17.381 17.381-9.5933 0-17.381-7.7874-17.381-17.381 0-9.5933 7.7874-17.381 17.381-17.381zm0 0.99589c-9.0553 0-16.385 7.3295-16.385 16.385 0 9.0553 7.3295 16.385 16.385 16.385 9.0553 0 16.385-7.3295 16.385-16.385 0-9.0553-7.3295-16.385-16.385-16.385z"/><text x="0" y="115" fill="#000000" font-size="5px" font-weight="bold" font-family="'Helvetica Neue', Helvetica, Arial-Unicode, Arial, Sans-serif">Created by Richard Slater</text><text x="0" y="120" fill="#000000" font-size="5px" font-weight="bold" font-family="'Helvetica Neue', Helvetica, Arial-Unicode, Arial, Sans-serif">from the Noun Project</text></svg>