<?xml version="1.0" encoding="utf-8"?>
<svg style="enable-background:new 0 0 100 100;" x="0px" y="0px" viewBox="0 0 99.525 86.188" xmlns="http://www.w3.org/2000/svg">
  <rect x="91.942" y="10.07" width="6.7" height="57.8" style="fill: rgb(202, 57, 101);"/>
  <ellipse cx="22.042" cy="15.07" rx="15.2" ry="14.7" style="fill: rgb(202, 57, 101);"/>
  <path d="M 78.742 47.67 C 77.042 44.37 72.942 43.07 69.542 44.77 L 47.642 56.17 C 45.242 52.67 25.942 26.07 8.042 36.37 C -3.258 42.87 1.442 71.07 4.642 84.97 L 43.542 84.97 L 44.742 75.07 C 44.042 74.47 14.442 52.17 15.042 51.47 C 15.642 50.77 16.642 50.57 17.442 51.17 L 45.642 72.57 L 75.842 56.87 C 79.242 55.17 80.542 50.97 78.742 47.67 Z" style="fill: rgb(202, 57, 101);"/>
  <path d="M 89.042 50.77 C 89.442 51.17 89.442 51.77 89.042 52.17 L 86.842 54.37 C 86.442 54.77 85.842 54.77 85.442 54.37 C 85.042 53.97 85.042 53.37 85.442 52.97 L 87.642 50.77 C 87.942 50.37 88.642 50.37 89.042 50.77 Z" style="fill: rgb(202, 57, 101);"/>
  <path d="M 88.042 40.37 C 87.842 40.87 87.242 41.07 86.742 40.87 L 83.942 39.57 C 83.442 39.37 83.242 38.77 83.442 38.27 C 83.642 37.77 84.242 37.57 84.742 37.77 L 87.542 39.07 C 88.142 39.27 88.342 39.87 88.042 40.37 Z" style="fill: rgb(202, 57, 101);"/>
  <path d="M 86.742 44.97 C 86.542 44.77 86.242 44.77 85.942 44.77 L 82.942 45.37 C 82.442 45.47 82.042 45.97 82.142 46.57 C 82.242 47.07 82.742 47.47 83.342 47.37 L 86.342 46.77 C 86.842 46.67 87.242 46.17 87.142 45.57 C 87.142 45.37 86.942 45.07 86.742 44.97 Z" style="fill: rgb(202, 57, 101);"/>
</svg>