<?xml version="1.0" encoding="utf-8"?>
<svg x="0px" y="0px" viewBox="0 0 89.228 56.723" xmlns="http://www.w3.org/2000/svg">
  <g transform="matrix(1, 0, 0, 1, -5.386147, -973.906799)">
    <path style="font-size: medium; font-style: normal; font-variant-ligatures: normal; font-variant-caps: normal; font-weight: normal; font-stretch: normal; text-indent: 0px; text-align: start; text-decoration: none; line-height: normal; letter-spacing: normal; word-spacing: normal; text-transform: none; direction: ltr; writing-mode: lr-tb; text-anchor: start; baseline-shift: baseline; opacity: 1; color: rgb(0, 0, 0); fill-opacity: 1; stroke: none; stroke-width: 4; marker: none; visibility: visible; display: inline; overflow: visible; font-family: Sans; fill: rgb(88, 193, 91);" d="m 8,22 c -1.0149113,0.03189 -2.0042581,1.012485 -2,2 l 0,29 c 0.01035,0.826996 0.5893573,1.616551 1.375,1.875 2.0649616,0.688324 4.234366,2.013626 5.9375,3.40625 C 12.940179,58.825804 12.591108,59.39013 12.25,60 c -0.485076,0.856141 -0.212558,2.060958 0.59375,2.625 l 17,12 C 32.035768,76.1723 34.112669,77 37,77 38.972987,77 40.765586,76.40885 42.3125,75.40625 44.174705,76.393543 47.003656,78 50,78 c 1.988133,0 4.11452,-0.445276 5.986912,-1.234139 1.477155,-0.603445 2.506674,-1.377317 3.845328,-2.315645 L 75.783166,63.269424 c 1.599538,-1.09544 3.305481,-2.351005 4.869191,-3.207618 C 84.316504,58.062937 88.650406,56.671224 92.8125,54.8125 93.509959,54.502388 93.994207,53.763273 94,53 l 0,-29 c 0.0088,-1.135929 -0.863376,-1.996572 -2,-2 -0.476197,-0.0014 -0.851352,0.154682 -1.237546,0.365441 L 80.78125,27.8125 C 74.079904,25.79543 66.901973,23.01187 60,23 56.530516,23 53.267497,24.259714 50.28125,26.90625 47.914312,24.25767 44.350716,23 41,23 33.324571,23 27.829857,25.32135 19.25,27.8125 L 9.1697566,22.328112 C 8.7795265,22.087979 8.285393,22 8,22 z m 33,5 c 2.331862,0 4.927285,1.073088 6.40625,2.75 l -10.8125,10.8125 c -0.603961,0.593842 -0.763524,1.59111 -0.375,2.34375 0.937826,1.78307 2.003968,3.45801 3.40625,4.78125 C 41.027282,49.0107 42.88932,50 45,50 50.653588,50 55.638762,45.981668 58.90625,42.875 L 74,59.625 58.032455,70.821586 c -0.955889,0.762594 -2.07356,1.476365 -3.086294,1.997082 C 53.509643,73.468607 51.451248,74 50,74 c -0.895002,0 -2.821724,-0.768415 -4.5625,-1.5625 1.111801,-1.462387 1.959041,-3.153315 2.46875,-4.875 0.246054,-0.796895 -0.07091,-1.73458 -0.75,-2.21875 l -20,-14 C 26.81806,51.114718 26.408384,50.992923 26,51 22.478176,51 18.912274,52.355711 15.90625,55.21875 14.204925,53.853281 12.150423,52.656145 10,51.75 l 0,-24.375 8.03125,4.375 c 0.454713,0.242736 1.005022,0.30006 1.5,0.15625 C 28.875455,29.25415 33.901694,27 41,27 z m 19,0 c 5.98277,0.0103 13.264605,2.80666 20.4375,4.90625 0.504168,0.152242 1.068223,0.09469 1.53125,-0.15625 L 90,27.375 90,51.65625 C 85.951847,53.358718 81.445307,54.823131 77.34375,57.375 L 60.6875,38.84375 C 60.121707,38.257618 59.55346,37.98781 59,38 58.451878,38.012071 57.918615,38.300826 57.34375,38.8125 54.387089,41.713799 48.993521,46 45,46 c -0.962501,0 -1.736546,-0.38038 -2.625,-1.21875 -0.611535,-0.57706 -1.187531,-1.60292 -1.78125,-2.5625 0,0 11.595811,-11.667338 11.857298,-11.926225 C 54.970269,27.798359 57.199489,27 60,27 z M 25.46875,55.0625 43.5,67.6875 C 42.180237,70.5983 39.629239,73 37,73 34.677671,73 34.067158,72.69255 32.15625,71.34375 L 16.78125,60.5 c 2.583082,-3.7712 5.56317,-5.2935 8.6875,-5.4375 z" transform="translate(0,952.36218)"/>
  </g>
</svg>