<?xml version="1.0" encoding="utf-8"?>
<svg viewBox="0 0 401 134" xmlns="http://www.w3.org/2000/svg">
  <style type="text/css">
	.st0{display:none;}
</style>
  <path d="M 93.921 16.21 C 84.815 16.21 4.097 16.719 4.097 34.518 L 4.097 68.591 C 4.097 69.863 4.51 70.881 5.337 71.388 C 5.96 71.897 6.581 72.151 7.202 72.151 L 7.202 73.422 C 7.202 78.763 10.721 83.085 15.066 83.085 L 20.033 83.085 C 30.795 106.224 50.664 120.463 72.396 120.463 L 73.017 120.463 C 77.985 120.463 82.744 117.92 86.47 113.598 C 88.54 111.308 91.231 109.783 94.129 109.783 C 97.025 109.783 99.717 111.054 101.786 113.598 C 105.513 117.92 110.272 120.463 115.238 120.463 L 115.861 120.463 C 137.383 120.463 157.461 106.224 168.223 83.085 L 173.189 83.085 C 177.537 83.085 181.056 78.763 181.056 73.422 L 181.056 72.151 L 181.261 72.151 C 181.883 72.151 182.504 71.897 182.917 71.388 C 183.746 70.625 184.16 69.609 184.16 68.591 L 184.16 34.518 C 183.746 16.973 103.028 16.21 93.921 16.21 Z M 18.998 80.542 L 15.274 80.542 C 11.961 80.797 9.271 77.491 9.271 73.678 L 9.271 71.643 C 9.477 71.643 9.477 71.643 9.685 71.388 C 9.893 71.388 9.893 71.388 10.098 71.134 C 10.513 71.134 10.926 70.881 11.342 70.881 C 11.548 70.881 11.548 70.881 11.755 70.881 C 12.377 70.625 12.996 70.625 13.617 70.372 C 13.825 70.372 14.032 70.372 14.238 70.372 C 14.653 70.372 14.859 70.372 15.274 70.116 C 15.481 70.881 15.687 71.388 15.894 72.151 C 16.101 72.66 16.309 73.422 16.514 73.931 C 16.93 75.203 17.343 76.475 17.965 77.745 L 18.793 79.526 L 18.998 80.542 C 18.998 80.288 18.998 80.288 18.998 80.542 Z M 75.708 103.936 C 75.501 103.936 75.501 103.936 75.295 103.936 L 75.088 103.936 C 73.64 103.936 54.804 103.936 42.594 103.936 C 42.386 103.936 42.179 103.936 41.972 103.682 C 41.559 103.427 35.762 97.326 33.279 81.56 L 83.987 81.56 C 82.744 89.442 80.26 101.902 75.708 103.936 Z M 144.215 103.682 C 144.007 103.936 143.801 103.936 143.594 103.936 C 131.176 103.936 112.55 103.682 111.1 103.936 C 110.893 103.936 110.685 103.936 110.479 103.936 C 105.926 101.902 103.441 89.697 102.201 81.56 L 152.908 81.56 C 150.424 97.326 144.628 103.427 144.215 103.682 Z M 178.985 73.678 C 178.572 77.491 175.88 80.797 172.776 80.797 L 169.052 80.797 C 169.052 80.797 169.052 80.797 169.052 80.542 L 169.257 79.779 L 170.086 78 C 170.5 76.728 171.121 75.457 171.535 74.185 C 171.74 73.678 171.948 72.915 172.156 72.406 C 172.363 71.643 172.569 71.134 172.776 70.372 C 173.189 70.372 173.605 70.625 174.018 70.625 C 174.224 70.625 174.432 70.625 174.432 70.625 C 175.053 70.881 175.674 70.881 176.296 71.134 C 176.296 71.134 176.296 71.134 176.501 71.134 C 177.124 71.388 177.537 71.388 178.158 71.643 L 178.364 71.643 C 178.572 71.643 178.777 71.643 178.985 71.897 L 178.985 73.678 Z M 181.883 68.846 L 181.883 68.846 C 181.677 69.1 181.469 69.354 181.261 69.609 C 181.056 69.609 180.848 69.863 180.641 69.863 L 180.02 69.609 C 179.606 69.354 179.193 69.354 178.572 69.1 C 178.364 69.1 178.158 69.1 177.95 68.846 C 177.537 68.846 177.124 68.591 176.709 68.591 C 176.501 68.591 176.296 68.591 175.88 68.337 C 175.467 68.337 175.053 68.084 174.64 68.084 C 174.432 68.084 174.018 68.084 173.811 67.828 C 173.605 67.828 173.397 67.828 173.189 67.828 C 173.397 66.812 173.605 66.049 173.811 65.031 C 174.018 64.522 174.018 64.015 174.224 63.252 C 174.64 61.472 174.845 59.692 175.053 57.912 C 175.467 54.097 175.88 50.283 175.88 46.469 L 175.88 38.586 C 175.88 29.179 113.377 28.416 94.129 28.416 C 74.88 28.416 12.377 29.179 12.377 38.586 L 12.377 46.724 C 12.377 50.537 12.582 54.352 13.204 58.166 C 13.409 59.946 13.617 61.725 14.032 63.506 C 14.238 64.015 14.238 64.522 14.446 65.287 C 14.653 66.303 14.859 67.066 15.066 68.084 C 14.859 68.084 14.653 68.084 14.446 68.084 C 14.238 68.084 13.825 68.084 13.617 68.337 C 13.204 68.337 12.79 68.591 12.582 68.591 C 12.169 68.591 11.961 68.846 11.548 68.846 C 11.342 68.846 11.134 68.846 10.926 69.1 C 10.513 69.1 10.098 69.354 9.893 69.354 C 9.064 69.1 8.858 69.1 8.858 69.1 C 8.65 69.1 8.237 69.354 8.029 69.354 L 7.408 69.609 C 6.994 69.609 6.789 69.609 6.789 69.354 C 6.581 69.1 6.373 68.846 6.373 68.591 L 6.373 34.518 C 6.373 25.619 44.042 18.753 94.129 18.753 C 117.309 18.753 139.04 20.279 154.976 23.076 C 179.812 27.398 181.883 32.992 181.883 34.518 L 181.883 68.846 Z" style="fill: rgb(232, 65, 65);"/>
  <g transform="matrix(0.590637, 0, 0, 0.773816, 216.641266, -707.706116)">
    <path style="text-indent: 0px; text-transform: none; direction: ltr; baseline-shift: baseline; color: rgb(0, 0, 0); fill: rgb(255, 255, 255);" d="m 50,973.36218 c -3.3138,0 -6,2.6862 -6,6 l 0,16.99999 -17,0 c -3.3136,0 -6,2.6862 -6,6.00003 0,3.3136 2.6864,6 6,6 l 17,0 0,17 c 0,3.3136 2.6862,6 6,6 3.3136,0 6,-2.6864 6,-6 l 0,-17 17,0 c 3.3138,0 6,-2.6864 6,-6 0,-3.31383 -2.6862,-6.00003 -6,-6.00003 l -17,0 0,-16.99999 c 0,-3.3138 -2.6864,-6 -6,-6 z" fill-opacity="1" stroke="none" marker="none" visibility="visible" display="inline" overflow="visible"/>
  </g>
  <g transform="matrix(0.162058, 0, 0, 0.130897, 270.770111, 2.83105)">
    <g transform="translate(0.000000,511.000000) scale(0.100000,-0.100000)">
      <path d="M4389.1,5000.3c-366.3-21.4-933.3-83.8-1219.8-136.4c-531.9-95.5-869-432.6-945-943.1c-33.1-220.2-2-366.3,179.3-828.1c444.3-1130.1,730.7-2180.4,904.1-3304.6c62.4-405.3,204.6-1706.9,204.6-1882.3c0-231.9,99.4-452,251.4-557.3l77.9-54.6l1.9-516.3c0-376.1,7.8-553.4,29.2-652.8c83.8-397.5,397.5-744.3,789.1-869c194.8-64.3,508.6-60.4,697.6,7.8c79.9,27.3,192.9,79.9,251.4,115c153.9,93.5,339,296.2,422.8,467.6c111.1,226,128.6,342.9,128.6,931.4l1.9,516.3l77.9,54.6c152,105.2,251.4,325.4,251.4,559.2c0,173.4,140.3,1465.3,204.6,1880.3c165.6,1077.5,455.9,2157,847.6,3156.6c229.9,590.4,239.7,623.5,241.6,828.1c0,122.7-11.7,224.1-35.1,302c-118.8,397.5-440.4,695.6-839.8,777.5c-165.6,35.1-695.6,101.3-1013.2,128.6C5560.2,5008.1,4739.8,5019.8,4389.1,5000.3z M5986.9,4649.6c656.7-66.3,941.1-116.9,1077.5-189c124.7-68.2,276.7-233.8,341-370.2c46.8-99.4,52.6-136.4,50.7-307.9c0-189-3.9-200.7-103.3-448.2c-58.5-138.3-152-380-208.5-535.8L7043,2516H5002.9H2962.8l-103.3,282.5c-56.5,155.9-150,397.5-206.5,535.8c-101.3,247.5-103.3,257.2-105.2,448.2c0,171.5,5.8,208.5,52.6,307.9c64.3,136.4,216.3,302,341,370.2c140.3,76,524.1,140.3,1106.7,189c140.3,9.7,292.3,23.4,341,27.3C4560.6,4690.5,5786.2,4671,5986.9,4649.6z M6922.2,2178.9c0-9.7-35.1-134.5-77.9-278.6c-189-625.5-380-1480.9-475.4-2131.7c-27.3-181.2-76-584.6-109.1-896.3c-31.2-309.8-64.3-594.3-70.2-627.4l-9.7-64.3H5002.9H3824.1l-7.8,44.8c-5.9,23.4-33.1,270.8-60.4,549.5C3631.1,10.2,3446,978.6,3149.9,1933.4c-37,120.8-66.3,228-66.3,239.7c0,15.6,526.1,21.4,1919.3,21.4C6059,2194.5,6922.2,2186.7,6922.2,2178.9z M6162.2-2181.9c0-74-70.2-187-150-241.6l-72.1-48.7h-937.2h-937.2l-72.1,48.7c-79.9,54.6-150,167.6-150,241.6v50.7h1159.4h1159.4V-2181.9z M5831-2969v-175.4h-828.1h-828.1v175.4v175.4h828.1H5831V-2969z M5831-3631.5v-175.4h-828.1h-828.1v175.4v175.4h828.1H5831V-3631.5z M5624.5-4188.8c-52.6-79.9-239.7-200.7-374.1-241.6c-253.3-77.9-526.1-31.2-740.4,126.6c-66.3,46.8-128.6,103.3-140.3,126.7c-21.4,39-19.5,39,633.3,39h652.7L5624.5-4188.8z" style="fill: rgb(88, 193, 91);"/>
    </g>
  </g>
</svg>