<?xml version="1.0" encoding="utf-8"?>
<svg width="24" height="24" viewBox="0 0 18.191 18.191" xmlns="http://www.w3.org/2000/svg">
  <path d="M 18.11 18.08 L 14.11 18.08 L 14.11 11.33 C 14.11 10.27 12.92 9.39 11.86 9.39 C 10.8 9.39 10.11 10.27 10.11 11.33 L 10.11 18.08 L 6.11 18.08 L 6.11 6.08 L 10.11 6.08 L 10.11 8.08 C 10.77 7.01 12.47 6.32 13.61 6.32 C 16.11 6.32 18.11 8.36 18.11 10.83 L 18.11 18.08 M 4.11 18.08 L 0.11 18.08 L 0.11 6.08 L 4.11 6.08 L 4.11 18.08 M 2.11 0.08 C 3.215 0.08 4.11 0.976 4.11 2.08 C 4.11 3.185 3.215 4.08 2.11 4.08 C 1.006 4.08 0.11 3.185 0.11 2.08 C 0.11 0.976 1.006 0.08 2.11 0.08 Z" style="fill: rgb(212, 15, 28);"/>
</svg>