<svg xmlns="http://www.w3.org/2000/svg" xmlns:xlink="http://www.w3.org/1999/xlink" version="1.1" x="0px" y="0px" viewBox="0 0 100 125" style="enable-background:new 0 0 100 100;" xml:space="preserve"><path d="M78.4,24.5H21.3c-4.3,0-7.8,3.6-7.8,7.9v24.8c0,4.4,3.5,7.9,7.8,7.9h15.6c-5.7,3.4-6,8.6-6,8.7c0,0.4,0.1,0.8,0.4,1.1  c0.3,0.3,0.7,0.5,1.1,0.5h35.4c0.4,0,0.8-0.2,1.1-0.5c0.3-0.3,0.4-0.7,0.4-1.1c0-0.1-0.3-5.2-6-8.7h15.6c4.3,0,7.8-3.6,7.8-7.9V32.6  C86.5,28.2,82.9,24.5,78.4,24.5z M65.8,72.5H34.2c1-2.5,4.3-7.2,15.8-7.2C61.5,65.2,64.9,69.9,65.8,72.5z M83.5,57.3  c0,2.7-2.1,4.9-4.8,4.9H21.3c-2.6,0-4.8-2.2-4.8-4.9V32.5c0-2.7,2.1-4.9,4.8-4.9h57.2c2.8,0,5.1,2.3,5.1,5.1V57.3z"/><text x="0" y="115" fill="#000000" font-size="5px" font-weight="bold" font-family="'Helvetica Neue', Helvetica, Arial-Unicode, Arial, Sans-serif">Created by Pravin Unagar</text><text x="0" y="120" fill="#000000" font-size="5px" font-weight="bold" font-family="'Helvetica Neue', Helvetica, Arial-Unicode, Arial, Sans-serif">from the Noun Project</text></svg>