<?xml version="1.0" encoding="utf-8"?>
<svg viewBox="0 0 212 64" xmlns="http://www.w3.org/2000/svg">
  <style type="text/css">
	.st0{display:none;}
</style>
  <path d="M 39.942 9.339 C 36.227 9.339 3.321 9.547 3.321 16.817 L 3.321 30.737 C 3.321 31.255 3.489 31.672 3.826 31.88 C 4.078 32.086 4.331 32.19 4.585 32.19 L 4.585 32.711 C 4.585 34.892 6.022 36.656 7.791 36.656 L 9.817 36.656 C 14.204 46.108 22.304 51.926 31.079 51.926 L 31.333 51.926 C 33.357 51.926 35.298 50.889 36.817 49.122 C 37.662 48.083 38.759 47.564 39.942 47.564 C 41.12 47.564 42.219 48.083 43.061 49.122 C 44.58 50.889 46.523 51.926 48.547 51.926 L 48.8 51.926 C 57.576 51.926 65.761 46.108 70.063 36.656 L 72.087 36.656 C 73.861 36.656 75.295 34.892 75.295 32.711 L 75.295 32.19 L 75.378 32.19 C 75.632 32.19 75.885 32.086 76.053 31.88 C 76.39 31.568 76.559 31.151 76.559 30.737 L 76.559 16.817 C 76.559 9.649 43.653 9.339 39.942 9.339 Z M 9.397 35.619 L 7.791 35.619 L 7.791 35.723 C 6.441 35.723 5.428 34.373 5.428 32.813 L 5.428 31.982 C 5.514 31.982 5.514 31.982 5.597 31.88 C 5.682 31.88 5.682 31.88 5.765 31.776 C 5.935 31.776 6.104 31.672 6.272 31.672 C 6.359 31.672 6.359 31.672 6.441 31.672 C 6.696 31.568 6.947 31.568 7.201 31.464 C 7.284 31.464 7.369 31.464 7.453 31.464 C 7.623 31.464 7.71 31.464 7.878 31.359 C 7.96 31.672 8.046 31.88 8.128 32.19 C 8.215 32.399 8.296 32.711 8.383 32.917 C 8.552 33.438 8.72 33.957 8.973 34.475 L 9.31 35.204 L 9.397 35.619 L 9.397 35.619 Z M 69.472 35.931 C 65.252 45.175 57.322 50.889 48.715 50.889 L 48.463 50.889 C 46.691 50.889 44.917 49.953 43.568 48.395 C 42.556 47.252 41.289 46.525 39.855 46.525 C 38.504 46.525 37.154 47.148 36.143 48.395 C 34.793 50.058 33.02 50.889 31.248 50.889 L 30.996 50.889 C 22.559 50.889 14.627 45.175 10.407 35.931 C 10.322 35.827 10.322 35.723 10.239 35.619 L 15.048 35.619 C 16.06 42.372 18.507 44.863 18.676 45.071 C 18.761 45.175 18.844 45.175 18.929 45.175 C 23.991 45.175 31.586 45.071 32.178 45.175 L 32.262 45.175 C 32.347 45.175 32.347 45.175 32.43 45.175 C 34.371 44.344 35.385 38.943 35.89 35.723 L 37.154 35.723 L 41.966 35.723 L 43.231 35.723 C 43.738 39.047 44.748 44.448 46.691 45.175 C 46.776 45.175 46.859 45.175 46.944 45.175 C 47.533 45.071 55.211 45.175 60.19 45.175 C 60.275 45.175 60.36 45.175 60.443 45.071 C 60.614 44.967 63.06 42.372 64.072 35.619 L 69.641 35.619 C 69.556 35.723 69.556 35.827 69.472 35.931 Z M 16.06 35.619 L 35.044 35.619 C 34.539 39.254 33.529 43.513 32.262 44.138 C 31.418 44.034 28.717 44.034 19.184 44.138 C 18.761 43.617 16.905 41.124 16.06 35.619 Z M 44.158 35.619 L 63.143 35.619 C 62.299 41.124 60.443 43.513 60.022 44.138 C 50.488 44.034 47.786 44.034 46.944 44.138 C 45.677 43.513 44.663 39.254 44.158 35.619 Z M 64.325 34.684 L 63.48 34.684 L 43.99 34.684 L 43.144 34.684 L 41.629 34.684 L 37.662 34.684 L 36.143 34.684 L 35.298 34.684 L 15.81 34.684 L 14.964 34.684 L 9.817 34.684 C 9.565 34.165 9.397 33.542 9.229 32.917 C 9.229 32.813 9.142 32.711 9.142 32.503 C 8.973 31.88 8.805 31.359 8.635 30.737 C 8.296 29.283 7.96 27.827 7.791 26.373 C 7.623 24.919 7.541 23.361 7.541 21.803 L 7.541 18.479 C 8.046 16.921 20.363 15.363 40.023 15.363 C 59.685 15.363 72.003 16.921 72.51 18.479 L 72.51 21.803 L 72.427 21.803 C 72.427 23.361 72.34 24.815 72.174 26.373 C 72.003 27.827 71.667 29.283 71.328 30.737 C 71.16 31.359 70.993 31.88 70.823 32.503 C 70.823 32.607 70.738 32.711 70.738 32.917 C 70.568 33.542 70.314 34.061 70.148 34.684 L 64.325 34.684 Z M 74.621 32.813 C 74.449 34.373 73.356 35.723 72.087 35.723 L 70.568 35.723 L 70.568 35.619 L 70.655 35.307 L 70.993 34.58 C 71.16 34.061 71.411 33.542 71.582 33.022 C 71.667 32.813 71.75 32.503 71.837 32.297 C 71.92 31.982 72.003 31.776 72.087 31.464 C 72.257 31.464 72.427 31.568 72.594 31.568 C 72.677 31.568 72.764 31.568 72.764 31.568 C 73.015 31.672 73.267 31.672 73.522 31.776 C 73.522 31.776 73.522 31.776 73.606 31.776 C 73.861 31.88 74.031 31.88 74.283 31.982 L 74.366 31.982 C 74.449 31.982 74.534 31.982 74.621 32.086 L 74.621 32.813 Z M 75.802 30.841 L 75.802 30.841 C 75.715 30.945 75.632 31.049 75.548 31.151 C 75.461 31.151 75.378 31.255 75.295 31.255 L 75.04 31.151 C 74.871 31.049 74.705 31.049 74.449 30.945 C 74.366 30.945 74.283 30.945 74.198 30.841 C 74.031 30.841 73.861 30.737 73.692 30.737 C 73.606 30.737 73.522 30.737 73.356 30.632 C 73.186 30.632 73.015 30.53 72.847 30.53 C 72.764 30.53 72.594 30.53 72.51 30.424 C 72.427 30.424 72.34 30.424 72.257 30.424 C 72.34 30.01 72.427 29.697 72.51 29.283 C 72.594 29.074 72.594 28.868 72.677 28.556 C 72.847 27.827 72.93 27.102 73.015 26.373 C 73.186 24.815 73.356 23.257 73.356 21.699 L 73.356 18.479 C 73.356 14.636 47.87 14.325 40.023 14.325 C 32.178 14.325 6.696 14.636 6.696 18.479 L 6.696 21.803 C 6.696 23.361 6.779 24.919 7.033 26.477 C 7.116 27.206 7.201 27.931 7.369 28.658 C 7.453 28.868 7.453 29.074 7.541 29.387 C 7.623 29.801 7.71 30.114 7.791 30.53 C 7.71 30.53 7.623 30.53 7.541 30.53 C 7.453 30.53 7.284 30.53 7.201 30.632 C 7.033 30.632 6.864 30.737 6.779 30.737 C 6.611 30.737 6.527 30.841 6.359 30.841 C 6.272 30.841 6.191 30.841 6.104 30.945 C 5.935 30.945 5.765 31.049 5.682 31.049 C 5.345 30.945 5.258 30.945 5.258 30.945 C 5.177 30.945 5.008 31.049 4.922 31.049 L 4.672 31.151 C 4.5 31.151 4.416 31.151 4.416 31.049 C 4.331 30.945 4.246 30.841 4.246 30.737 L 4.246 16.817 C 4.246 13.182 19.605 10.378 40.023 10.378 C 49.474 10.378 58.334 11.001 64.834 12.143 C 74.958 13.909 75.802 16.196 75.802 16.817 L 75.802 30.841 Z" style="fill: rgb(232, 65, 65);"/>
  <g transform="matrix(0.639466, 0, 0, 0.639465, 82.466812, -609.125122)">
    <path style="text-indent: 0px; text-transform: none; direction: ltr; baseline-shift: baseline; color: rgb(0, 0, 0); fill: rgb(232, 65, 65);" d="m 50,973.36218 c -3.3138,0 -6,2.6862 -6,6 l 0,16.99999 -17,0 c -3.3136,0 -6,2.6862 -6,6.00003 0,3.3136 2.6864,6 6,6 l 17,0 0,17 c 0,3.3136 2.6862,6 6,6 3.3136,0 6,-2.6864 6,-6 l 0,-17 17,0 c 3.3138,0 6,-2.6864 6,-6 0,-3.31383 -2.6862,-6.00003 -6,-6.00003 l -17,0 0,-16.99999 c 0,-3.3138 -2.6864,-6 -6,-6 z" fill-opacity="1" stroke="none" marker="none" visibility="visible" display="inline" overflow="visible"/>
  </g>
  <g transform="matrix(1, 0, 0, 1, -4.435658, -15.665001)">
    <path d="M 212.443 68.811 L 211.371 68.811 L 208.001 68.811 L 208.001 61.53 C 208.001 44.718 200.861 28.99 188.242 18.074 C 186.347 16.557 184.748 17.503 184.194 17.933 C 171.469 28.853 164.195 44.645 164.195 61.53 L 164.195 68.811 L 160.519 68.811 L 159.753 68.811 C 159.161 68.811 158.681 69.304 158.681 69.911 C 158.681 70.518 159.161 71.011 159.753 71.011 L 160.519 71.011 L 164.195 71.011 L 208.002 71.011 L 211.372 71.011 L 212.444 71.011 C 213.036 71.011 213.516 70.518 213.516 69.911 C 213.516 69.304 213.036 68.811 212.443 68.811 Z M 204.228 68.811 L 168.636 68.811 C 165.823 68.811 167.102 66.442 167.329 66.055 C 175.573 54.376 184.013 53.77 185.64 53.77 C 185.757 53.77 185.825 53.773 185.836 53.774 L 185.913 53.779 L 185.984 53.774 C 185.999 53.773 186.068 53.77 186.184 53.77 C 187.819 53.77 196.338 54.381 204.623 66.235 C 206.023 68.323 204.95 68.743 204.228 68.811 Z M 173.193 51.184 C 173.889 50.14 174.652 49.139 175.492 48.22 L 176.262 50.401 L 178.277 49.653 L 177.191 46.573 C 178.062 45.831 178.998 45.18 180.006 44.654 L 180.709 48.148 L 182.807 47.703 L 182.023 43.811 C 182.97 43.505 183.968 43.301 185.026 43.229 L 185.026 46.819 L 187.171 46.819 L 187.171 43.266 C 188.31 43.377 189.383 43.633 190.392 44.014 L 189.648 47.703 L 191.747 48.148 L 192.386 44.968 C 193.364 45.538 194.273 46.224 195.116 46.997 L 194.178 49.653 L 196.194 50.401 L 196.783 48.73 C 197.592 49.672 198.328 50.687 198.996 51.739 L 197.733 54.383 L 199.657 55.35 L 200.304 53.995 C 201.009 55.322 201.613 56.659 202.131 57.938 C 202.167 58.073 202.22 58.232 202.303 58.423 C 203.102 60.3 202.136 59.667 201.603 59.234 C 194.339 52.013 187.681 51.572 186.186 51.572 C 186.063 51.572 185.972 51.575 185.914 51.577 C 185.855 51.575 185.764 51.572 185.641 51.572 C 184.174 51.572 177.737 51.998 170.636 58.831 C 170.624 58.841 170.615 58.849 170.603 58.86 C 169.214 60.127 169.455 58.597 169.471 58.506 C 170.112 56.864 170.9 55.104 171.858 53.38 L 172.799 55.349 L 174.722 54.382 L 173.193 51.184 Z M 204.672 58.428 C 204.657 58.388 204.646 58.348 204.631 58.307 C 204.629 58.301 204.631 58.297 204.631 58.297 C 201.875 51.018 196.321 41.001 185.917 41.001 C 176.143 41.001 170.602 49.839 167.728 56.945 C 167.727 56.948 167.725 56.95 167.723 56.953 C 166.522 59.645 166.536 57.267 166.551 56.76 C 167.755 42.504 174.331 29.364 185.15 19.919 C 185.512 19.65 186.314 19.256 187.239 20.086 C 198.303 29.835 204.888 43.466 205.756 58.187 C 205.706 60.966 204.882 58.983 204.672 58.428 Z" style="fill: rgb(232, 65, 65);"/>
    <path d="M 204.785 76.038 C 205.377 76.038 205.857 75.545 205.857 74.938 C 205.857 74.331 205.377 73.839 204.785 73.839 L 203.406 73.839 L 168.484 73.839 L 168.331 73.839 C 167.738 73.839 167.258 74.331 167.258 74.938 C 167.258 75.545 167.738 76.038 168.331 76.038 L 168.484 76.038 L 203.406 76.038 L 204.785 76.038 Z" style="fill: rgb(232, 65, 65);"/>
  </g>
</svg>