<svg xmlns="http://www.w3.org/2000/svg" xmlns:xlink="http://www.w3.org/1999/xlink" xmlns:sketch="http://www.bohemiancoding.com/sketch/ns" viewBox="0 0 100 125" version="1.1" x="0px" y="0px"><title>glasses</title><desc>Created with Sketch.</desc><g stroke="none" stroke-width="1" fill="none" fill-rule="evenodd" sketch:type="MSPage"><g sketch:type="MSArtboardGroup" fill="#000000"><path d="M93.9537705,36.3713705 C93.6540175,36.2331591 86.4799309,33 73.5705716,33 C66.4214644,33 62.539664,34.1007549 59.1174848,35.083043 C56.2948114,35.8876307 53.8518251,36.5786876 50,36.5786876 C46.143179,36.5786876 43.7051886,35.8876307 40.8825152,35.083043 C37.460336,34.1007549 33.5785356,33 26.4294284,33 C13.5200691,33 6.34598247,36.2331591 6.04622954,36.3713705 C5.66154662,36.5441347 5.40675664,36.9143438 5.37678134,37.3339141 L5.00209019,42.8673055 C4.9721149,43.3559814 5.26687194,43.8199768 5.73648485,44.0075494 C6.23107718,44.2000581 6.80060773,44.5801394 6.88054185,44.7430314 C6.94548831,44.9404762 7.06538948,45.5525552 7.25023712,46.4262485 C7.83475532,49.2447735 8.91886173,54.496806 10.2477664,57.9915796 C11.7815022,62.0342625 13.4151556,63.771777 17.2220177,65.4105691 C19.4951441,66.3928571 23.0022533,67 26.3844655,67 C29.6867435,67 32.7642069,66.42741 35.2771355,65.3463995 C41.8267369,62.5229384 43.3954439,58.2383856 45.3888008,52.818525 C45.678562,52.0139373 45.933352,51.2883275 46.1581667,50.6367596 C47.5470219,46.6533101 47.8068078,46.1399535 50,46.1399535 C52.1931922,46.1399535 52.457974,46.6533101 53.8418333,50.6367596 C54.0716439,51.2932636 54.321438,52.0139373 54.616195,52.8135889 C56.5995602,58.2383856 58.1632713,62.5229384 64.7178686,65.3463995 C67.2357931,66.42741 70.3132565,67 73.6155345,67 C76.9927508,67 80.5048559,66.3928571 82.7829781,65.4105691 C86.5848444,63.771777 88.213502,62.0342625 89.7522336,57.9915796 C91.0711465,54.5165505 92.1552529,49.2793264 92.7397711,46.4706736 C92.9296146,45.5772358 93.0545117,44.9503484 93.1094664,44.767712 C93.2043881,44.5801394 93.7739187,44.2000581 94.2635151,44.0075494 C94.7331281,43.8199768 95.0278851,43.3559814 94.9979098,42.8673055 L94.6232187,37.3339141 C94.5932434,36.9143438 94.3334575,36.5441347 93.9537705,36.3713705 L93.9537705,36.3713705 L93.9537705,36.3713705 Z M38.7842448,55.9875145 C36.7309372,60.2473868 32.419491,62.4094077 25.9748031,62.4094077 C20.8040652,62.4094077 17.6316801,61.2444832 15.6882819,58.6382114 C13.8098303,56.1109175 11.5367039,45.3156214 13.0204809,41.9788037 C14.4443073,38.7900697 21.0138922,37.6498258 26.699206,37.6498258 C32.6692851,37.6498258 39.7584418,38.883856 41.2072476,41.5839141 C42.6960204,44.3530778 41.7917658,49.7383856 38.7842448,55.9875145 L38.7842448,55.9875145 L38.7842448,55.9875145 Z M84.3117181,58.6332753 C82.3683199,61.2444832 79.1959348,62.4094077 74.0251969,62.4094077 C67.580509,62.4094077 63.2690628,60.2473868 61.2157552,55.9875145 C58.2132301,49.7383856 57.3039796,44.3580139 58.7877566,41.5839141 C60.2415582,38.883856 67.3307149,37.6547619 73.3057899,37.6547619 C78.9811119,37.6547619 85.5556927,38.7900697 86.9795191,41.9788037 C88.4632961,45.3156214 86.1901697,56.1109175 84.3117181,58.6332753 L84.3117181,58.6332753 L84.3117181,58.6332753 Z" sketch:type="MSShapeGroup"/></g></g><text x="0" y="115" fill="#000000" font-size="5px" font-weight="bold" font-family="'Helvetica Neue', Helvetica, Arial-Unicode, Arial, Sans-serif">Created by Anton Anuchin</text><text x="0" y="120" fill="#000000" font-size="5px" font-weight="bold" font-family="'Helvetica Neue', Helvetica, Arial-Unicode, Arial, Sans-serif">from the Noun Project</text></svg>