<svg xmlns="http://www.w3.org/2000/svg" xmlns:xlink="http://www.w3.org/1999/xlink" version="1.1" x="0px" y="0px" viewBox="0 0 73 91.25" enable-background="new 0 0 73 73" xml:space="preserve"><g><path d="M51.9,0.5H21.1c-3.2,0-5.8,2.6-5.8,5.8v57.9c0,3.1,2.5,5.6,5.5,5.8v0.5c0,1.1,0.9,2,2,2s2-0.9,2-2V70h23.4v0.5   c0,1.1,0.9,2,2,2s2-0.9,2-2V70c3.1-0.1,5.5-2.7,5.5-5.8V6.3C57.7,3.1,55.1,0.5,51.9,0.5z M19.3,18.7h34.5v10H19.3V18.7z M21.1,4.5   h30.9c1,0,1.8,0.8,1.8,1.8v8.4H19.3V6.3C19.3,5.3,20.1,4.5,21.1,4.5z M51.9,66H21.1c-1,0-1.8-0.8-1.8-1.8V48.9h3.5c1.1,0,2-0.9,2-2   c0-1.1-0.9-2-2-2h-3.5v-4h8c1.1,0,2-0.9,2-2c0-1.1-0.9-2-2-2h-8v-4.3h34.5v31.5C53.7,65.2,52.9,66,51.9,66z"/><path d="M36.5,46.9c-3.2,0-5.8,2.6-5.8,5.8c0,3.2,2.6,5.8,5.8,5.8c3.2,0,5.8-2.6,5.8-5.8C42.3,49.5,39.7,46.9,36.5,46.9z    M36.5,54.5c-1,0-1.8-0.8-1.8-1.8c0-1,0.8-1.8,1.8-1.8c1,0,1.8,0.8,1.8,1.8C38.3,53.7,37.5,54.5,36.5,54.5z"/></g><text x="0" y="88" fill="#000000" font-size="5px" font-weight="bold" font-family="'Helvetica Neue', Helvetica, Arial-Unicode, Arial, Sans-serif">Created by Icon Fair</text><text x="0" y="93" fill="#000000" font-size="5px" font-weight="bold" font-family="'Helvetica Neue', Helvetica, Arial-Unicode, Arial, Sans-serif">from the Noun Project</text></svg>