<?xml version="1.0" encoding="utf-8"?>
<svg style="enable-background:new 0 0 100 100;" x="0px" y="0px" viewBox="0 0 84.634 93" xmlns="http://www.w3.org/2000/svg">
  <path d="M 82.396 71.615 C 72.396 64.515 63.596 60.915 52.896 59.615 C 51.496 59.415 50.196 60.115 49.396 61.215 C 49.096 61.615 48.896 62.215 48.796 62.715 C 48.596 64.715 49.996 66.515 51.896 66.715 C 60.696 67.815 68.196 70.715 76.596 76.415 L 76.596 85.215 L 8.096 85.215 L 8.096 76.515 C 16.396 70.815 23.896 67.915 32.696 66.815 C 34.496 66.615 35.896 65.015 35.896 63.215 L 35.896 55.215 C 36.996 55.415 38.096 55.515 39.196 55.515 L 40.496 55.515 L 45.496 55.515 C 56.496 55.515 65.396 46.615 65.396 35.615 L 65.396 20.315 C 65.396 9.415 56.496 0.515 45.596 0.515 L 39.296 0.515 C 28.296 0.515 19.396 9.415 19.396 20.315 L 19.396 35.615 C 19.396 42.715 23.096 48.915 28.696 52.415 L 28.696 60.015 C 19.396 61.715 11.396 65.315 2.396 71.615 C 1.396 72.315 0.896 73.415 0.896 74.515 L 0.896 88.815 C 0.896 90.815 2.496 92.415 4.496 92.415 L 80.296 92.415 C 82.296 92.415 83.896 90.815 83.896 88.815 L 83.896 74.615 C 83.896 73.415 83.396 72.315 82.396 71.615 Z M 26.596 20.315 C 26.596 13.315 32.296 7.715 39.196 7.715 L 45.496 7.715 C 52.496 7.715 58.096 13.415 58.096 20.315 L 58.096 35.615 C 58.096 42.615 52.396 48.215 45.496 48.215 L 39.196 48.215 C 32.196 48.215 26.596 42.515 26.596 35.615 L 26.596 20.315 Z" style="fill: rgb(245, 235, 91);"/>
</svg>