<svg xmlns="http://www.w3.org/2000/svg" xmlns:xlink="http://www.w3.org/1999/xlink" version="1.1" x="0px" y="0px" viewBox="0 0 100 125" enable-background="new 0 0 100 100" xml:space="preserve"><path fill="#000000" d="M72.78,20.246H27.22c-0.95,0-1.72-0.771-1.72-1.722V16.66C25.5,10.23,30.752,5,37.207,5h25.586  C69.248,5,74.5,10.23,74.5,16.66v1.864C74.5,19.475,73.73,20.246,72.78,20.246z M28.939,16.803h42.121V16.66  c0-4.531-3.709-8.218-8.268-8.218H37.207c-4.559,0-8.268,3.687-8.268,8.218V16.803z"/><path fill="#000000" d="M62.793,95H37.207C30.752,95,25.5,89.77,25.5,83.34v-7.378c0-0.95,0.77-1.722,1.72-1.722H72.78  c0.95,0,1.72,0.771,1.72,1.722v7.378C74.5,89.77,69.248,95,62.793,95z M28.939,77.684v5.656c0,4.531,3.709,8.218,8.268,8.218h25.586  c4.559,0,8.268-3.687,8.268-8.218v-5.656H28.939z"/><circle fill="#000000" cx="50" cy="84.232" r="3.287"/><path fill="#000000" d="M58.17,12.623c0,0.611-0.495,1.106-1.105,1.106H42.936c-0.61,0-1.105-0.495-1.105-1.106l0,0  c0-0.611,0.495-1.106,1.105-1.106h14.129C57.675,11.517,58.17,12.012,58.17,12.623L58.17,12.623z"/><path fill="#000000" d="M72.78,77.684H27.22c-0.95,0-1.72-0.771-1.72-1.722V18.524c0-0.95,0.77-1.722,1.72-1.722H72.78  c0.95,0,1.72,0.771,1.72,1.722v57.438C74.5,76.912,73.73,77.684,72.78,77.684z M28.939,74.24h42.121V20.246H28.939V74.24z"/><text x="0" y="115" fill="#000000" font-size="5px" font-weight="bold" font-family="'Helvetica Neue', Helvetica, Arial-Unicode, Arial, Sans-serif">Created by Royyan Wijaya</text><text x="0" y="120" fill="#000000" font-size="5px" font-weight="bold" font-family="'Helvetica Neue', Helvetica, Arial-Unicode, Arial, Sans-serif">from the Noun Project</text></svg>