<?xml version="1.0" encoding="utf-8"?>
<svg style="enable-background:new 0 0 100 100;" x="0px" y="0px" viewBox="0 0 58.178 79.851" xmlns="http://www.w3.org/2000/svg">
  <g>
    <path d="M 36.931 23.52 L 41.431 3.02 L 30.131 0.72 L 26.831 7.52 L 21.031 0.72 L 11.931 7.62 L 20.931 23.62 L 36.931 23.62 Z M 20.431 5.92 L 23.931 10.02 L 27.631 14.42 L 30.131 9.22 L 32.131 5.02 L 36.931 6.02 L 33.931 19.82 L 23.131 19.82 L 16.831 8.62 L 20.431 5.92 Z M 57.131 54.42 C 54.931 43.62 38.131 26.52 36.931 25.52 L 20.931 25.52 C 19.731 26.52 2.931 43.62 0.831 54.42 C -1.469 65.72 5.331 79.22 21.131 79.22 L 36.931 79.22 C 52.531 79.22 59.331 65.72 57.131 54.42 Z M 49.931 69.82 C 46.831 73.52 42.331 75.52 36.731 75.52 L 21.031 75.52 C 15.431 75.52 10.931 73.52 7.831 69.82 C 4.631 66.02 3.331 60.42 4.431 55.22 C 6.031 47.12 18.531 33.22 22.331 29.32 L 35.431 29.32 C 39.331 33.22 51.731 47.12 53.331 55.22 C 54.431 60.32 53.131 65.92 49.931 69.82 Z M 30.931 51.42 L 30.931 43.22 C 32.331 43.52 33.231 44.02 34.331 44.72 L 34.631 44.92 L 36.331 41.52 L 36.131 41.42 C 34.931 40.72 33.331 39.72 30.931 39.42 L 30.931 36.22 L 27.031 36.22 L 27.031 39.52 C 23.931 40.22 20.631 42.42 20.631 46.42 C 20.631 49.92 22.431 52.12 27.031 54.22 L 27.031 62.42 C 25.631 62.12 24.731 61.62 23.631 60.92 L 23.331 60.72 L 21.631 64.12 L 21.831 64.22 C 23.031 64.92 24.631 65.92 27.031 66.22 L 27.031 69.42 L 30.931 69.42 L 30.931 66.12 C 34.031 65.42 37.331 63.22 37.331 59.22 C 37.331 55.72 35.631 53.52 30.931 51.42 Z M 27.031 50.12 C 24.331 48.62 24.331 47.62 24.331 46.52 C 24.331 44.92 25.631 43.92 27.031 43.52 L 27.031 50.12 Z M 30.931 62.22 L 30.931 55.62 C 33.631 57.12 33.631 58.12 33.631 59.22 C 33.631 60.82 32.231 61.72 30.931 62.22 Z" style="fill: rgb(236, 213, 10);"/>
  </g>
</svg>