<?xml version="1.0" encoding="utf-8"?>
<svg viewBox="0 0 304 77" xmlns="http://www.w3.org/2000/svg">
  <g transform="matrix(1, 0, 0, 1, 0, 3)">
    <circle cx="76.766" cy="54.507" r="0.611" transform="matrix(0.999988, 0, 0, 1.000012, -4.789269, -14.099365)" style="fill: rgb(255, 179, 0);"/>
    <path d="M 63.628 41.238 C 64.047 41.238 64.388 40.898 64.388 40.479 L 64.388 40.336 C 64.388 39.917 64.047 39.576 63.628 39.576 L 62.356 39.576 C 61.937 39.576 61.597 39.917 61.597 40.336 L 61.597 40.479 C 61.597 40.897 61.937 41.238 62.356 41.238 L 63.628 41.238 Z" style="fill: rgb(255, 179, 0);"/>
    <path d="M 70.895 39.577 L 68.562 39.577 C 68.142 39.577 67.802 39.918 67.802 40.337 L 67.802 40.48 C 67.802 40.898 68.142 41.239 68.562 41.239 L 70.895 41.239 C 70.717 41.009 70.606 40.722 70.606 40.409 C 70.606 40.094 70.716 39.808 70.895 39.577 Z" style="fill: rgb(255, 179, 0);"/>
    <path d="M 71.579 52.352 C 71.962 52.352 72.274 52.04 72.274 51.657 L 72.274 43.952 C 72.274 43.568 71.961 43.256 71.579 43.256 L 62.888 43.256 C 62.505 43.256 62.192 43.568 62.192 43.952 L 62.192 51.657 C 62.192 52.04 62.505 52.352 62.888 52.352 L 71.579 52.352 Z" style="fill: rgb(255, 179, 0);"/>
    <path d="M 52.377 43.663 C 52.377 43.663 43.932 37.494 31.773 37.494 C 21.996 37.494 13.745 41.901 13.745 41.901 L 16.413 49.98 C 16.413 49.98 24.385 46.337 31.772 46.323 C 40.461 46.305 50.03 50.17 50.03 50.17 L 52.377 43.663 Z" style="fill: rgb(255, 179, 0);"/>
    <path d="M 17.312 51.025 C 17.164 51.128 16.986 51.218 16.782 51.28 C 16.157 51.472 15.563 51.341 15.455 50.991 L 12.565 41.552 C 12.457 41.202 12.878 40.762 13.503 40.571 C 13.702 40.51 13.894 40.486 14.071 40.486 L 13.627 39.042 C 13.462 38.507 12.841 38.222 12.24 38.407 L 4.063 40.389 C 3.842 40.457 3.823 39.335 3.377 38.685 C 3.681 38.034 3.807 36.853 3.974 35.274 C 4.416 31.08 5.157 24.061 10.259 18.159 C 15.354 12.263 21.727 10.164 25.945 8.775 C 26.739 8.513 27.44 8.281 28.039 8.056 C 28.035 8.111 28.035 8.148 28.035 8.156 L 28.035 8.354 L 31.732 8.193 C 31.736 8.193 31.937 8.175 32.297 8.157 C 32.171 8.168 32.053 8.178 31.956 8.187 C 31.645 8.22 31.48 8.238 31.48 8.238 C 31.48 8.238 31.646 8.235 31.959 8.228 C 32.271 8.223 32.729 8.23 33.311 8.235 C 33.893 8.245 34.599 8.27 35.407 8.318 C 36.215 8.37 37.124 8.452 38.113 8.554 C 38.606 8.618 39.119 8.685 39.651 8.755 C 40.178 8.847 40.726 8.925 41.284 9.027 C 42.399 9.245 43.567 9.508 44.75 9.857 C 45.339 10.042 45.944 10.209 46.531 10.45 C 46.827 10.562 47.125 10.674 47.425 10.787 C 47.714 10.917 48.003 11.048 48.295 11.18 C 48.583 11.321 48.88 11.424 49.166 11.597 C 49.454 11.758 49.743 11.92 50.032 12.082 L 50.451 12.318 L 50.855 12.592 L 51.664 13.141 C 52.709 13.919 53.637 14.82 54.442 15.831 C 54.85 16.331 55.236 16.852 55.665 17.364 C 55.872 17.628 56.095 17.844 56.307 18.084 C 56.535 18.338 56.773 18.539 57.002 18.765 C 57.937 19.646 59 20.291 59.955 20.905 C 60.911 21.516 61.81 22.121 62.568 22.738 C 63.322 23.373 63.959 24.023 64.517 24.61 C 64.797 24.905 65.059 25.181 65.303 25.437 C 65.435 25.562 65.56 25.685 65.683 25.792 C 65.817 25.887 65.931 25.976 66.062 26.063 C 66.548 26.367 66.9 26.662 67.128 26.874 C 67.357 27.085 67.471 27.207 67.471 27.207 C 67.471 27.207 67.369 27.076 67.158 26.845 C 66.945 26.616 66.626 26.281 66.141 25.938 C 66.034 25.858 65.911 25.751 65.788 25.651 C 65.676 25.539 65.57 25.417 65.454 25.294 C 65.23 25.025 64.987 24.734 64.728 24.424 C 64.703 24.394 64.675 24.362 64.65 24.332 C 64.747 24.442 64.84 24.548 64.929 24.649 C 65.429 25.219 65.825 25.67 66.164 25.874 C 66.204 25.897 66.244 25.924 66.284 25.95 L 67.658 27.233 C 67.642 27.243 67.625 27.251 67.61 27.263 C 67.436 27.392 67.308 27.566 67.251 27.752 C 67.188 27.956 67.217 28.16 67.329 28.312 L 69.734 31.551 C 69.846 31.701 70.031 31.788 70.244 31.788 C 70.44 31.788 70.644 31.717 70.82 31.587 C 70.994 31.458 71.121 31.285 71.179 31.098 C 71.242 30.894 71.213 30.69 71.1 30.538 L 68.696 27.298 C 68.562 27.117 68.315 27.043 68.06 27.078 C 67.899 26.894 67.311 26.243 66.712 25.788 C 68.284 24.413 67.883 23.65 65.605 19.964 C 63.133 15.966 58.769 12.046 53.932 9.477 C 48.889 6.798 43.365 5.502 36.548 5.399 C 33.055 5.347 31.26 5.59 30.254 5.893 C 30.195 5.76 30.1 5.648 29.965 5.571 C 29.013 5.021 26.159 6.087 23.935 7.077 C 21.38 8.214 16.623 11.285 16.576 11.316 L 16.783 11.635 C 16.83 11.604 21.561 8.55 24.089 7.424 C 27.033 6.114 29.159 5.545 29.777 5.9 C 29.831 5.931 29.868 5.97 29.895 6.015 C 29.417 6.2 29.17 6.394 28.971 6.551 C 28.894 6.611 28.826 6.665 28.753 6.708 C 28.383 6.924 28.207 7.301 28.122 7.617 C 27.479 7.87 26.701 8.127 25.834 8.413 C 21.577 9.815 15.143 11.935 9.98 17.909 C 4.8 23.902 4.052 30.995 3.605 35.233 C 3.461 36.596 3.336 37.764 3.098 38.39 C 2.96 38.297 2.8 38.237 2.602 38.237 C 2.362 38.237 2.197 38.386 2.081 38.628 C 2.065 38.609 2.047 38.595 2.032 38.573 C 1.323 37.598 1.829 34.613 2.646 32.088 C 3.605 29.124 4.504 25.726 4.512 25.692 L 4.145 25.596 C 4.137 25.63 3.24 29.018 2.284 31.971 C 1.5 34.396 0.882 37.64 1.724 38.797 C 1.791 38.889 1.868 38.963 1.949 39.027 C 1.789 39.743 1.833 40.814 1.843 41.676 L 2.264 49.433 L 5.352 55.512 C 5.813 56.479 6.902 56.226 7.91 55.989 L 16.667 52.783 C 17.269 52.598 17.622 52.014 17.458 51.478 L 17.312 51.025 Z" style="fill: rgb(255, 179, 0);"/>
    <path d="M 89.101 47.692 C 88.697 45.344 86.654 33.602 86.057 33.006 C 85.43 32.379 84.233 32.108 81.131 31.889 C 80.181 31.821 78.789 31.787 76.994 31.787 C 75.385 31.787 73.731 31.815 72.499 31.842 C 71.069 31.928 70.573 32.081 70.573 32.081 C 70.573 32.081 68.098 32.382 66.044 33.197 C 63.506 34.204 61.71 35.367 59.897 37.135 C 58.146 38.842 58.137 44.101 58.234 52.58 C 58.33 61.046 63.584 60.845 65.919 61.939 C 67.771 62.807 68.438 63.361 68.635 63.554 C 68.54 63.558 68.451 63.563 68.364 63.568 C 68.501 63.68 68.552 63.741 68.558 63.748 L 68.617 63.826 L 68.717 63.821 C 68.758 63.819 72.91 63.603 76.731 63.44 C 81.659 63.23 86.29 62.003 86.336 61.991 L 86.452 61.96 L 89.1 47.759 L 89.106 47.725 L 89.101 47.692 Z M 62.899 36.934 C 62.899 36.934 64.347 36.833 66.52 36.682 C 68.691 36.515 71.589 36.33 74.477 36.076 C 75.199 36.01 75.919 35.94 76.624 35.857 C 76.973 35.807 77.311 35.776 77.66 35.72 L 77.919 35.681 L 77.983 35.672 L 77.999 35.67 C 77.986 35.672 78.004 35.669 78.005 35.668 L 78.036 35.662 L 78.158 35.637 C 78.32 35.602 78.479 35.571 78.641 35.531 C 79.286 35.392 79.906 35.191 80.496 35.018 C 81.086 34.838 81.642 34.654 82.158 34.485 C 84.223 33.795 85.599 33.335 85.599 33.335 C 85.619 33.329 85.641 33.339 85.647 33.359 C 85.653 33.376 85.646 33.395 85.63 33.404 C 85.63 33.404 85.317 33.594 84.754 33.893 C 84.193 34.202 83.377 34.605 82.375 35.048 C 81.367 35.483 80.182 35.964 78.821 36.299 C 78.654 36.347 78.474 36.371 78.299 36.405 L 78.165 36.428 L 78.089 36.44 L 78.025 36.448 L 77.765 36.478 C 77.423 36.526 77.051 36.542 76.69 36.571 C 75.974 36.61 75.246 36.648 74.519 36.687 C 71.614 36.819 68.712 36.913 66.533 36.949 C 64.355 36.986 62.903 37.011 62.903 37.011 C 62.882 37.011 62.865 36.994 62.864 36.973 C 62.863 36.953 62.879 36.936 62.899 36.934 Z M 73.63 40.337 L 73.63 40.48 C 73.63 41.317 72.949 41.999 72.111 41.999 L 68.561 41.999 C 67.723 41.999 67.042 41.317 67.042 40.48 L 67.042 40.337 C 67.042 39.499 67.723 38.818 68.561 38.818 L 72.111 38.818 C 72.949 38.818 73.63 39.499 73.63 40.337 Z M 60.836 40.48 L 60.836 40.337 C 60.836 39.499 61.518 38.818 62.356 38.818 L 63.628 38.818 C 64.465 38.818 65.146 39.499 65.146 40.337 L 65.146 40.48 C 65.146 41.317 64.465 41.999 63.628 41.999 L 62.356 41.999 C 61.519 41.999 60.836 41.317 60.836 40.48 Z M 61.434 51.657 L 61.434 43.952 C 61.434 43.149 62.087 42.497 62.889 42.497 L 71.58 42.497 C 72.382 42.497 73.035 43.149 73.035 43.952 L 73.035 51.657 C 73.035 52.458 72.382 53.112 71.58 53.112 L 62.889 53.112 C 62.086 53.111 61.434 52.458 61.434 51.657 Z M 85.644 61.428 C 85.635 61.444 85.616 61.45 85.599 61.445 C 85.599 61.445 84.223 60.986 82.158 60.295 C 81.643 60.127 81.087 59.942 80.496 59.763 C 79.905 59.59 79.286 59.389 78.641 59.249 C 78.479 59.21 78.32 59.178 78.158 59.143 L 78.036 59.118 L 78.005 59.112 C 78.004 59.112 77.985 59.108 77.999 59.111 L 77.983 59.108 L 77.919 59.099 L 77.66 59.061 C 77.31 59.005 76.973 58.974 76.624 58.924 C 75.918 58.841 75.198 58.771 74.477 58.704 C 71.589 58.45 68.691 58.266 66.52 58.099 C 64.347 57.948 62.899 57.847 62.899 57.847 C 62.878 57.846 62.862 57.827 62.863 57.807 C 62.864 57.787 62.882 57.771 62.902 57.771 C 62.902 57.771 64.354 57.795 66.532 57.832 C 68.711 57.868 71.613 57.961 74.518 58.094 C 75.246 58.133 75.974 58.171 76.689 58.209 C 77.05 58.239 77.421 58.255 77.764 58.303 L 78.024 58.334 L 78.088 58.342 L 78.164 58.354 L 78.298 58.378 C 78.474 58.411 78.653 58.435 78.82 58.483 C 80.181 58.818 81.366 59.3 82.374 59.734 C 83.376 60.176 84.193 60.58 84.753 60.888 C 85.317 61.187 85.629 61.377 85.629 61.377 C 85.648 61.387 85.655 61.41 85.644 61.428 Z M 88.914 47.844 C 88.914 47.844 88.143 48.015 86.986 48.111 C 86.407 48.162 85.733 48.201 85.01 48.202 C 84.287 48.195 83.515 48.136 82.744 48.111 C 81.202 48.051 79.659 48.004 78.502 47.942 C 77.345 47.883 76.574 47.844 76.574 47.844 C 76.553 47.843 76.536 47.825 76.538 47.804 C 76.539 47.784 76.555 47.769 76.574 47.768 C 76.574 47.768 77.345 47.728 78.502 47.671 C 79.659 47.609 81.202 47.561 82.744 47.502 C 83.515 47.477 84.286 47.418 85.01 47.411 C 85.733 47.412 86.407 47.452 86.986 47.502 C 88.144 47.598 88.914 47.768 88.914 47.768 C 88.935 47.772 88.948 47.793 88.944 47.814 C 88.94 47.83 88.928 47.841 88.914 47.844 Z" style="fill: rgb(255, 179, 0);"/>
    <path d="M 65.85 62.718 C 65.464 62.496 64.973 62.237 64.337 61.939 C 62.003 60.845 56.75 61.046 56.653 52.58 C 56.556 44.101 56.566 38.842 58.316 37.135 C 60.129 35.367 61.926 34.204 64.464 33.197 C 64.997 32.986 65.557 32.805 66.095 32.654 L 66.095 30.788 L 65.877 30.82 C 65.808 30.83 58.981 31.864 55.061 34.193 C 51.124 36.532 49.05 40.851 49.03 40.894 L 48.954 41.056 L 52.385 42.939 L 52.62 42.268 C 52.705 42.027 52.982 41.892 53.225 41.978 C 53.472 42.064 53.602 42.335 53.516 42.582 L 50.247 51.895 C 50.163 52.135 49.886 52.272 49.642 52.186 C 49.395 52.099 49.265 51.829 49.351 51.581 L 49.69 50.616 L 47.816 49.938 L 47.804 50.196 C 47.798 50.34 47.662 53.748 49.084 55.801 C 50.433 57.75 53.539 60.591 56.636 62.018 C 59.405 63.293 61.419 63.836 63.371 63.836 L 63.371 63.836 C 63.562 63.836 63.754 63.831 63.945 63.82 C 65.072 63.759 65.543 63.655 65.743 63.425 C 65.887 63.259 65.87 63.067 65.855 62.882 C 65.853 62.832 65.852 62.775 65.85 62.718 Z M 55.721 53.627 L 49.024 53.627 C 48.832 53.627 48.676 53.457 48.676 53.247 C 48.676 53.037 48.832 52.867 49.024 52.867 L 55.721 52.867 C 55.913 52.867 56.069 53.037 56.069 53.247 C 56.069 53.457 55.913 53.627 55.721 53.627 Z M 56.069 41.778 L 53.768 41.778 C 53.559 41.778 53.388 41.608 53.388 41.398 C 53.388 41.189 53.558 41.018 53.768 41.018 L 56.069 41.018 C 56.278 41.018 56.448 41.189 56.448 41.398 C 56.448 41.609 56.278 41.778 56.069 41.778 Z" style="fill: rgb(255, 179, 0);"/>
  </g>
  <g transform="matrix(0.497438, 0, 0, 0.60669, 104.459381, -568.993958)">
    <path style="text-indent: 0px; text-transform: none; direction: ltr; baseline-shift: baseline; color: rgb(0, 0, 0); fill: rgb(255, 179, 0);" d="m 50,973.36218 c -3.3138,0 -6,2.6862 -6,6 l 0,16.99999 -17,0 c -3.3136,0 -6,2.6862 -6,6.00003 0,3.3136 2.6864,6 6,6 l 17,0 0,17 c 0,3.3136 2.6862,6 6,6 3.3136,0 6,-2.6864 6,-6 l 0,-17 17,0 c 3.3138,0 6,-2.6864 6,-6 0,-3.31383 -2.6862,-6.00003 -6,-6.00003 l -17,0 0,-16.99999 c 0,-3.3138 -2.6864,-6 -6,-6 z" fill-opacity="1" stroke="none" marker="none" visibility="visible" display="inline" overflow="visible"/>
  </g>
  <path d="M 234.99 14.681 L 177.89 14.681 C 173.59 14.681 170.09 18.281 170.09 22.581 L 170.09 47.381 C 170.09 51.781 173.59 55.281 177.89 55.281 L 193.49 55.281 C 187.79 58.681 187.49 63.881 187.49 63.981 C 187.49 64.381 187.59 64.781 187.89 65.081 C 188.19 65.381 188.59 65.581 188.99 65.581 L 224.39 65.581 C 224.79 65.581 225.19 65.381 225.49 65.081 C 225.79 64.781 225.89 64.381 225.89 63.981 C 225.89 63.881 225.59 58.781 219.89 55.281 L 235.49 55.281 C 239.79 55.281 243.29 51.681 243.29 47.381 L 243.29 22.781 C 243.09 18.381 239.49 14.681 234.99 14.681 Z M 222.39 62.681 L 190.79 62.681 C 191.79 60.181 195.09 55.481 206.59 55.481 C 218.09 55.381 221.49 60.081 222.39 62.681 Z M 240.09 47.481 C 240.09 50.181 237.99 52.381 235.29 52.381 L 177.89 52.381 C 175.29 52.381 173.09 50.181 173.09 47.481 L 173.09 22.681 C 173.09 19.981 175.19 17.781 177.89 17.781 L 235.09 17.781 C 237.89 17.781 240.19 20.081 240.19 22.881 L 240.19 47.481 Z" style="fill: rgb(255, 179, 0);"/>
  <g transform="matrix(1, 0, 0, 1, 243.328293, 1.275658)">
    <path d="M51.9,0.5H21.1c-3.2,0-5.8,2.6-5.8,5.8v57.9c0,3.1,2.5,5.6,5.5,5.8v0.5c0,1.1,0.9,2,2,2s2-0.9,2-2V70h23.4v0.5   c0,1.1,0.9,2,2,2s2-0.9,2-2V70c3.1-0.1,5.5-2.7,5.5-5.8V6.3C57.7,3.1,55.1,0.5,51.9,0.5z M19.3,18.7h34.5v10H19.3V18.7z M21.1,4.5   h30.9c1,0,1.8,0.8,1.8,1.8v8.4H19.3V6.3C19.3,5.3,20.1,4.5,21.1,4.5z M51.9,66H21.1c-1,0-1.8-0.8-1.8-1.8V48.9h3.5c1.1,0,2-0.9,2-2   c0-1.1-0.9-2-2-2h-3.5v-4h8c1.1,0,2-0.9,2-2c0-1.1-0.9-2-2-2h-8v-4.3h34.5v31.5C53.7,65.2,52.9,66,51.9,66z" style="fill: rgb(255, 179, 0);"/>
    <path d="M36.5,46.9c-3.2,0-5.8,2.6-5.8,5.8c0,3.2,2.6,5.8,5.8,5.8c3.2,0,5.8-2.6,5.8-5.8C42.3,49.5,39.7,46.9,36.5,46.9z    M36.5,54.5c-1,0-1.8-0.8-1.8-1.8c0-1,0.8-1.8,1.8-1.8c1,0,1.8,0.8,1.8,1.8C38.3,53.7,37.5,54.5,36.5,54.5z" style="fill: rgb(255, 179, 0);"/>
  </g>
</svg>