<?xml version="1.0" encoding="utf-8"?>
<svg x="0px" y="0px" viewBox="0 0 99.683 99.02" xmlns="http://www.w3.org/2000/svg">
  <path d="M99.2,49.153C99.195,22.004,77.193,0.005,50.044,0C22.901,0.005,0.897,22.004,0.892,49.153l0,0  C0.897,76.298,22.901,98.3,50.044,98.305C77.193,98.3,99.195,76.298,99.2,49.153L99.2,49.153z M76.375,46.079  c-0.155-4.632-0.631-9.093-1.402-13.292c2.264,0.783,4.371,1.659,6.268,2.625c3.891,1.964,6.931,4.272,8.902,6.639  c1.124,1.351,1.896,2.689,2.366,4.028H76.375z M70.229,46.079H53.121V28.975c5.397,0.186,10.517,0.864,15.18,1.927  C69.364,35.56,70.041,40.684,70.229,46.079z M53.121,22.825V6.691c1.337,0.47,2.678,1.24,4.028,2.362  c3.533,2.932,6.893,8.263,9.265,15.179C62.212,23.456,57.752,22.973,53.121,22.825z M42.943,9.053  c1.351-1.122,2.691-1.892,4.028-2.362v16.134c-4.632,0.148-9.091,0.626-13.292,1.402c0.784-2.266,1.661-4.372,2.625-6.272  C38.268,14.069,40.576,11.027,42.943,9.053z M46.971,28.97v17.108H29.867c0.186-5.399,0.863-10.523,1.927-15.187  C36.454,29.829,41.576,29.156,46.971,28.97z M23.712,46.079H7.583c0.471-1.339,1.242-2.677,2.362-4.028  c2.932-3.536,8.263-6.891,15.179-9.265C24.348,36.985,23.868,41.446,23.712,46.079z M23.717,52.226  c0.15,4.63,0.625,9.093,1.402,13.29c-2.265-0.778-4.371-1.661-6.272-2.625c-3.886-1.963-6.926-4.271-8.902-6.637  c-1.12-1.351-1.891-2.689-2.362-4.028H23.717z M29.862,52.226h17.108v17.106c-5.399-0.188-10.519-0.866-15.182-1.927  C30.723,62.742,30.05,57.623,29.862,52.226z M46.971,75.479v16.129c-1.336-0.466-2.677-1.234-4.028-2.357  c-3.534-2.931-6.889-8.262-9.265-15.177C37.88,74.849,42.338,75.331,46.971,75.479z M57.149,89.251  c-1.351,1.123-2.691,1.892-4.028,2.357V75.479c4.631-0.153,9.091-0.626,13.293-1.402c-0.786,2.266-1.666,4.366-2.626,6.268  C61.821,84.238,59.516,87.277,57.149,89.251z M53.121,69.334V52.226h17.104c-0.188,5.397-0.86,10.521-1.929,15.182  C63.638,68.471,58.514,69.148,53.121,69.334z M76.38,52.226h16.129c-0.471,1.339-1.242,2.678-2.366,4.028  c-2.927,3.535-8.258,6.891-15.175,9.267C75.744,61.318,76.225,56.86,76.38,52.226z M90.194,33.739  c-3.651-2.762-8.196-5.039-13.392-6.822c-1.119-0.386-2.272-0.736-3.449-1.073c-1.101-3.887-2.475-7.47-4.084-10.662  c-1.147-2.261-2.418-4.332-3.807-6.178c5.67,2.181,10.766,5.517,14.991,9.74C84.68,22.969,88.016,28.067,90.194,33.739z   M19.635,18.743c4.228-4.223,9.324-7.563,14.996-9.74c-2.759,3.654-5.039,8.201-6.822,13.394c-0.381,1.118-0.736,2.27-1.071,3.447  c-3.886,1.101-7.472,2.475-10.662,4.084c-2.264,1.146-4.334,2.416-6.181,3.807C12.077,28.064,15.413,22.969,19.635,18.743z   M9.896,64.567c3.654,2.76,8.204,5.04,13.394,6.82c1.12,0.382,2.272,0.739,3.449,1.073c1.106,3.887,2.473,7.47,4.082,10.657  c1.146,2.266,2.416,4.338,3.807,6.181c-5.667-2.179-10.763-5.515-14.991-9.738C15.413,75.336,12.077,70.237,9.896,64.567z   M80.454,79.561c-4.226,4.224-9.325,7.56-14.995,9.74c2.762-3.653,5.039-8.201,6.822-13.394c0.381-1.117,0.738-2.274,1.072-3.446  c3.887-1.105,7.473-2.473,10.662-4.082c2.264-1.148,4.334-2.418,6.179-3.812C88.016,70.237,84.68,75.336,80.454,79.561z" style="fill: rgb(212, 15, 28);"/>
</svg>